<svg width="300" height="300" viewBox="0 0 300 300" fill="none" xmlns="http://www.w3.org/2000/svg">
<circle cx="150.341" cy="150.341" r="149.5" fill="#043480"/>
<path d="M111.337 274.957L115.51 257.962L117.937 258.565L116.076 266.14L125.83 268.564L127.69 260.989L130.116 261.592L125.943 278.587L123.516 277.984L125.311 270.676L115.558 268.252L113.763 275.56L111.337 274.957Z" fill="white"/>
<path d="M103.978 267.502L101.758 266.589L106.747 254.314L108.966 255.227L103.978 267.502ZM101.908 269.408C102.339 269.586 102.645 269.874 102.825 270.272C102.99 270.664 102.99 271.061 102.827 271.462C102.664 271.864 102.387 272.146 101.997 272.31C101.585 272.483 101.163 272.481 100.731 272.303C100.3 272.126 100.002 271.841 99.8371 271.449C99.651 271.066 99.6394 270.674 99.8026 270.272C99.972 269.855 100.263 269.56 100.675 269.388C101.065 269.224 101.476 269.231 101.908 269.408Z" fill="white"/>
<path d="M82.2341 256.328L87.9228 246.391C89.0737 244.381 90.42 243.187 91.9615 242.809C93.5113 242.416 95.2741 242.792 97.2497 243.937C98.3313 244.564 99.2754 245.313 100.082 246.185C100.897 247.042 101.45 247.921 101.741 248.822L99.827 249.851C99.5584 249.079 99.1093 248.337 98.4796 247.626C97.8438 246.891 97.1077 246.282 96.2713 245.797C94.9301 245.02 93.7602 244.766 92.7613 245.034C91.748 245.295 90.8688 246.076 90.1235 247.378L89.6019 248.289C90.4317 247.98 91.294 247.883 92.189 247.997C93.0612 248.117 93.9155 248.419 94.7519 248.904C95.8479 249.539 96.7104 250.347 97.3395 251.328C97.9459 252.315 98.2614 253.374 98.2858 254.505C98.302 255.651 97.9996 256.767 97.3786 257.851C96.7575 258.936 95.9545 259.752 94.9695 260.298C93.9763 260.859 92.9073 261.116 91.7627 261.069C90.6036 261.014 89.4761 260.669 88.3801 260.034C87.5149 259.533 86.8056 258.91 86.2523 258.165C85.6846 257.413 85.3408 256.588 85.221 255.69L84.2025 257.469L82.2341 256.328ZM93.4706 250.588C92.7208 250.154 91.9591 249.925 91.1857 249.9C90.3978 249.867 89.6766 250.037 89.022 250.409C88.3447 250.787 87.799 251.338 87.385 252.061C86.7474 253.175 86.6018 254.284 86.948 255.39C87.286 256.511 88.0319 257.405 89.1855 258.074C90.3536 258.751 91.5041 258.955 92.637 258.687C93.7616 258.433 94.6428 257.749 95.2803 256.636C95.6944 255.912 95.9011 255.165 95.9007 254.395C95.8775 253.63 95.6614 252.917 95.2523 252.257C94.8288 251.587 94.2349 251.031 93.4706 250.588Z" fill="white"/>
<path d="M69.1949 246.394C67.9098 245.307 67.2072 244.069 67.0871 242.679C66.9436 241.292 67.4758 239.875 68.6836 238.43L73.5737 232.58L75.406 234.13L70.6923 239.769C69.8692 240.754 69.4847 241.695 69.5386 242.592C69.5925 243.489 70.0585 244.309 70.9364 245.052C71.9289 245.891 72.9573 246.259 74.0215 246.155C75.0751 246.064 76.0562 245.475 76.9647 244.388L81.3417 239.152L83.174 240.702L71.2774 254.935L69.4452 253.385L74.0467 247.879C73.2588 248.042 72.4472 248 71.612 247.752C70.7641 247.493 69.9584 247.04 69.1949 246.394Z" fill="white"/>
<path d="M34.0325 196.135L50.5542 188.743L51.5245 190.938L45.2718 193.736C46.1332 193.953 46.8929 194.352 47.551 194.934C48.2024 195.501 48.7202 196.219 49.1043 197.088C49.6231 198.261 49.8294 199.429 49.7232 200.59C49.617 201.752 49.2178 202.807 48.5256 203.755C47.8115 204.696 46.8459 205.438 45.6288 205.983C44.4117 206.527 43.2246 206.748 42.0675 206.645C40.9037 206.526 39.8576 206.118 38.9293 205.42C38.001 204.721 37.2774 203.785 36.7586 202.611C36.361 201.712 36.1721 200.81 36.1918 199.907C36.1963 199.01 36.4255 198.168 36.8793 197.381L34.9624 198.239L34.0325 196.135ZM47.1065 197.762C46.7696 197 46.288 196.385 45.6619 195.916C45.0205 195.455 44.3028 195.192 43.5089 195.127C42.6997 195.069 41.8768 195.227 41.04 195.602C40.2033 195.976 39.5463 196.489 39.069 197.141C38.5851 197.777 38.3063 198.486 38.2326 199.268C38.137 200.041 38.2577 200.808 38.5946 201.571C38.9383 202.348 39.4232 202.971 40.0494 203.439C40.6688 203.893 41.3865 204.156 42.2024 204.229C42.9963 204.294 43.8117 204.139 44.6484 203.765C45.4851 203.39 46.1531 202.881 46.6523 202.238C47.1295 201.586 47.4159 200.874 47.5115 200.101C47.5852 199.319 47.4502 198.54 47.1065 197.762Z" fill="white"/>
<path d="M28.0713 175.091L40.919 171.851L41.4691 174.058L39.5298 174.547C40.3093 174.849 40.9816 175.341 41.5467 176.024C42.0916 176.694 42.4769 177.482 42.7026 178.388C43.1298 180.102 42.9976 181.571 42.3062 182.794C41.5985 184.021 40.3235 184.866 38.4812 185.331L31.0878 187.196L30.5075 184.867L37.6343 183.07C38.8786 182.756 39.7495 182.218 40.2468 181.457C40.7279 180.699 40.8295 179.763 40.5514 178.647C40.2451 177.418 39.6316 176.541 38.7109 176.017C37.7902 175.493 36.6511 175.402 35.2936 175.745L28.6517 177.42L28.0713 175.091Z" fill="white"/>
<path d="M26.3252 161.672C26.1716 159.845 26.5028 158.411 27.3186 157.372C28.133 156.316 29.4287 155.712 31.2056 155.561L39.1768 154.883L39.3673 157.15L37.6236 157.298C38.2716 157.645 38.793 158.177 39.1879 158.896C39.5649 159.6 39.7959 160.459 39.8811 161.472C40.0053 162.95 39.748 164.168 39.1093 165.125C38.4692 166.066 37.5679 166.586 36.4055 166.685C35.243 166.784 34.2774 166.44 33.5088 165.652C32.7235 164.866 32.2534 163.551 32.0985 161.707L31.7802 157.921L31.3069 157.961C30.2773 158.049 29.5136 158.415 29.0158 159.059C28.5181 159.704 28.318 160.607 28.4157 161.77C28.4813 162.55 28.6784 163.303 29.0069 164.028C29.3188 164.754 29.7123 165.356 30.1873 165.834L28.4776 166.983C27.8723 166.349 27.3888 165.57 27.0269 164.648C26.6484 163.727 26.4145 162.734 26.3252 161.672ZM38.0042 161.23C37.9275 160.317 37.6619 159.545 37.2075 158.914C36.7365 158.285 36.1148 157.853 35.3424 157.618L33.499 157.775L33.8089 161.462C33.9792 163.488 34.7452 164.443 36.1069 164.327C36.7712 164.271 37.2727 163.969 37.6114 163.421C37.95 162.874 38.081 162.144 38.0042 161.23Z" fill="white"/>
<path d="M20.8026 147.351L20.8945 144.953L39.4305 145.672L39.3386 148.07L20.8026 147.351Z" fill="white"/>
<path d="M26.9852 136.082L27.2961 133.702L40.4317 135.439L40.1208 137.819L26.9852 136.082ZM24.6126 134.558C24.5522 135.02 24.3527 135.389 24.0143 135.664C23.678 135.922 23.2951 136.023 22.8655 135.966C22.4359 135.909 22.0918 135.712 21.8333 135.375C21.5604 135.02 21.4542 134.611 21.5146 134.148C21.5751 133.685 21.7735 133.325 22.1097 133.067C22.4316 132.79 22.8074 132.68 23.237 132.737C23.6831 132.796 24.0426 133.003 24.3155 133.358C24.5741 133.695 24.6731 134.095 24.6126 134.558Z" fill="white"/>
<path d="M42.7852 120.329C42.9945 120.741 43.1195 121.217 43.1602 121.759C43.1847 122.297 43.1324 122.833 43.0033 123.368C42.6905 124.664 42.0999 125.583 41.2316 126.126C40.3634 126.669 39.2816 126.782 37.9864 126.466L30.9193 124.739L30.3913 126.926L28.4727 126.458L29.0007 124.27L26.1835 123.582L26.7467 121.249L29.5638 121.937L30.4555 118.244L32.374 118.712L31.4824 122.406L38.4524 124.109C39.1486 124.279 39.7239 124.24 40.1784 123.99C40.6369 123.725 40.9443 123.268 41.1007 122.62C41.2728 121.907 41.217 121.25 40.9335 120.649L42.7852 120.329Z" fill="white"/>
<path d="M37.3495 98.8244L48.5863 110.147C49.6374 111.17 50.2801 112.139 50.5142 113.055C50.7544 113.955 50.6814 114.902 50.2951 115.897C50.0597 116.503 49.7295 117.053 49.3045 117.549C48.9011 118.035 48.4408 118.391 47.9237 118.618L46.6198 117.003C47.4722 116.604 48.0614 115.985 48.3873 115.146C48.5986 114.603 48.6263 114.094 48.4704 113.621C48.3361 113.138 47.9773 112.612 47.394 112.043L46.6871 111.308L32.261 111.921L33.1664 109.59L44.706 109.159L36.4984 101.015L37.3495 98.8244Z" fill="white"/>
<path d="M66.3409 58.5603L72.804 71.1731L71.2625 72.8802L61.2806 68.939L66.1021 78.5951L64.5607 80.3021L51.4795 75.0185L53.0042 73.33L63.3719 77.59L58.2651 67.5038L59.6223 66.0008L70.0771 70.2389L64.9 60.1561L66.3409 58.5603Z" fill="white"/>
<path d="M71.4684 54.8596L73.3305 53.3455L81.6287 63.6752L79.7666 65.1893L71.4684 54.8596ZM70.8024 52.1146C70.4403 52.409 70.0425 52.5392 69.6089 52.5051C69.1883 52.4604 68.8422 52.2692 68.5709 51.9314C68.2995 51.5936 68.1862 51.2131 68.2311 50.7899C68.2785 50.3433 68.4832 49.9728 68.8453 49.6784C69.2074 49.384 69.5987 49.2591 70.0194 49.3037C70.4425 49.3248 70.7898 49.5043 71.0612 49.8421C71.343 50.1929 71.4602 50.5916 71.4128 51.0383C71.368 51.4614 71.1645 51.8202 70.8024 52.1146Z" fill="white"/>
<path d="M93.708 54.3378C93.5761 54.7807 93.3382 55.2129 92.9945 55.6342C92.6418 56.0415 92.2346 56.3947 91.773 56.6938C90.6541 57.4188 89.5937 57.679 88.5918 57.4742C87.59 57.2694 86.7297 56.6055 86.0108 55.4826L82.0883 49.3556L80.2001 50.5791L79.1352 48.9158L81.0234 47.6923L79.4598 45.2499L81.474 43.9448L83.0376 46.3872L86.2266 44.3208L87.2915 45.9841L84.1024 48.0505L87.971 54.0933C88.3574 54.6968 88.8008 55.0649 89.3012 55.1974C89.8156 55.3209 90.3525 55.2013 90.912 54.8388C91.5274 54.44 91.9396 53.9247 92.1486 53.2928L93.708 54.3378Z" fill="white"/>
<path d="M100.421 36.8644C101.955 36.1708 103.37 36.0703 104.667 36.5629C105.973 37.0335 107.01 38.1285 107.778 39.848L110.888 46.8098L108.701 47.7987L105.703 41.088C105.18 39.9163 104.504 39.1607 103.677 38.8214C102.85 38.482 101.913 38.5492 100.865 39.0231C99.6806 39.5587 98.9031 40.3311 98.5324 41.3401C98.155 42.3339 98.2552 43.4775 98.8331 44.7709L101.617 51.0023L99.4303 51.9912L91.8634 35.0547L94.0502 34.0658L96.9771 40.6167C97.1743 39.8324 97.566 39.1157 98.1522 38.4665C98.7535 37.8105 99.5098 37.2764 100.421 36.8644Z" fill="white"/>
<path d="M145.137 39.0098C144.815 39.3397 144.404 39.6106 143.904 39.8225C143.402 40.0178 142.878 40.1398 142.33 40.1886C141.002 40.307 139.941 40.0417 139.148 39.3929C138.354 38.744 137.899 37.7555 137.782 36.4273L137.144 29.1803L134.903 29.38L134.73 27.4126L136.971 27.213L136.717 24.3241L139.108 24.1111L139.362 27L143.147 26.6628L143.32 28.6302L139.535 28.9674L140.164 36.1147C140.227 36.8286 140.45 37.361 140.832 37.7118C141.231 38.0611 141.762 38.2062 142.426 38.147C143.156 38.082 143.761 37.819 144.239 37.358L145.137 39.0098Z" fill="white"/>
<path d="M159.156 26.7154C160.836 26.8194 162.137 27.3926 163.058 28.4348C163.997 29.4614 164.409 30.9147 164.294 32.7945L163.829 40.4053L161.434 40.257L161.882 32.9207C161.96 31.6398 161.712 30.6559 161.136 29.969C160.56 29.2821 159.698 28.9031 158.55 28.8321C157.253 28.7518 156.207 29.0711 155.411 29.79C154.617 30.4923 154.176 31.5504 154.09 32.9644L153.673 39.7767L151.278 39.6284L152.41 21.113L154.806 21.2613L154.368 28.4229C154.905 27.8217 155.584 27.3711 156.404 27.0711C157.24 26.7722 158.158 26.6537 159.156 26.7154Z" fill="white"/>
<path d="M183.972 37.9869C183.93 38.1654 183.859 38.3969 183.759 38.6814L173.296 36.2123C173.177 37.3829 173.458 38.4167 174.139 39.3137C174.84 40.1983 175.823 40.7899 177.088 41.0885C178.629 41.4522 179.991 41.2257 181.174 40.4089L182.111 42.2228C181.369 42.7667 180.517 43.1138 179.558 43.2642C178.615 43.4184 177.609 43.3691 176.538 43.1165C175.175 42.7949 174.031 42.2338 173.106 41.4331C172.184 40.6161 171.548 39.6356 171.199 38.4914C170.866 37.3511 170.847 36.1479 171.142 34.8819C171.433 33.6321 171.972 32.5691 172.758 31.6929C173.561 30.8206 174.513 30.2233 175.615 29.9011C176.737 29.5665 177.914 29.5447 179.147 29.8357C180.38 30.1266 181.408 30.6691 182.233 31.463C183.078 32.2446 183.65 33.2017 183.951 34.3344C184.268 35.4709 184.275 36.6884 183.972 37.9869ZM178.687 31.8078C177.568 31.5436 176.547 31.6624 175.626 32.1642C174.721 32.6699 174.075 33.4592 173.688 34.5323L181.961 36.4847C182.084 35.3666 181.844 34.3767 181.241 33.5151C180.658 32.641 179.806 32.0719 178.687 31.8078Z" fill="white"/>
<path d="M216.211 39.4252L218.264 40.6676L208.746 56.5894L206.693 55.347L216.211 39.4252Z" fill="white"/>
<path d="M227.167 53.2684C228.607 54.403 229.43 55.6245 229.637 56.9329C229.856 58.2517 229.418 59.6147 228.323 61.0219L223.409 67.3348L221.622 65.9269L222.697 64.546C222.004 64.785 221.26 64.804 220.467 64.6029C219.696 64.3989 218.912 63.9824 218.113 63.3532C216.948 62.4352 216.232 61.415 215.965 60.2925C215.711 59.1803 215.943 58.1639 216.66 57.2432C217.376 56.3226 218.283 55.8491 219.381 55.8228C220.489 55.7833 221.769 56.336 223.223 57.4809L226.207 59.8326L226.499 59.4577C227.134 58.6423 227.385 57.8319 227.251 57.0266C227.118 56.2213 226.593 55.4576 225.676 54.7356C225.061 54.2508 224.377 53.8816 223.624 53.6279C222.881 53.361 222.174 53.2386 221.502 53.2609L221.822 51.2216C222.697 51.2105 223.594 51.3871 224.514 51.7514C225.445 52.1026 226.329 52.6083 227.167 53.2684ZM219.563 62.1409C220.284 62.7082 221.028 63.0403 221.798 63.1372C222.577 63.221 223.315 63.0598 224.011 62.6536L225.148 61.1938L222.242 58.904C220.644 57.6456 219.426 57.5557 218.587 58.6341C218.177 59.1602 218.057 59.7344 218.228 60.3566C218.398 60.9788 218.843 61.5736 219.563 62.1409Z" fill="white"/>
<path d="M233.901 76.8447C233.444 76.8014 232.976 76.6515 232.499 76.395C232.034 76.1269 231.61 75.7945 231.229 75.3978C230.306 74.4361 229.847 73.441 229.853 72.4126C229.859 71.3842 230.34 70.4053 231.296 69.4759L236.513 64.4053L234.954 62.7824L236.371 61.4058L237.929 63.0287L240.009 61.0074L241.671 62.7384L239.591 64.7597L242.224 67.5005L240.807 68.8771L238.175 66.1363L233.03 71.1373C232.516 71.6368 232.243 72.1464 232.211 72.666C232.19 73.1976 232.41 73.7039 232.872 74.1847C233.38 74.7137 233.962 75.0192 234.619 75.1015L233.901 76.8447Z" fill="white"/>
<path d="M249.55 87.9847C249.401 88.0925 249.196 88.2212 248.934 88.3706L242.66 79.6416C241.804 80.4498 241.339 81.4165 241.266 82.5419C241.215 83.671 241.569 84.7633 242.328 85.8189C243.252 87.1046 244.428 87.8261 245.854 87.9835L245.374 89.9713C244.458 89.8959 243.589 89.6006 242.767 89.0856C241.955 88.584 241.228 87.8866 240.586 86.9934C239.769 85.8566 239.273 84.6817 239.099 83.4687C238.939 82.2459 239.101 81.0869 239.587 79.9918C240.082 78.9102 240.855 77.987 241.906 77.2222C242.944 76.4672 244.046 76.0158 245.212 75.868C246.388 75.7337 247.497 75.9059 248.539 76.3845C249.604 76.8669 250.506 77.6223 251.246 78.6509C251.985 79.6794 252.406 80.7645 252.508 81.9061C252.633 83.0515 252.439 84.1514 251.924 85.206C251.419 86.274 250.628 87.2002 249.55 87.9847ZM249.608 79.8422C248.937 78.9084 248.09 78.3294 247.067 78.1051C246.053 77.8944 245.049 78.0683 244.055 78.6268L249.016 85.5288C249.841 84.7635 250.308 83.857 250.417 82.8091C250.549 81.765 250.279 80.776 249.608 79.8422Z" fill="white"/>
<path d="M248.777 100.615C248.282 99.6506 247.933 98.6584 247.728 97.6381C247.538 96.6101 247.513 95.7403 247.654 95.0287L249.797 95.0432C249.693 95.7542 249.721 96.5381 249.879 97.3948C250.037 98.2514 250.31 99.058 250.698 99.8143C251.657 101.683 252.668 102.341 253.733 101.788C254.088 101.604 254.305 101.332 254.383 100.972C254.46 100.612 254.445 100.217 254.336 99.7852C254.249 99.3607 254.086 98.7692 253.847 98.0108C253.508 96.9848 253.279 96.118 253.16 95.4101C253.048 94.7171 253.111 94.0365 253.349 93.3684C253.587 92.7003 254.12 92.1513 254.948 91.7213C256.014 91.1684 257.092 91.1718 258.185 91.7314C259.292 92.2834 260.23 93.3083 260.998 94.8061C261.401 95.5921 261.708 96.4281 261.919 97.3139C262.129 98.1997 262.201 98.9792 262.134 99.6523L259.98 99.6156C260.107 98.3292 259.836 97.0334 259.167 95.7283C258.703 94.8237 258.201 94.2109 257.662 93.8899C257.123 93.5689 256.609 93.5351 256.121 93.7885C255.736 93.9881 255.502 94.279 255.417 94.6611C255.332 95.0432 255.336 95.454 255.43 95.8933C255.532 96.3475 255.699 96.965 255.931 97.746C256.255 98.7796 256.469 99.6355 256.574 100.314C256.7 100.999 256.648 101.664 256.417 102.31C256.187 102.956 255.672 103.486 254.873 103.9C253.808 104.453 252.722 104.435 251.614 103.846C250.529 103.264 249.583 102.187 248.777 100.615Z" fill="white"/>
<path d="M256.912 117.927C256.512 117.7 256.146 117.371 255.815 116.941C255.5 116.506 255.25 116.03 255.065 115.512C254.615 114.256 254.604 113.162 255.03 112.227C255.457 111.292 256.297 110.598 257.55 110.144L264.39 107.665L263.632 105.547L265.488 104.874L266.247 106.992L268.973 106.004L269.782 108.263L267.056 109.251L268.337 112.829L266.48 113.502L265.199 109.924L258.453 112.369C257.78 112.613 257.322 112.965 257.079 113.426C256.842 113.901 256.836 114.453 257.061 115.081C257.308 115.771 257.715 116.289 258.281 116.633L256.912 117.927Z" fill="white"/>
<path d="M261.992 151.958C261.679 151.62 261.429 151.196 261.243 150.686C261.073 150.176 260.978 149.646 260.957 149.096C260.906 147.764 261.224 146.717 261.912 145.957C262.6 145.196 263.61 144.79 264.943 144.738L272.212 144.456L272.126 142.208L274.1 142.132L274.186 144.38L277.084 144.267L277.175 146.666L274.278 146.778L274.423 150.575L272.45 150.652L272.304 146.855L265.135 147.133C264.418 147.161 263.876 147.357 263.506 147.721C263.137 148.103 262.965 148.626 262.991 149.292C263.019 150.025 263.251 150.642 263.687 151.142L261.992 151.958Z" fill="white"/>
<path d="M266.312 170.75C266.129 170.731 265.891 170.689 265.596 170.625L266.7 159.932C265.525 159.96 264.536 160.367 263.734 161.155C262.947 161.961 262.487 163.01 262.353 164.304C262.191 165.878 262.59 167.202 263.552 168.275L261.874 169.431C261.239 168.762 260.786 167.96 260.514 167.027C260.24 166.11 260.159 165.105 260.272 164.011C260.416 162.618 260.826 161.412 261.5 160.394C262.192 159.377 263.082 158.624 264.172 158.134C265.259 157.661 266.45 157.493 267.743 157.628C269.019 157.761 270.142 158.164 271.111 158.835C272.079 159.522 272.794 160.393 273.254 161.447C273.73 162.519 273.903 163.685 273.773 164.944C273.643 166.204 273.237 167.293 272.556 168.211C271.889 169.146 271.014 169.834 269.93 170.274C268.844 170.73 267.638 170.889 266.312 170.75ZM271.759 164.734C271.877 163.59 271.628 162.592 271.012 161.74C270.395 160.905 269.53 160.362 268.416 160.111L267.543 168.566C268.667 168.55 269.617 168.188 270.394 167.482C271.186 166.794 271.641 165.878 271.759 164.734Z" fill="white"/>
<path d="M256.886 181.537C257.233 180.232 257.824 179.14 258.661 178.26C259.494 177.397 260.478 176.807 261.614 176.491C262.766 176.179 263.97 176.192 265.225 176.529C266.481 176.867 267.522 177.457 268.35 178.301C269.194 179.149 269.755 180.154 270.033 181.316C270.323 182.498 270.294 183.742 269.948 185.047C269.64 186.207 269.133 187.175 268.427 187.952C267.716 188.744 266.852 189.271 265.834 189.533L265.168 187.464C265.886 187.226 266.477 186.85 266.941 186.336C267.405 185.822 267.734 185.203 267.926 184.478C268.149 183.64 268.164 182.833 267.974 182.057C267.779 181.297 267.387 180.631 266.797 180.058C266.22 179.506 265.488 179.111 264.603 178.873C263.702 178.631 262.856 178.602 262.065 178.787C261.287 178.992 260.624 179.375 260.079 179.936C259.529 180.513 259.143 181.22 258.921 182.058C258.728 182.783 258.706 183.484 258.853 184.162C259.001 184.841 259.327 185.463 259.832 186.03L258.253 187.496C257.5 186.759 257.004 185.866 256.765 184.818C256.538 183.79 256.578 182.697 256.886 181.537Z" fill="white"/>
<path d="M262.86 204.36C262.168 205.894 261.172 206.905 259.873 207.393C258.583 207.903 257.081 207.767 255.368 206.984L248.432 203.817L249.419 201.629L256.105 204.682C257.272 205.216 258.278 205.336 259.123 205.044C259.968 204.752 260.627 204.082 261.1 203.034C261.635 201.849 261.708 200.755 261.319 199.753C260.945 198.758 260.114 197.966 258.825 197.377L252.617 194.542L253.604 192.354L270.477 200.061L269.49 202.248L262.964 199.268C263.334 199.986 263.514 200.783 263.503 201.658C263.486 202.547 263.272 203.448 262.86 204.36Z" fill="white"/>
<path d="M251.878 223.467C250.928 224.857 249.771 225.677 248.407 225.929C247.048 226.204 245.594 225.806 244.045 224.733L237.776 220.393L239.131 218.412L245.174 222.596C246.229 223.327 247.198 223.622 248.081 223.483C248.963 223.344 249.729 222.8 250.379 221.851C251.113 220.778 251.376 219.714 251.169 218.659C250.976 217.613 250.297 216.686 249.132 215.88L243.521 211.995L244.876 210.014L255.77 217.557L254.471 219.455L252.827 218.316C253.116 219.104 253.181 219.94 253.021 220.823C252.852 221.719 252.471 222.601 251.878 223.467Z" fill="white"/>
<path d="M229.088 229.834C230.003 228.888 231.034 228.241 232.181 227.894C233.328 227.548 234.473 227.514 235.617 227.794C236.761 228.098 237.797 228.704 238.726 229.614C239.655 230.523 240.28 231.543 240.601 232.674C240.922 233.828 240.92 234.981 240.595 236.132C240.282 237.295 239.668 238.349 238.753 239.296C237.837 240.242 236.812 240.882 235.677 241.217C234.542 241.575 233.402 241.603 232.258 241.299C231.115 241.019 230.078 240.425 229.15 239.515C228.221 238.606 227.595 237.574 227.274 236.42C226.953 235.289 226.949 234.143 227.262 232.98C227.564 231.829 228.173 230.78 229.088 229.834ZM230.589 231.303C229.998 231.914 229.607 232.593 229.418 233.341C229.229 234.112 229.251 234.88 229.484 235.645C229.73 236.422 230.18 237.131 230.835 237.772C231.49 238.413 232.201 238.841 232.968 239.055C233.747 239.281 234.51 239.282 235.259 239.059C235.997 238.848 236.661 238.437 237.252 237.826C237.843 237.215 238.239 236.53 238.44 235.771C238.63 235.024 238.607 234.256 238.373 233.467C238.14 232.701 237.695 231.998 237.04 231.357C236.385 230.716 235.668 230.282 234.89 230.056C234.112 229.854 233.348 229.853 232.598 230.052C231.849 230.275 231.179 230.692 230.589 231.303Z" fill="white"/>
<path d="M231.512 252.888L229.639 254.388L218.129 239.841L220.002 238.341L231.512 252.888Z" fill="white"/>
<path d="M207.053 247.268C208.177 246.582 209.337 246.215 210.535 246.167C211.732 246.119 212.85 246.374 213.887 246.932C214.919 247.513 215.77 248.36 216.442 249.473C217.114 250.586 217.463 251.73 217.49 252.904C217.512 254.102 217.221 255.217 216.618 256.249C216.023 257.296 215.164 258.162 214.04 258.849C212.917 259.535 211.763 259.898 210.58 259.937C209.391 259.999 208.281 259.739 207.249 259.159C206.212 258.601 205.358 257.766 204.686 256.653C204.014 255.539 203.668 254.384 203.646 253.187C203.618 252.012 203.902 250.902 204.497 249.855C205.077 248.817 205.929 247.955 207.053 247.268ZM208.138 249.066C207.413 249.509 206.864 250.069 206.494 250.745C206.117 251.443 205.946 252.192 205.98 252.991C206.024 253.805 206.282 254.604 206.755 255.389C207.229 256.173 207.81 256.766 208.499 257.165C209.196 257.579 209.936 257.772 210.717 257.744C211.484 257.725 212.23 257.494 212.956 257.051C213.681 256.608 214.236 256.044 214.621 255.359C214.992 254.684 215.163 253.935 215.134 253.113C215.1 252.314 214.846 251.522 214.372 250.737C213.899 249.952 213.313 249.353 212.616 248.939C211.913 248.548 211.174 248.355 210.398 248.36C209.617 248.388 208.863 248.623 208.138 249.066Z" fill="white"/>
<path d="M189.465 270.272L185.276 259.616C184.429 257.46 184.338 255.657 185.004 254.208C185.664 252.744 187.055 251.59 189.176 250.746C190.338 250.283 191.509 250.006 192.69 249.913C193.865 249.804 194.894 249.915 195.776 250.245L195.384 252.392C194.616 252.124 193.759 252.016 192.813 252.07C191.845 252.114 190.912 252.315 190.014 252.672C188.574 253.245 187.647 254.009 187.234 254.962C186.806 255.922 186.866 257.1 187.415 258.496L187.799 259.473C188.075 258.628 188.537 257.888 189.183 257.254C189.82 256.642 190.587 256.157 191.486 255.8C192.662 255.332 193.829 255.155 194.984 255.269C196.13 255.405 197.15 255.815 198.046 256.499C198.948 257.198 199.627 258.13 200.085 259.293C200.542 260.457 200.677 261.596 200.488 262.711C200.306 263.842 199.84 264.844 199.091 265.716C198.326 266.594 197.355 267.267 196.178 267.736C195.249 268.105 194.322 268.277 193.398 268.25C192.459 268.229 191.602 267.987 190.829 267.523L191.579 269.431L189.465 270.272ZM191.998 257.856C191.193 258.176 190.54 258.634 190.039 259.227C189.523 259.827 189.206 260.501 189.087 261.247C188.96 262.016 189.048 262.788 189.353 263.563C189.823 264.758 190.595 265.562 191.672 265.977C192.754 266.407 193.915 266.376 195.154 265.883C196.408 265.384 197.284 264.605 197.781 263.546C198.284 262.503 198.301 261.384 197.832 260.19C197.527 259.414 197.074 258.787 196.474 258.308C195.865 257.851 195.175 257.578 194.406 257.49C193.622 257.407 192.819 257.529 191.998 257.856Z" fill="white"/>
<path d="M169.175 275.261L172.353 259.638C172.62 258.197 173.069 257.125 173.701 256.423C174.317 255.724 175.146 255.26 176.187 255.031C176.822 254.891 177.464 254.861 178.112 254.94C178.74 255.007 179.292 255.193 179.768 255.497L179.149 257.477C178.344 256.988 177.502 256.841 176.623 257.034C176.053 257.16 175.615 257.418 175.308 257.81C174.981 258.189 174.742 258.779 174.592 259.58L174.374 260.575L182.896 272.241L180.455 272.779L173.686 263.414L171.47 274.756L169.175 275.261Z" fill="white"/>
<path d="M108.465 172L140.798 191.946L116.333 231.604L105.933 212.283L83.9998 211.658L108.465 172Z" fill="white"/>
<path d="M160 192.41L192.042 172L217.076 211.302L195.154 212.243L185.034 231.712L160 192.41Z" fill="white"/>
<circle cx="150.5" cy="145.5" r="61.5" fill="#043480"/>
<g clip-path="url(#clip0)">
<path d="M114.063 172.712C120.382 172.427 126.717 172.285 133.036 172.174C139.354 172.047 145.689 172.063 152.008 172C158.327 172.032 164.661 172.047 170.98 172.158L180.459 172.364C183.618 172.49 186.777 172.553 189.937 172.727C189.968 172.727 190 172.759 190 172.791C190 172.822 189.968 172.854 189.937 172.854C186.777 173.028 183.618 173.091 180.459 173.217L170.98 173.423C164.661 173.518 158.327 173.549 152.008 173.581C145.689 173.518 139.354 173.534 133.036 173.407C126.717 173.297 120.382 173.154 114.063 172.87C114.032 172.854 114 172.822 114 172.775C114 172.743 114.032 172.712 114.063 172.712Z" fill="white"/>
<path d="M119.482 178.277C124.9 177.992 130.318 177.85 135.753 177.739C141.171 177.613 146.59 177.629 152.008 177.565C157.426 177.597 162.845 177.613 168.263 177.723L176.399 177.929C179.116 178.055 181.817 178.119 184.534 178.293C184.566 178.293 184.597 178.324 184.597 178.356C184.597 178.387 184.566 178.419 184.534 178.419C181.817 178.593 179.116 178.656 176.399 178.783L168.263 178.988C162.845 179.083 157.426 179.115 152.008 179.146C146.59 179.067 141.171 179.083 135.753 178.957C130.318 178.846 124.9 178.704 119.482 178.419C119.45 178.419 119.418 178.387 119.418 178.356C119.434 178.308 119.45 178.293 119.482 178.277Z" fill="white"/>
<path d="M126.796 183.146C130.998 182.862 135.2 182.719 139.402 182.609C143.604 182.466 147.806 182.451 152.008 182.435C156.21 182.435 160.412 182.466 164.614 182.593L170.917 182.799C173.018 182.925 175.119 182.988 177.22 183.162C177.252 183.162 177.283 183.194 177.283 183.225C177.283 183.257 177.252 183.289 177.22 183.289C175.119 183.463 173.018 183.526 170.917 183.652L164.614 183.858C160.412 183.984 156.21 184.016 152.008 184.016C147.806 184 143.604 183.968 139.402 183.842C135.2 183.7 130.998 183.573 126.796 183.273C126.764 183.273 126.732 183.241 126.732 183.21C126.748 183.178 126.764 183.146 126.796 183.146Z" fill="white"/>
</g>
<path d="M120.795 162H116.065V152.32C116.006 152.379 115.903 152.459 115.757 152.562C115.625 152.665 115.317 152.797 114.833 152.958C114.363 153.119 113.843 153.2 113.271 153.2V149.13C113.799 149.13 114.261 149.042 114.657 148.866C115.053 148.675 115.353 148.433 115.559 148.14C115.779 147.847 115.94 147.575 116.043 147.326C116.145 147.077 116.211 146.835 116.241 146.6H120.795V162ZM132.484 154.3C132.484 155.664 132.697 156.676 133.122 157.336C133.548 157.996 134.068 158.326 134.684 158.326C135.3 158.326 135.821 157.996 136.246 157.336C136.672 156.676 136.884 155.664 136.884 154.3C136.884 152.951 136.672 151.946 136.246 151.286C135.821 150.626 135.3 150.296 134.684 150.296C134.068 150.296 133.548 150.626 133.122 151.286C132.697 151.946 132.484 152.951 132.484 154.3ZM141.834 154.3C141.834 156.823 141.182 158.795 139.876 160.218C138.571 161.626 136.84 162.33 134.684 162.33C132.528 162.33 130.798 161.626 129.492 160.218C128.187 158.795 127.534 156.823 127.534 154.3C127.534 151.792 128.187 149.827 129.492 148.404C130.798 146.981 132.528 146.27 134.684 146.27C136.84 146.27 138.571 146.981 139.876 148.404C141.182 149.827 141.834 151.792 141.834 154.3ZM152.955 154.3C152.955 155.664 153.167 156.676 153.593 157.336C154.018 157.996 154.539 158.326 155.155 158.326C155.771 158.326 156.291 157.996 156.717 157.336C157.142 156.676 157.355 155.664 157.355 154.3C157.355 152.951 157.142 151.946 156.717 151.286C156.291 150.626 155.771 150.296 155.155 150.296C154.539 150.296 154.018 150.626 153.593 151.286C153.167 151.946 152.955 152.951 152.955 154.3ZM162.305 154.3C162.305 156.823 161.652 158.795 160.347 160.218C159.041 161.626 157.311 162.33 155.155 162.33C152.999 162.33 151.268 161.626 149.963 160.218C148.657 158.795 148.005 156.823 148.005 154.3C148.005 151.792 148.657 149.827 149.963 148.404C151.268 146.981 152.999 146.27 155.155 146.27C157.311 146.27 159.041 146.981 160.347 148.404C161.652 149.827 162.305 151.792 162.305 154.3ZM184.645 146.6L175.845 162H171.445L180.245 146.6H184.645ZM172.259 149.13C171.79 149.13 171.555 149.607 171.555 150.56C171.555 151.513 171.79 151.99 172.259 151.99C172.743 151.99 172.985 151.513 172.985 150.56C172.985 149.607 172.743 149.13 172.259 149.13ZM175.207 147.48C175.926 148.213 176.285 149.24 176.285 150.56C176.285 151.88 175.926 152.907 175.207 153.64C174.488 154.373 173.506 154.74 172.259 154.74C171.012 154.74 170.03 154.373 169.311 153.64C168.607 152.892 168.255 151.865 168.255 150.56C168.255 149.255 168.607 148.235 169.311 147.502C170.03 146.754 171.012 146.38 172.259 146.38C173.506 146.38 174.488 146.747 175.207 147.48ZM183.809 156.61C183.34 156.61 183.105 157.087 183.105 158.04C183.105 158.993 183.34 159.47 183.809 159.47C184.293 159.47 184.535 158.993 184.535 158.04C184.535 157.087 184.293 156.61 183.809 156.61ZM186.757 154.96C187.476 155.693 187.835 156.72 187.835 158.04C187.835 159.36 187.476 160.387 186.757 161.12C186.038 161.853 185.056 162.22 183.809 162.22C182.562 162.22 181.58 161.853 180.861 161.12C180.157 160.372 179.805 159.345 179.805 158.04C179.805 156.735 180.157 155.715 180.861 154.982C181.58 154.234 182.562 153.86 183.809 153.86C185.056 153.86 186.038 154.227 186.757 154.96Z" fill="white"/>
<path d="M149.549 101.927C149.848 101.006 151.152 101.006 151.451 101.927L153.755 109.019C153.889 109.431 154.273 109.71 154.707 109.71H162.164C163.132 109.71 163.535 110.95 162.751 111.519L156.718 115.903C156.368 116.157 156.221 116.609 156.355 117.021L158.66 124.113C158.959 125.034 157.904 125.8 157.121 125.231L151.088 120.848C150.737 120.593 150.263 120.593 149.912 120.848L143.879 125.231C143.096 125.8 142.041 125.034 142.34 124.113L144.645 117.021C144.779 116.609 144.632 116.157 144.282 115.903L138.249 111.519C137.465 110.95 137.868 109.71 138.836 109.71H146.293C146.727 109.71 147.111 109.431 147.245 109.019L149.549 101.927Z" fill="white"/>
<path d="M180.049 118.927C180.348 118.006 181.652 118.006 181.951 118.927L183.245 122.91C183.379 123.322 183.763 123.601 184.196 123.601H188.384C189.353 123.601 189.755 124.84 188.972 125.41L185.584 127.871C185.233 128.126 185.087 128.577 185.22 128.989L186.515 132.972C186.814 133.894 185.759 134.66 184.976 134.09L181.588 131.629C181.237 131.374 180.763 131.374 180.412 131.629L177.024 134.09C176.241 134.66 175.186 133.894 175.485 132.972L176.78 128.989C176.913 128.577 176.767 128.126 176.416 127.871L173.028 125.41C172.245 124.84 172.647 123.601 173.616 123.601H177.804C178.237 123.601 178.621 123.322 178.755 122.91L180.049 118.927Z" fill="white"/>
<path d="M118.049 118.927C118.348 118.006 119.652 118.006 119.951 118.927L121.245 122.91C121.379 123.322 121.763 123.601 122.196 123.601H126.384C127.353 123.601 127.755 124.84 126.972 125.41L123.584 127.871C123.233 128.126 123.087 128.577 123.22 128.989L124.515 132.972C124.814 133.894 123.759 134.66 122.976 134.09L119.588 131.629C119.237 131.374 118.763 131.374 118.412 131.629L115.024 134.09C114.241 134.66 113.186 133.894 113.485 132.972L114.78 128.989C114.913 128.577 114.767 128.126 114.416 127.871L111.028 125.41C110.245 124.84 110.647 123.601 111.616 123.601H115.804C116.237 123.601 116.621 123.322 116.755 122.91L118.049 118.927Z" fill="white"/>
<path d="M192.931 189.069C216.717 165.283 216.717 126.718 192.931 102.931C169.145 79.145 130.58 79.145 106.793 102.931C83.0072 126.718 83.0072 165.283 106.793 189.069C130.58 212.855 169.145 212.855 192.931 189.069Z" stroke="white" stroke-width="3" stroke-miterlimit="10"/>
<defs>
<clipPath id="clip0">
<rect width="76" height="12" fill="white" transform="translate(114 172)"/>
</clipPath>
</defs>
</svg>
