<svg width="173" height="174" viewBox="0 0 173 174" fill="none" xmlns="http://www.w3.org/2000/svg">
<path d="M45.4651 114L77.798 133.946L53.333 173.604L42.9333 154.283L21.0001 153.658L45.4651 114Z" fill="white"/>
<path d="M97 134.41L129.042 114L154.076 153.302L132.154 154.243L122.034 173.711L97 134.41Z" fill="white"/>
<circle cx="87.5" cy="87.5" r="61.5" fill="#043480"/>
<path d="M57.7946 104H53.0646V94.32C53.0059 94.3787 52.9033 94.4593 52.7566 94.562C52.6246 94.6647 52.3166 94.7967 51.8326 94.958C51.3633 95.1193 50.8426 95.2 50.2706 95.2V91.13C50.7986 91.13 51.2606 91.042 51.6566 90.866C52.0526 90.6753 52.3533 90.4333 52.5586 90.14C52.7786 89.8467 52.9399 89.5753 53.0426 89.326C53.1453 89.0767 53.2113 88.8347 53.2406 88.6H57.7946V104ZM69.4845 96.3C69.4845 97.664 69.6972 98.676 70.1225 99.336C70.5478 99.996 71.0685 100.326 71.6845 100.326C72.3005 100.326 72.8212 99.996 73.2465 99.336C73.6718 98.676 73.8845 97.664 73.8845 96.3C73.8845 94.9507 73.6718 93.946 73.2465 93.286C72.8212 92.626 72.3005 92.296 71.6845 92.296C71.0685 92.296 70.5478 92.626 70.1225 93.286C69.6972 93.946 69.4845 94.9507 69.4845 96.3ZM78.8345 96.3C78.8345 98.8227 78.1818 100.795 76.8765 102.218C75.5712 103.626 73.8405 104.33 71.6845 104.33C69.5285 104.33 67.7978 103.626 66.4925 102.218C65.1872 100.795 64.5345 98.8227 64.5345 96.3C64.5345 93.792 65.1872 91.8267 66.4925 90.404C67.7978 88.9813 69.5285 88.27 71.6845 88.27C73.8405 88.27 75.5712 88.9813 76.8765 90.404C78.1818 91.8267 78.8345 93.792 78.8345 96.3ZM89.9548 96.3C89.9548 97.664 90.1675 98.676 90.5928 99.336C91.0181 99.996 91.5388 100.326 92.1548 100.326C92.7708 100.326 93.2915 99.996 93.7168 99.336C94.1421 98.676 94.3548 97.664 94.3548 96.3C94.3548 94.9507 94.1421 93.946 93.7168 93.286C93.2915 92.626 92.7708 92.296 92.1548 92.296C91.5388 92.296 91.0181 92.626 90.5928 93.286C90.1675 93.946 89.9548 94.9507 89.9548 96.3ZM99.3048 96.3C99.3048 98.8227 98.6521 100.795 97.3468 102.218C96.0415 103.626 94.3108 104.33 92.1548 104.33C89.9988 104.33 88.2681 103.626 86.9628 102.218C85.6575 100.795 85.0048 98.8227 85.0048 96.3C85.0048 93.792 85.6575 91.8267 86.9628 90.404C88.2681 88.9813 89.9988 88.27 92.1548 88.27C94.3108 88.27 96.0415 88.9813 97.3468 90.404C98.6521 91.8267 99.3048 93.792 99.3048 96.3ZM121.645 88.6L112.845 104H108.445L117.245 88.6H121.645ZM109.259 91.13C108.79 91.13 108.555 91.6067 108.555 92.56C108.555 93.5133 108.79 93.99 109.259 93.99C109.743 93.99 109.985 93.5133 109.985 92.56C109.985 91.6067 109.743 91.13 109.259 91.13ZM112.207 89.48C112.926 90.2133 113.285 91.24 113.285 92.56C113.285 93.88 112.926 94.9067 112.207 95.64C111.488 96.3733 110.506 96.74 109.259 96.74C108.012 96.74 107.03 96.3733 106.311 95.64C105.607 94.892 105.255 93.8653 105.255 92.56C105.255 91.2547 105.607 90.2353 106.311 89.502C107.03 88.754 108.012 88.38 109.259 88.38C110.506 88.38 111.488 88.7467 112.207 89.48ZM120.809 98.61C120.34 98.61 120.105 99.0867 120.105 100.04C120.105 100.993 120.34 101.47 120.809 101.47C121.293 101.47 121.535 100.993 121.535 100.04C121.535 99.0867 121.293 98.61 120.809 98.61ZM123.757 96.96C124.476 97.6933 124.835 98.72 124.835 100.04C124.835 101.36 124.476 102.387 123.757 103.12C123.038 103.853 122.056 104.22 120.809 104.22C119.562 104.22 118.58 103.853 117.861 103.12C117.157 102.372 116.805 101.345 116.805 100.04C116.805 98.7347 117.157 97.7153 117.861 96.982C118.58 96.234 119.562 95.86 120.809 95.86C122.056 95.86 123.038 96.2267 123.757 96.96Z" fill="white"/>
<path d="M86.5489 43.927C86.8483 43.0057 88.1517 43.0057 88.4511 43.9271L90.7555 51.0193C90.8893 51.4313 91.2733 51.7102 91.7065 51.7102H99.1637C100.132 51.7102 100.535 52.9499 99.7515 53.5193L93.7185 57.9025C93.368 58.1571 93.2213 58.6085 93.3552 59.0205L95.6596 66.1127C95.959 67.034 94.9045 67.8001 94.1208 67.2307L88.0878 62.8475C87.7373 62.5929 87.2627 62.5929 86.9122 62.8475L80.8792 67.2307C80.0955 67.8001 79.041 67.034 79.3404 66.1127L81.6448 59.0205C81.7787 58.6085 81.632 58.1571 81.2815 57.9025L75.2485 53.5193C74.4648 52.9499 74.8676 51.7102 75.8363 51.7102H83.2935C83.7267 51.7102 84.1107 51.4313 84.2445 51.0193L86.5489 43.927Z" fill="white"/>
<path d="M117.049 60.927C117.348 60.0057 118.652 60.0057 118.951 60.9271L120.245 64.9098C120.379 65.3219 120.763 65.6008 121.196 65.6008H125.384C126.353 65.6008 126.755 66.8404 125.972 67.4098L122.584 69.8713C122.233 70.126 122.087 70.5773 122.22 70.9894L123.515 74.9721C123.814 75.8934 122.759 76.6596 121.976 76.0902L118.588 73.6287C118.237 73.374 117.763 73.374 117.412 73.6287L114.024 76.0902C113.241 76.6596 112.186 75.8934 112.485 74.9721L113.78 70.9894C113.913 70.5773 113.767 70.126 113.416 69.8713L110.028 67.4098C109.245 66.8404 109.647 65.6008 110.616 65.6008H114.804C115.237 65.6008 115.621 65.3219 115.755 64.9098L117.049 60.927Z" fill="white"/>
<path d="M55.0489 60.927C55.3483 60.0057 56.6517 60.0057 56.9511 60.9271L58.2451 64.9098C58.379 65.3219 58.763 65.6008 59.1962 65.6008H63.3839C64.3527 65.6008 64.7554 66.8404 63.9717 67.4098L60.5838 69.8713C60.2333 70.126 60.0866 70.5773 60.2205 70.9894L61.5146 74.9721C61.8139 75.8934 60.7595 76.6596 59.9757 76.0902L56.5878 73.6287C56.2373 73.374 55.7627 73.374 55.4122 73.6287L52.0243 76.0902C51.2405 76.6596 50.1861 75.8934 50.4854 74.9721L51.7795 70.9894C51.9134 70.5773 51.7667 70.126 51.4162 69.8713L48.0283 67.4098C47.2446 66.8404 47.6473 65.6008 48.6161 65.6008H52.8038C53.237 65.6008 53.621 65.3219 53.7549 64.9098L55.0489 60.927Z" fill="white"/>
<path d="M129.931 129.591C153.717 105.867 153.717 67.4041 129.931 43.6806C106.145 19.9571 67.5799 19.9571 43.7937 43.6806C20.0074 67.4041 20.0074 105.867 43.7937 129.591C67.5799 153.314 106.145 153.314 129.931 129.591Z" stroke="white" stroke-width="3" stroke-miterlimit="10"/>
</svg>
