<svg width="44" height="44" viewBox="0 0 44 44" fill="none" xmlns="http://www.w3.org/2000/svg">
<circle cx="22" cy="22" r="22" fill="#043480"/>
<path d="M9.22925 15.1699L12.6461 29.2698H31.2051L34.6219 15.1699" fill="#043480"/>
<path d="M9.22925 15.1699L12.6461 29.2698H31.2051L34.6219 15.1699" stroke="white" stroke-miterlimit="10"/>
<path d="M9.82104 16.9385C12.8516 16.9385 12.8516 19.6925 15.8821 19.6925C18.9126 19.6925 18.9126 16.9385 21.9467 16.9385C24.9773 16.9385 24.9773 19.6925 28.0113 19.6925C31.0454 19.6925 31.0419 16.9385 34.076 16.9385" fill="#043480"/>
<path d="M9.82104 16.9385C12.8516 16.9385 12.8516 19.6925 15.8821 19.6925C18.9126 19.6925 18.9126 16.9385 21.9467 16.9385C24.9773 16.9385 24.9773 19.6925 28.0113 19.6925C31.0454 19.6925 31.0419 16.9385 34.076 16.9385" stroke="white" stroke-miterlimit="10"/>
</svg>
