<svg width="300" height="300" viewBox="0 0 300 300" fill="none" xmlns="http://www.w3.org/2000/svg">
<circle cx="150.05" cy="150.363" r="149.5" fill="#043480"/>
<path d="M115.904 260.662L116.413 258.547L128.749 261.568L124.647 278.58L112.651 275.643L113.161 273.529L122.728 275.871L123.988 270.646L115.465 268.559L115.963 266.493L124.486 268.58L125.811 263.087L115.904 260.662Z" fill="white"/>
<path d="M103.22 253.149L104.801 259.321L110.316 256.137L112.782 257.175L105.371 261.406L107.475 269.317L105.01 268.279L103.475 262.452L98.305 265.456L95.8857 264.438L102.974 260.397L100.708 252.092L103.22 253.149Z" fill="white"/>
<path d="M83.3636 257.308C82.2766 256.626 81.4516 255.774 80.8884 254.751C80.3253 253.729 80.0711 252.634 80.1257 251.468C80.1663 250.294 80.5371 249.139 81.2383 248.005C81.9394 246.871 82.8087 246.019 83.8462 245.451C84.8608 244.887 85.9476 244.635 87.1067 244.693C88.2658 244.752 89.3888 245.122 90.4758 245.804C91.2804 246.309 91.9251 246.93 92.4099 247.668C92.8806 248.396 93.1648 249.204 93.2625 250.092L96.8646 244.265L98.8974 245.541L89.3794 260.936L87.4313 259.714L88.5356 257.928C87.6983 258.268 86.8373 258.377 85.9528 258.254C85.0595 258.146 84.1964 257.831 83.3636 257.308ZM89.5409 247.697C88.8209 247.245 88.0778 247.005 87.3116 246.976C86.5225 246.953 85.7815 247.138 85.0888 247.529C84.3731 247.926 83.7743 248.514 83.2922 249.294C82.8102 250.074 82.5545 250.868 82.5252 251.676C82.473 252.489 82.6355 253.241 83.0127 253.93C83.3758 254.61 83.9173 255.176 84.6373 255.628C85.3431 256.071 86.0906 256.304 86.8797 256.327C87.6459 256.356 88.3825 256.179 89.0894 255.796C89.7821 255.404 90.3696 254.819 90.8516 254.039C91.3336 253.259 91.6007 252.463 91.6529 251.649C91.6963 250.85 91.5338 250.099 91.1654 249.395C90.7882 248.706 90.2467 248.14 89.5409 247.697Z" fill="white"/>
<path d="M75.981 234.641C76.9623 235.519 77.6514 236.527 78.0483 237.664C78.4452 238.802 78.5312 239.952 78.3062 241.115C78.0578 242.279 77.5038 243.349 76.6443 244.325C75.7849 245.3 74.8017 245.974 73.6948 246.348C72.5644 246.724 71.4207 246.774 70.2635 246.499C69.0953 246.236 68.0205 245.666 67.0392 244.788C66.0579 243.91 65.375 242.908 64.9906 241.782C64.5827 240.656 64.5029 239.512 64.7513 238.347C64.9763 237.185 65.5185 236.116 66.378 235.14C67.2375 234.165 68.2324 233.49 69.3627 233.114C70.4696 232.74 71.6072 232.685 72.7754 232.947C73.9312 233.198 74.9997 233.763 75.981 234.641ZM74.5927 236.217C73.9592 235.65 73.2673 235.288 72.517 235.131C71.7432 234.976 70.9821 235.033 70.2336 235.302C69.4741 235.584 68.7914 236.069 68.1853 236.757C67.5793 237.445 67.1877 238.179 67.0106 238.96C66.8225 239.753 66.8564 240.521 67.1122 241.265C67.3556 241.997 67.7941 242.646 68.4276 243.213C69.0611 243.779 69.7592 244.147 70.5219 244.315C71.2722 244.472 72.0333 244.415 72.8052 244.144C73.5537 243.874 74.231 243.395 74.837 242.708C75.4431 242.02 75.8401 241.279 76.0283 240.486C76.1929 239.694 76.1591 238.926 75.9267 238.181C75.6708 237.438 75.2261 236.783 74.5927 236.217Z" fill="white"/>
<path d="M57.3211 231.334C56.4698 231.513 55.6293 231.419 54.7995 231.054C53.9698 230.688 53.1796 230.059 52.429 229.166L54.1977 227.656C54.2708 227.769 54.3825 227.915 54.5326 228.094C55.369 229.089 56.3264 229.619 57.4048 229.685C58.4599 229.749 59.5326 229.316 60.623 228.385L65.6438 224.102L67.1879 225.939L57.1082 234.539L55.6284 232.778L57.3211 231.334Z" fill="white"/>
<path d="M54.0905 209.302C54.5317 209.431 54.9626 209.665 55.3832 210.007C55.79 210.357 56.1432 210.763 56.4429 211.225C57.1694 212.343 57.4334 213.406 57.2348 214.416C57.0362 215.425 56.3804 216.297 55.2675 217.032L49.1951 221.038L50.4211 222.925L48.7726 224.012L47.5465 222.126L45.1259 223.723L43.8181 221.71L46.2387 220.113L44.1681 216.927L45.8166 215.839L47.8873 219.026L53.8762 215.074C54.4744 214.68 54.8382 214.23 54.9674 213.725C55.0876 213.207 54.966 212.668 54.6028 212.109C54.2032 211.494 53.6887 211.085 53.0594 210.881L54.0905 209.302Z" fill="white"/>
<path d="M39.4574 167.141C39.8148 167.431 40.1214 167.815 40.3773 168.293C40.6169 168.775 40.7856 169.286 40.8836 169.827C41.121 171.139 40.9526 172.221 40.3783 173.072C39.804 173.923 38.8612 174.469 37.5498 174.71L30.3945 176.025L30.7952 178.239L28.8527 178.595L28.452 176.381L25.5998 176.905L25.1724 174.544L28.0247 174.02L27.348 170.281L29.2905 169.924L29.9672 173.663L37.024 172.366C37.7289 172.237 38.2387 171.965 38.5534 171.552C38.8651 171.122 38.9616 170.579 38.8429 169.923C38.7123 169.201 38.3961 168.624 37.8943 168.19L39.4574 167.141Z" fill="white"/>
<path d="M39.4808 155.176C39.5308 156.492 39.2843 157.685 38.7413 158.757C38.1982 159.829 37.4302 160.684 36.437 161.323C35.4266 161.945 34.2719 162.282 32.9729 162.332C31.6738 162.382 30.5053 162.135 29.4672 161.592C28.4119 161.032 27.5811 160.238 26.975 159.211C26.3523 158.184 26.0159 157.013 25.9659 155.697C25.9159 154.381 26.1627 153.196 26.7064 152.141C27.2328 151.07 28.0012 150.223 29.0116 149.6C30.0047 148.962 31.1508 148.617 32.4498 148.567C33.7489 148.517 34.926 148.772 35.9814 149.331C37.0195 149.875 37.8499 150.66 38.4726 151.687C39.0948 152.697 39.4308 153.86 39.4808 155.176ZM37.3824 155.257C37.3501 154.407 37.1298 153.657 36.7214 153.006C36.2958 152.338 35.7259 151.826 35.0119 151.47C34.2812 151.115 33.4579 150.955 32.5419 150.99C31.6259 151.026 30.8255 151.248 30.1405 151.658C29.439 152.069 28.9096 152.623 28.5525 153.321C28.1948 154.002 28.032 154.767 28.0643 155.616C28.0966 156.466 28.3172 157.224 28.7262 157.892C29.1346 158.544 29.7044 159.056 30.4357 159.428C31.1498 159.784 31.9648 159.944 32.8808 159.909C33.7968 159.873 34.6055 159.65 35.3071 159.24C35.9914 158.813 36.5208 158.259 36.8951 157.577C37.2522 156.88 37.4147 156.106 37.3824 155.257Z" fill="white"/>
<path d="M35.6334 103.072C36.3354 101.378 37.2864 100.259 38.4861 99.7156C39.6922 99.1564 41.1171 99.2227 42.7608 99.9145L50.1343 103.018L49.2631 105.119L47.6501 104.441C48.0653 105.049 48.2829 105.765 48.3029 106.587C48.3139 107.387 48.1248 108.257 47.7354 109.196C47.1674 110.566 46.3807 111.528 45.3755 112.081C44.3767 112.619 43.3396 112.662 42.2643 112.209C41.189 111.757 40.4915 111.002 40.1718 109.946C39.8368 108.882 40.0235 107.496 40.732 105.787L42.1873 102.277L41.7495 102.093C40.7971 101.692 39.9525 101.662 39.2158 102.003C38.4791 102.344 37.8873 103.053 37.4405 104.131C37.1406 104.854 36.9698 105.614 36.9284 106.411C36.8716 107.2 36.944 107.918 37.1455 108.563L35.1035 108.789C34.8583 107.944 34.787 107.028 34.8897 106.041C34.977 105.047 35.2249 104.057 35.6334 103.072ZM46.1835 108.109C46.5345 107.262 46.6534 106.453 46.54 105.682C46.4113 104.905 46.0587 104.232 45.4823 103.664L43.7772 102.946L42.3602 106.364C41.5816 108.242 41.822 109.447 43.0817 109.977C43.6961 110.235 44.279 110.2 44.8301 109.872C45.3813 109.543 45.8324 108.956 46.1835 108.109Z" fill="white"/>
<path d="M37.3089 87.7822L38.4917 85.6939L54.5729 94.9405L53.3901 97.0288L37.3089 87.7822Z" fill="white"/>
<path d="M43.6213 77.5861L44.9907 75.6151L60.1494 86.3069L58.7801 88.2779L43.6213 77.5861Z" fill="white"/>
<path d="M92.3407 56.3557C91.1998 57.0775 90.0244 57.476 88.8145 57.5512C87.6187 57.6175 86.4984 57.3796 85.4536 56.8376C84.4001 56.2814 83.5295 55.4516 82.842 54.3483C82.1544 53.245 81.7953 52.1015 81.7647 50.9179C81.7252 49.7201 81.9993 48.6001 82.587 47.5578C83.1799 46.4924 84.0467 45.5989 85.1876 44.8771C86.2017 44.2355 87.2309 43.8704 88.2753 43.7816C89.3337 43.6839 90.3237 43.8859 91.2451 44.3876L90.3243 46.3606C89.6372 46.0458 88.9494 45.9189 88.2607 45.9799C87.5721 46.0408 86.9109 46.2718 86.2771 46.6727C85.5447 47.1361 84.9841 47.7176 84.5953 48.4172C84.2206 49.1078 84.0537 49.8642 84.0947 50.6863C84.1409 51.4853 84.4065 52.2738 84.8913 53.0518C85.3849 53.8439 85.9832 54.4416 86.6862 54.8449C87.3944 55.2252 88.1387 55.3953 88.9189 55.3553C89.7132 55.3063 90.4765 55.0502 91.2089 54.5869C91.8427 54.1859 92.3364 53.6862 92.6901 53.0877C93.0438 52.4893 93.2292 51.8099 93.2463 51.0496L95.3968 51.0499C95.445 52.1041 95.1999 53.0973 94.6615 54.0296C94.1284 54.9388 93.3548 55.7142 92.3407 56.3557Z" fill="white"/>
<path d="M107.384 48.5926C106.174 49.1125 104.974 49.3112 103.781 49.1887C102.589 49.0662 101.52 48.6553 100.572 47.956C99.6331 47.2348 98.9103 46.2757 98.4034 45.0785C97.8966 43.8814 97.7129 42.6996 97.8525 41.533C98.0008 40.3445 98.4469 39.282 99.1906 38.3455C99.9278 37.3937 100.901 36.6578 102.111 36.1379C103.321 35.6179 104.514 35.4225 105.691 35.5516C106.876 35.6588 107.938 36.073 108.877 36.7942C109.825 37.4934 110.552 38.4416 111.059 39.6388C111.566 40.8359 111.745 42.0287 111.597 43.2172C111.457 44.3838 111.019 45.443 110.281 46.3948C109.56 47.34 108.594 48.0726 107.384 48.5926ZM106.565 46.6587C107.346 46.3231 107.968 45.8471 108.431 45.2309C108.903 44.5927 109.179 43.8756 109.258 43.0796C109.331 42.2683 109.188 41.4405 108.831 40.5964C108.474 39.7523 107.982 39.0836 107.357 38.5904C106.726 38.0818 106.021 37.7859 105.244 37.7028C104.482 37.6131 103.711 37.736 102.93 38.0717C102.149 38.4074 101.519 38.8866 101.041 39.5095C100.578 40.1257 100.302 40.8428 100.214 41.6607C100.135 42.4567 100.274 43.2768 100.631 44.1209C100.989 44.965 101.483 45.6414 102.115 46.1499C102.755 46.6366 103.46 46.9324 104.228 47.0375C105.005 47.1207 105.784 46.9944 106.565 46.6587Z" fill="white"/>
<path d="M127.696 28.3858L130.799 41.2673L128.589 41.8077L128.121 39.8634C127.811 40.6425 127.313 41.3134 126.625 41.8761C125.95 42.4187 125.159 42.8008 124.253 43.0225C122.537 43.4422 121.072 43.3028 119.858 42.6045C118.64 41.8901 117.809 40.6092 117.364 38.7621L115.578 31.3491L117.909 30.779L119.63 37.9246C119.931 39.1723 120.459 40.0469 121.214 40.5486C121.965 41.034 122.899 41.1401 124.016 40.867C125.247 40.5661 126.128 39.9559 126.661 39.0363C127.194 38.1168 127.297 36.9765 126.969 35.6154L125.365 28.9559L127.696 28.3858Z" fill="white"/>
<path d="M143.358 26.5785C145.038 26.4678 146.4 26.8708 147.445 27.7874C148.506 28.6863 149.097 30.0755 149.219 31.9549L149.712 39.5639L147.318 39.7216L146.842 32.387C146.759 31.1064 146.388 30.162 145.731 29.5539C145.074 28.9458 144.171 28.6796 143.024 28.7552C141.726 28.8406 140.728 29.2905 140.03 30.1049C139.33 30.9026 139.026 32.0083 139.118 33.422L139.559 40.2327L137.165 40.3904L136.307 27.1682L138.602 27.0171L138.731 29.0129C139.169 28.2992 139.784 27.7326 140.575 27.313C141.383 26.8923 142.311 26.6475 143.358 26.5785Z" fill="white"/>
<path d="M164.387 39.811C164.013 40.0802 163.562 40.2759 163.033 40.3981C162.506 40.5036 161.968 40.533 161.42 40.4862C160.092 40.3729 159.092 39.9279 158.421 39.1514C157.751 38.3749 157.471 37.3224 157.583 35.9937L158.192 28.7443L155.95 28.553L156.116 26.5849L158.358 26.7762L158.601 23.8864L160.992 24.0905L160.749 26.9803L164.535 27.3034L164.37 29.2714L160.584 28.9483L159.983 36.0981C159.923 36.8123 160.051 37.3752 160.368 37.787C160.701 38.2001 161.2 38.435 161.864 38.4917C162.594 38.5541 163.235 38.3996 163.784 38.0283L164.387 39.811Z" fill="white"/>
<path d="M174.941 31.3166C175.506 30.6525 176.228 30.2094 177.109 29.9872C177.989 29.765 179 29.7749 180.142 30.0168L179.667 32.2927C179.539 32.2488 179.362 32.2026 179.134 32.1542C177.862 31.8846 176.779 32.0554 175.885 32.6667C175.011 33.2651 174.428 34.2658 174.135 35.6689L172.786 42.1295L170.438 41.6318L173.146 28.6616L175.396 29.1386L174.941 31.3166Z" fill="white"/>
<path d="M187.809 32.4194L190.089 33.1678L186.013 45.7754L183.733 45.0269L187.809 32.4194ZM189.733 30.3673C189.29 30.2217 188.964 29.9569 188.755 29.5727C188.563 29.1937 188.533 28.798 188.666 28.3857C188.8 27.9733 189.055 27.6712 189.432 27.4793C189.83 27.2768 190.251 27.2483 190.695 27.3938C191.138 27.5393 191.456 27.8016 191.649 28.1806C191.863 28.5489 191.903 28.9393 191.77 29.3516C191.631 29.7798 191.363 30.0951 190.964 30.2977C190.587 30.4896 190.177 30.5128 189.733 30.3673Z" fill="white"/>
<path d="M206.797 47.6638C206.719 47.8298 206.601 48.0414 206.444 48.2986L196.739 43.6755C196.378 44.7962 196.437 45.8673 196.915 46.8888C197.415 47.9024 198.252 48.6887 199.426 49.2478C200.855 49.9287 202.233 49.9942 203.559 49.4443L204.097 51.4173C203.258 51.793 202.354 51.9533 201.386 51.8982C200.433 51.8503 199.459 51.5898 198.466 51.1167C197.202 50.5146 196.202 49.7241 195.464 48.7452C194.734 47.7512 194.318 46.6575 194.215 45.464C194.127 44.2777 194.359 43.096 194.912 41.9191C195.457 40.7573 196.205 39.8306 197.155 39.1388C198.121 38.4542 199.175 38.0704 200.319 37.9875C201.484 37.8966 202.639 38.1235 203.783 38.6683C204.926 39.213 205.818 39.9609 206.458 40.9118C207.12 41.8549 207.48 42.9124 207.537 44.0844C207.61 45.2636 207.363 46.4567 206.797 47.6638ZM202.922 40.5015C201.884 40.0069 200.863 39.9081 199.858 40.2049C198.869 40.5089 198.073 41.1452 197.471 42.1139L205.145 45.7694C205.499 44.7011 205.471 43.6817 205.061 42.7111C204.674 41.7326 203.961 40.9961 202.922 40.5015Z" fill="white"/>
<path d="M212.168 59.0959C211.271 58.4887 210.486 57.7871 209.815 56.9909C209.154 56.1808 208.713 55.4298 208.493 54.7378L210.375 53.7172C210.627 54.3908 211.029 55.0651 211.58 55.7402C212.132 56.4152 212.76 56.9909 213.464 57.4673C215.203 58.6442 216.405 58.7334 217.071 57.7349C217.293 57.402 217.351 57.0591 217.246 56.7062C217.14 56.3532 216.936 56.0137 216.633 55.6877C216.352 55.3571 215.925 54.9168 215.35 54.3669C214.559 53.6304 213.94 52.9805 213.495 52.4173C213.063 51.8634 212.79 51.236 212.676 50.5352C212.562 49.8344 212.764 49.0957 213.282 48.3191C213.948 47.3206 214.893 46.8034 216.119 46.7674C217.354 46.7177 218.668 47.1645 220.062 48.1078C220.794 48.6029 221.466 49.1881 222.077 49.8634C222.688 50.5387 223.127 51.1877 223.393 51.8104L221.49 52.817C220.981 51.6274 220.119 50.6216 218.905 49.7996C218.063 49.2299 217.328 48.9342 216.702 48.9127C216.075 48.8912 215.609 49.1092 215.304 49.5669C215.064 49.9275 214.999 50.2959 215.109 50.672C215.218 51.0482 215.42 51.4062 215.715 51.7461C216.023 52.0954 216.466 52.5566 217.046 53.1298C217.827 53.8801 218.427 54.5276 218.846 55.0721C219.287 55.6122 219.562 56.221 219.671 56.8986C219.78 57.5761 219.585 58.2894 219.086 59.0383C218.421 60.0368 217.461 60.5447 216.208 60.5619C214.978 60.5746 213.631 60.0859 212.168 59.0959Z" fill="white"/>
<path d="M244.809 93.6921C244.121 92.5694 243.75 91.4064 243.697 90.203C243.643 88.9995 243.892 87.8735 244.441 86.8249C245.014 85.7817 245.852 84.9167 246.956 84.23C248.06 83.5433 249.196 83.1801 250.364 83.1405C251.555 83.1062 252.665 83.3871 253.695 83.983C254.739 84.5702 255.605 85.4251 256.293 86.5478C256.981 87.6704 257.347 88.8263 257.391 90.0155C257.459 91.2102 257.206 92.3291 256.634 93.3723C256.084 94.4209 255.257 95.2886 254.153 95.9753C253.049 96.662 251.902 97.0225 250.711 97.0567C249.543 97.0964 248.437 96.8226 247.393 96.2355C246.358 95.6625 245.497 94.8147 244.809 93.6921ZM246.592 92.5828C247.036 93.3075 247.595 93.8529 248.269 94.2188C248.965 94.5902 249.711 94.7544 250.506 94.7115C251.314 94.6598 252.108 94.3918 252.886 93.9076C253.665 93.4234 254.251 92.833 254.645 92.1364C255.053 91.431 255.242 90.6857 255.21 89.9005C255.187 89.1296 254.954 88.3818 254.51 87.657C254.065 86.9323 253.502 86.3798 252.82 85.9997C252.146 85.6337 251.4 85.4695 250.583 85.507C249.788 85.5499 249.001 85.8135 248.223 86.2977C247.445 86.7819 246.852 87.3767 246.443 88.0821C246.058 88.793 245.87 89.5382 245.878 90.318C245.91 91.1031 246.148 91.858 246.592 92.5828Z" fill="white"/>
<path d="M267.978 102.213C267.399 100.902 266.403 100.563 264.988 101.197L263.939 101.668L265.494 105.19L263.692 105.998L262.157 102.522L251.869 107.135L250.899 104.94L261.187 100.326L260.278 98.2681L262.08 97.46L262.989 99.5182L264.062 99.0374C265.263 98.4987 266.368 98.4232 267.378 98.8108C268.387 99.1984 269.171 100.025 269.73 101.29C269.945 101.778 270.087 102.263 270.154 102.744C270.22 103.226 270.207 103.67 270.114 104.077L268.156 104.161C268.314 103.487 268.254 102.838 267.978 102.213Z" fill="white"/>
<path d="M261.884 153.409C261.575 153.067 261.33 152.64 261.15 152.128C260.986 151.616 260.897 151.085 260.882 150.535C260.846 149.202 261.177 148.159 261.873 147.407C262.57 146.654 263.585 146.26 264.918 146.223L272.19 146.025L272.13 143.776L274.104 143.722L274.164 145.972L277.063 145.893L277.127 148.292L274.229 148.371L274.33 152.169L272.356 152.223L272.254 148.424L265.082 148.62C264.366 148.639 263.82 148.829 263.447 149.19C263.073 149.566 262.896 150.088 262.913 150.755C262.933 151.488 263.158 152.107 263.588 152.612L261.884 153.409Z" fill="white"/>
<path d="M273.31 168.249C273.105 169.92 272.455 171.182 271.36 172.037C270.279 172.911 268.804 173.231 266.935 172.999L259.368 172.058L259.66 169.676L266.954 170.583C268.227 170.741 269.224 170.554 269.944 170.022C270.664 169.49 271.094 168.654 271.234 167.512C271.392 166.222 271.136 165.157 270.466 164.318C269.813 163.481 268.784 162.975 267.378 162.8L260.605 161.959L260.897 159.576L279.305 161.865L279.013 164.247L271.893 163.362C272.461 163.936 272.87 164.642 273.12 165.479C273.368 166.333 273.431 167.256 273.31 168.249Z" fill="white"/>
<path d="M260.603 192.467C260.428 192.414 260.201 192.328 259.924 192.209L262.994 181.907C261.834 181.713 260.788 181.928 259.854 182.551C258.932 183.194 258.285 184.139 257.914 185.385C257.462 186.903 257.608 188.279 258.353 189.514L256.491 190.335C255.992 189.557 255.696 188.684 255.602 187.715C255.504 186.763 255.611 185.759 255.925 184.705C256.325 183.363 256.951 182.256 257.803 181.381C258.671 180.512 259.685 179.94 260.845 179.664C262.001 179.404 263.201 179.462 264.445 179.839C265.673 180.211 266.701 180.818 267.528 181.66C268.351 182.518 268.891 183.509 269.147 184.631C269.415 185.774 269.368 186.953 269.007 188.167C268.645 189.381 268.044 190.374 267.205 191.148C266.377 191.942 265.39 192.453 264.244 192.681C263.093 192.925 261.879 192.853 260.603 192.467ZM267.068 187.58C267.397 186.478 267.338 185.45 266.892 184.497C266.441 183.56 265.692 182.863 264.645 182.407L262.217 190.553C263.324 190.748 264.325 190.572 265.218 190.024C266.123 189.497 266.74 188.682 267.068 187.58Z" fill="white"/>
<path d="M232.233 246.302L226.014 233.559L227.587 231.881L237.485 236.014L232.85 226.26L234.422 224.582L247.391 230.117L245.836 231.777L235.559 227.318L240.47 237.507L239.086 238.985L228.721 234.546L233.703 244.733L232.233 246.302Z" fill="white"/>
<path d="M214.471 242.625C215.535 241.849 216.661 241.389 217.85 241.245C219.039 241.1 220.172 241.264 221.25 241.737C222.324 242.232 223.24 243.008 223.998 244.064C224.756 245.12 225.196 246.233 225.318 247.403C225.435 248.595 225.235 249.731 224.717 250.81C224.209 251.902 223.423 252.836 222.358 253.612C221.294 254.387 220.175 254.842 219 254.977C217.821 255.135 216.694 254.967 215.62 254.471C214.542 253.998 213.624 253.234 212.866 252.178C212.108 251.122 211.67 249.997 211.552 248.805C211.431 247.635 211.624 246.504 212.132 245.412C212.627 244.329 213.407 243.4 214.471 242.625ZM215.696 244.331C215.009 244.831 214.508 245.434 214.192 246.138C213.873 246.865 213.763 247.626 213.862 248.421C213.97 249.229 214.291 250.005 214.826 250.75C215.36 251.494 215.987 252.038 216.705 252.381C217.432 252.737 218.184 252.87 218.96 252.779C219.722 252.697 220.447 252.407 221.134 251.906C221.821 251.405 222.328 250.798 222.657 250.084C222.972 249.38 223.083 248.619 222.988 247.801C222.889 247.007 222.573 246.237 222.038 245.493C221.504 244.748 220.873 244.198 220.145 243.841C219.413 243.508 218.662 243.375 217.89 243.443C217.114 243.534 216.382 243.83 215.696 244.331Z" fill="white"/>
<path d="M207.222 260.282C207.209 261.157 206.934 261.963 206.397 262.7C205.86 263.437 205.077 264.079 204.046 264.625L202.97 262.564C203.096 262.516 203.261 262.437 203.468 262.328C204.616 261.72 205.341 260.892 205.641 259.847C205.934 258.824 205.749 257.677 205.086 256.406L202.032 250.555L204.153 249.432L210.284 261.178L208.252 262.255L207.222 260.282Z" fill="white"/>
<path d="M198.551 272.649L196.321 273.538L189.544 256.27L191.773 255.382L198.551 272.649Z" fill="white"/>
<path d="M174.657 279.931L170.239 261.914L172.471 261.359L172.971 263.398C173.314 262.557 173.836 261.852 174.537 261.282C175.238 260.713 176.066 260.309 177.02 260.072C178.266 259.762 179.449 259.759 180.571 260.064C181.692 260.369 182.657 260.944 183.465 261.791C184.261 262.657 184.818 263.738 185.135 265.033C185.453 266.328 185.458 267.538 185.15 268.662C184.826 269.791 184.238 270.753 183.387 271.549C182.535 272.345 181.487 272.898 180.241 273.208C179.319 273.437 178.427 273.47 177.563 273.307C176.703 273.161 175.931 272.812 175.247 272.261L176.986 279.351L174.657 279.931ZM177.326 262.16C176.518 262.361 175.827 262.73 175.256 263.268C174.688 263.821 174.301 264.484 174.096 265.257C173.895 266.045 173.903 266.885 174.121 267.775C174.34 268.665 174.718 269.404 175.257 269.991C175.8 270.595 176.448 271 177.202 271.207C177.957 271.415 178.738 271.418 179.547 271.216C180.372 271.011 181.07 270.64 181.642 270.102C182.198 269.569 182.584 268.906 182.802 268.113C183.007 267.341 183 266.509 182.782 265.619C182.564 264.729 182.183 263.982 181.641 263.378C181.086 262.795 180.437 262.39 179.695 262.162C178.941 261.955 178.151 261.954 177.326 262.16Z" fill="white"/>
<path d="M201.794 204.794C230.474 176.113 230.474 129.612 201.794 100.931C173.113 72.2503 126.612 72.2503 97.9312 100.931C69.2504 129.612 69.2504 176.113 97.9312 204.794C126.612 233.474 173.113 233.474 201.794 204.794Z" stroke="white" stroke-width="3" stroke-miterlimit="10"/>
<path d="M97.7316 101.272C99.9173 101.343 101.488 101.81 103.44 102.432C104.091 102.637 105.774 103.43 106.312 103.465C107.641 103.55 107.054 102.934 108.342 102.623C111.461 101.859 113.081 104.144 115.755 101.796C116.25 101.364 116.716 99.5393 118.06 100.112C118.669 100.374 118.938 101.251 118.407 101.965C117.756 102.843 121.031 102.284 120.854 102.255C121.717 102.418 124.037 102.149 122.156 103.868C121.109 104.823 119.291 103.493 118.152 103.875C117.127 104.215 116.787 105.106 115.818 105.721C114.46 106.577 110.931 106.888 110.039 108.438C108.978 110.262 111.518 110.977 112.487 111.925C114.114 113.516 113.208 113.523 113.519 115.518C113.937 118.199 115.224 114.881 117.042 113.905C118.442 113.155 119.129 113.028 120.09 111.606C120.798 110.56 120.953 109.209 121.958 108.346C122.884 107.553 124.349 107.002 125.36 108.034C125.848 108.53 125.516 110.086 125.961 110.34C127.008 110.934 128.267 108.508 129.137 108.501C131.472 108.48 129.922 110.079 129.64 111.352C129.59 111.557 131.401 111.253 131.316 112.13C131.21 113.163 130 113.559 129.654 114.45C129.406 115.079 132.978 113.941 132.9 113.877C134.28 114.987 131.521 116.911 130.807 117.201C128.784 118.036 126.117 117.201 123.974 117.675C123.16 117.852 119.468 119.394 121.512 119.755C121.526 119.755 126.874 117.937 123.839 119.79C131.903 122.011 121.512 122.556 119.532 123.242C117.763 123.857 114.566 126.255 113.159 127.529C112.246 128.356 112.331 127.62 111.765 128.498C111.058 129.594 111.503 130.761 110.393 131.907C109.127 133.215 107.111 133.166 106.404 134.715C106.022 135.55 107.259 139.207 105.682 139.327C104.996 139.376 104.204 135.345 102.796 134.821C100.879 134.107 99.599 135.868 97.7246 136.045C95.5884 136.243 94.8599 135.04 93.2118 137.184C92.0588 138.69 90.729 142.213 91.7547 144.08C92.4196 145.297 94.1101 146.223 95.5248 145.65C96.6211 145.205 96.6706 143.5 98.0853 143.352C101.261 143.019 97.8802 145.834 98.3682 147.207C99.0473 149.123 98.6724 147.016 100.405 147.999C102.315 149.081 101.162 147.97 101.749 149.583C102.351 151.224 100.83 151.825 102.817 152.985C103.27 153.247 105.569 153.615 106.015 153.629C107.549 153.693 106.849 154.061 108.448 153.226C109.007 152.936 110.549 150.595 111.419 151.026C111.617 151.125 110.216 154.506 111.765 154.259C111.885 154.237 112.119 152.398 112.663 152.101C113.71 151.535 114.389 152.434 115.5 152.611C117.848 152.985 118.258 152.611 120.076 154.266C121.986 155.999 124.129 156.289 126.025 157.887C126.662 158.425 127.496 159.153 127.751 159.96C128.09 161.028 127.171 161.87 127.312 162.542C127.836 164.975 127.687 162.124 129.604 162.768C130.163 162.952 128.84 164.147 129.64 164.352C130.41 164.55 131.196 163.32 132.094 163.447C132.9 163.56 132.504 165.003 133.049 165.13C133.919 165.328 134.824 164.437 135.963 164.812C137.859 165.442 138.658 167.472 140.412 168.038C141.332 168.335 141.841 167.118 142.435 168.412C142.888 169.41 141.749 170.032 141.402 170.683C140.738 171.928 139.33 173.456 138.764 174.977C138.135 176.667 138.771 178.803 138.099 180.522C136.784 183.882 134.265 182.085 132.554 184.278C131.528 185.594 132.773 187.85 131.719 189.42C131.309 190.036 130.205 190.375 129.654 190.969C129.272 191.733 128.812 192.448 128.267 193.105C127.8 193.544 127.355 193.53 126.909 193.063C126.379 193.417 125.862 191.875 125.565 193.572C125.445 194.244 126.57 194.923 126.548 195.624C126.485 197.555 124.278 197.491 123.663 198.729C123.457 199.139 122.333 199.097 122.156 199.507C122.113 199.606 122.071 201.671 122.078 201.947C122.085 202.294 121.611 202.746 121.661 203.157C121.717 203.602 122.425 204.013 122.467 204.303C122.679 205.675 122.269 205.774 122.057 207.252C121.795 209.056 122.495 211.256 119.687 209.459C118.011 208.384 116.306 205.738 116.356 204.189C116.377 203.454 117.226 202.591 116.978 201.431C116.759 200.377 116.306 200.342 115.832 199.436C114.665 197.187 114.984 195.68 114.955 193.077C114.934 191.054 114.46 189.215 114.135 187.235C113.746 184.83 113.647 181.067 112.508 178.959C111.673 177.403 109.643 176.554 108.455 175.288C107.259 174.022 106.29 172.402 105.328 170.959C104.465 169.672 103.447 168.441 103.32 166.906C103.256 166.156 103.758 165.321 103.751 164.649C103.737 163.199 103.136 163.461 103.794 161.898C104.515 160.186 107.493 157.194 105.859 155.001C104.748 153.509 102.534 155.638 100.625 154.535C99.2595 153.742 99.1109 152.264 98.0853 151.238C97.286 150.439 96.6565 150.474 95.7794 150.008C94.9943 149.597 94.3081 148.84 93.5796 148.459C91.9881 147.624 91.5071 148.416 90.0075 148.161C88.3312 147.871 86.3365 146.308 85.6433 144.837C85.1765 143.833 85.4877 142.503 84.9855 141.491C84.4762 140.466 83.6769 140.303 83.0969 139.511C82.5593 138.782 80.3383 131.78 79.9988 135.918C79.8714 137.495 81.6964 137.162 79.8502 138.372C79.4329 138.648 78.4639 138.676 77.9333 138.761C80.1615 124.819 87.4753 110.885 97.7316 101.272Z" fill="white"/>
<path d="M104.062 140.954C104.013 140.975 101.884 141.923 102.082 142.482C101.771 141.612 105.647 143.38 105.512 143.323C106.206 143.592 109.558 145.53 110.209 144.186C110.259 144.087 104.968 140.543 104.062 140.954Z" fill="white"/>
<path d="M113.236 144.469C110.725 143.882 107.769 146.471 112.197 146.336C114.022 146.287 116.773 145.297 113.236 144.469Z" fill="white"/>
<path d="M132.264 91.5888C131.733 91.4544 128.522 90.6056 128.246 91.5888C127.85 93.0105 130.128 92.6498 130.099 93.4986C130.085 93.8169 128.324 94.7293 128.175 95.1042C127.496 96.8372 128.147 96.9079 129.873 96.7877C131.719 96.6604 133.629 94.8708 135.397 94.2979C136.281 94.0149 140.441 93.6754 140.653 92.5932C140.674 92.48 133.212 91.8222 132.264 91.5888Z" fill="white"/>
<path d="M125.021 96.6816C124.03 96.2006 121.47 96.0945 122.807 97.5092C123.288 98.0184 127.1 98.6621 127.242 97.5445C127.27 97.2899 125.403 96.8655 125.021 96.6816Z" fill="white"/>
<path d="M122.651 99.0439C121.795 98.4356 119.928 99.6664 121.038 100.593C121.682 101.131 122.87 100.253 123.514 100.275C124.674 100.31 128.359 101.138 128.678 102.779C129.137 105.191 124.158 102.913 124.349 105.127C124.363 105.268 128.154 108.119 128.324 108.084C129.236 107.879 128.444 107.009 128.946 106.436C129.434 105.884 129.93 106.775 130.255 106.365C131.111 105.276 129.852 105.41 131.054 104.391C131.606 103.925 133.006 104.978 133.367 103.571C133.77 101.994 131.174 100.925 130.191 100.409C128.6 99.5744 128.324 99.6452 126.534 99.4754C125.898 99.4188 123.097 99.3622 122.651 99.0439Z" fill="white"/>
<path d="M138.142 95.1041C136.671 95.2597 133.049 95.5851 135.525 97.12C138.092 98.7045 140.525 94.6727 141.487 99.3906C142.082 102.291 139.507 102.807 139.875 105.368C140.073 106.761 141.084 109.392 143.072 108.848C144.727 108.388 145.399 105.757 147.443 104.957C148.37 104.597 149.417 104.71 150.357 104.342C151.447 103.918 152.232 102.956 153.357 102.588C155.125 102.008 157.551 102.765 159.143 101.64C161.731 99.8008 157.551 99.3269 158.06 98.853C158.237 98.6903 160.253 98.8176 160.692 98.5701C161.236 98.2659 161.314 97.7 161.703 97.2969C162.106 96.8725 165.749 94.0997 165.749 94.1139C165.608 91.914 158.598 92.2606 157.141 92.3031C155.825 92.3384 154.481 91.9565 153.173 92.2536C151.864 92.5506 150.86 93.5975 149.487 93.6895C147.832 93.7956 146.205 92.8831 144.465 93.0387C142.188 93.2297 140.313 94.8707 138.142 95.1041Z" fill="white"/>
<path d="M103.723 98.1033C101.664 98.6055 98.9978 99.8009 102.549 99.9282C103.228 99.9494 104.826 99.1784 105.371 100.063C106.411 101.753 104.105 100.671 103.921 101.513C103.475 103.521 107.535 101.725 108.009 101.654C109.48 101.435 111.907 102.8 111.914 100.841C111.928 98.655 105.371 97.7072 103.723 98.1033Z" fill="white"/>
<path d="M114.835 98.9096C114.644 98.747 114.425 99.6028 115.288 99.7584C116.066 99.8999 117.622 99.0087 116.837 98.1104C116.978 98.2589 115.259 98.9592 114.835 98.9096Z" fill="white"/>
<path d="M160.614 104.71C157.749 103.932 158.187 107.454 162.205 105.771C162.721 105.559 164.384 105.36 164.101 104.448C163.74 103.295 161.278 104.894 160.614 104.71Z" fill="white"/>
<path d="M221.833 138.181C222.392 140.989 217.66 138.138 215.807 137.799C215.128 137.679 214.534 138.372 213.593 138.082C211.966 137.58 212.39 136.328 211.45 135.634C210.983 135.288 209.611 134.276 208.932 134.948C208.189 135.691 209.278 136.186 209.554 136.922C210.049 138.223 210.686 139.666 212.207 140.048C213.579 140.395 214.286 139.016 215.142 139.079C216.649 139.192 215.531 139.723 216.436 140.529C218.162 142.078 219.535 140.961 218.551 143.302C217.894 144.872 215.984 146.485 214.512 147.334C212.758 148.338 210.884 150.071 208.91 150.566C205.975 151.295 206.131 149.916 205.161 147.786C204.581 146.506 203.301 145.728 202.735 144.639C202.191 143.599 202.332 142.51 201.915 141.449C201.618 140.706 199.574 136.717 199.085 136.448C198.795 136.589 198.569 136.795 198.406 137.077C197.798 136.674 196.794 134.878 197.176 137.07C197.423 138.478 199.298 140.275 200.019 141.64C201.031 143.55 201.222 145.771 202.177 147.624C202.863 148.954 204.242 150.248 205.211 151.408C206.35 152.766 206.491 153.268 208.649 153.021C209.809 152.886 212.638 151.012 213.494 152.108C214.993 154.032 210.346 158.503 209.328 159.528C206.406 162.435 203.485 162.839 203.52 167.401C203.542 170.011 204.475 174.488 202.94 176.78C201.78 178.513 200.281 178.846 199.821 181.18C199.34 183.606 199.262 183.967 197.678 186.174C196.362 188.006 195.096 189.731 193.179 191.309C191.878 192.377 190.859 192.943 189.268 193.254C189.338 193.24 186.445 193.487 186.615 193.502C183.503 193.19 185.526 190.87 184.366 188.883C183.786 187.892 182.583 187.737 182.138 186.541C181.918 185.94 182.633 185.707 182.548 185.247C182.329 184.066 181.664 182.991 181.43 181.753C180.992 179.44 180.369 176.561 180.773 174.205C181.105 172.239 181.685 170.789 180.964 168.745C180.476 167.358 179.45 166.269 178.877 164.826C178.297 163.362 178.898 161.594 178.474 160.349C177.802 158.389 178.163 159.344 176.019 158.474C174.895 158.015 174.138 157.003 172.949 156.812C171.238 156.536 169.476 158.057 167.835 158.206C166.456 158.326 164.391 158.255 163.004 157.838C160.5 157.088 160.812 155.999 159.517 154.343C157.501 151.769 155.853 150.984 156.985 147.56C157.445 146.181 157.791 145.919 157.508 144.384C157.077 142.05 157.332 142.206 158.414 140.069C159.333 138.237 160.125 137.665 161.448 136.236C161.767 135.889 162.488 135.55 162.721 135.069C163.082 134.34 162.375 133.725 162.721 133.152C164.249 130.584 167.496 131.115 169.851 130.775C172.115 129.707 174.357 129.049 176.889 129.495C179.11 129.884 178.106 129.714 179.195 131.221C179.068 131.716 179.061 132.204 179.174 132.699C179.521 132.812 179.867 132.805 180.221 132.685C180.78 132.565 181.331 132.586 181.883 132.734C182.428 133.102 182.916 133.534 183.34 134.043C184.557 134.545 184.903 134.821 186.063 134.326C186.778 134.015 186.339 132.72 187.676 132.43C188.9 132.169 189.466 133.293 190.406 133.739C191.666 134.333 196.376 134.807 197.685 133.902C199.022 132.975 198.845 130.188 197.819 129.417C198.371 129.834 194.672 128.929 194.94 128.929C193.37 128.95 193.533 130.619 191.963 129.212C189.94 127.394 193.42 124.968 194.75 125.633C195.025 125.767 195.563 125.392 196.412 125.279C197.169 124.862 197.961 124.812 198.781 125.123C199.071 125.534 199.446 125.817 199.906 125.958C203.117 125.944 202.042 124.324 200.401 122.938C199.708 122.351 198.477 122.464 198.576 121.233C198.633 120.498 200.543 121.502 200.203 120.165C199.92 119.055 198.746 120.208 198.456 120.377C197.027 121.205 197.543 120.922 197.543 122.11C197.543 124.473 194.17 120.653 194.898 120.597C193.342 120.717 192.882 122.421 192.599 123.723C192.493 124.232 193.116 125.046 192.875 125.491C192.076 126.991 192.111 125.696 190.958 125.859C190.47 125.93 189.048 125.442 188.341 126.128C188.426 126.043 190.725 130.818 187.627 129.799C186.686 129.488 187.506 128.696 187.393 128.512C187.994 128.406 188.207 128.066 188.03 127.507C187.704 127.373 187.379 127.366 187.054 127.493C186.707 127.635 186.361 127.606 186.021 127.415C185.802 126.8 185.703 126.163 185.724 125.505C184.953 124.275 185.745 125.046 184.861 124.084C184.592 123.787 180.907 121.728 180.716 122.11C179.344 124.848 185.193 124.855 185.193 125.951C185.01 126.291 184.734 126.439 184.373 126.411C185.653 128.087 184.741 128.78 183.369 127.967C183.022 127.755 183.34 126.319 182.817 125.958C182.208 125.534 181.346 126.354 180.617 125.845C179.499 125.06 180.235 123.164 178.155 122.853C178.148 122.853 176.401 123.843 176.331 123.857C175.482 124.041 174.93 123.263 174.018 123.815C173.508 124.119 173.522 125.116 173.162 125.527C172.652 126.107 171.881 126.284 171.393 126.814C170.969 127.281 170.658 128.448 170.255 128.787C169.137 129.742 169.922 129.099 168.444 129.417C166.81 129.771 167.248 129.728 165.721 129.162C163.393 128.292 164.002 128.413 164.214 126.404C164.235 126.206 164.603 123.242 164.532 123.313C165.218 122.627 165.699 123.553 166.4 123.419C168.889 122.938 169.434 123.313 168.635 120.816C168.133 119.238 166.831 119.868 168.861 118.538C169.95 117.824 171.655 117.746 172.858 117.01C174.138 116.225 175.227 115.157 176.684 114.634C178.453 114.004 179.16 114.471 180.886 114.393C181.897 114.351 184.896 114.075 185.625 113.361C186.184 112.809 185.547 111.783 186.205 111.345C186.728 110.998 187.945 111.981 188.398 111.529C188.702 111.224 187.485 110.149 187.577 109.796C187.634 109.569 195.683 109.06 190.916 108.282C189.643 108.077 186.537 109.583 185.979 107.44C185.816 106.811 187.726 104.653 187.209 104.307C186.431 103.79 183.949 106.669 183.871 107.306C183.75 108.353 184.868 108.975 184.663 110.022C184.578 110.432 181.848 112.703 181.607 112.681C180.27 112.561 180.645 110.857 179.761 110.333C178.686 109.704 177.455 110.779 176.338 109.873C175.496 109.194 175.128 107.765 175.786 106.895C176.458 106.011 178.056 106.372 178.898 105.849C180.065 105.12 180.27 103.826 181.225 102.949C183.758 100.628 187.323 100.777 190.449 101.109C191.651 101.237 196.27 101.173 196.978 102.354C198.223 104.434 193.37 102.786 192.79 103.465C191.368 105.113 195.634 105.672 195.768 105.983C194.573 103.168 197.734 105.976 199.078 104.505C199.694 103.826 198.329 102.651 199.849 102.199C199.51 102.298 204.001 102.651 203.506 102.517C203.485 102.475 217.398 115.857 221.833 138.181Z" fill="white"/>
<path d="M211.818 173.364C210.813 173.519 209.766 174.764 209.441 175.415C209.116 176.066 207.496 175.847 206.958 176.816C206.421 177.785 207.284 179.079 206.958 180.267C206.633 181.456 205.013 182.099 205.232 183.075C205.452 184.045 207.177 184.476 207.821 184.908C208.472 185.339 208.79 184.688 209.222 182.962C209.653 181.236 209.002 180.19 210.304 179.15C211.598 178.103 212.68 176.809 212.893 175.946C213.112 175.09 212.737 173.215 211.818 173.364Z" fill="white"/>
</svg>
