<svg width="300" height="300" viewBox="0 0 300 300" fill="none" xmlns="http://www.w3.org/2000/svg">
<circle cx="150.341" cy="150.34" r="149.5" fill="#043480"/>
<path d="M102.51 258.294C104.106 259.05 105.389 260.082 106.358 261.389C107.319 262.711 107.892 264.171 108.074 265.77C108.242 267.361 107.983 268.925 107.299 270.463C106.615 272.001 105.633 273.223 104.355 274.129C103.061 275.029 101.618 275.525 100.026 275.619C98.4277 275.728 96.8301 275.405 95.2335 274.648C93.6519 273.899 92.3802 272.864 91.4184 271.541C90.4497 270.234 89.8817 268.785 89.7142 267.194C89.54 265.618 89.7984 264.054 90.4895 262.501C91.1805 260.947 92.1653 259.718 93.4438 258.812C94.7156 257.921 96.1508 257.42 97.7495 257.311C99.3414 257.217 100.928 257.545 102.51 258.294ZM101.605 260.327C100.445 259.777 99.2876 259.552 98.1317 259.649C96.9607 259.74 95.905 260.125 94.9646 260.804C94.0023 261.491 93.2637 262.414 92.7488 263.571C92.2339 264.728 92.0409 265.9 92.1699 267.085C92.277 268.279 92.679 269.364 93.3757 270.339C94.0574 271.307 94.9781 272.066 96.1379 272.616C97.2977 273.165 98.4706 273.398 99.6567 273.314C100.828 273.224 101.894 272.835 102.857 272.148C103.797 271.468 104.525 270.55 105.04 269.393C105.554 268.236 105.758 267.06 105.651 265.866C105.522 264.681 105.109 263.6 104.413 262.625C103.701 261.642 102.765 260.876 101.605 260.327ZM96.6639 277.151C96.9802 277.301 97.2039 277.536 97.335 277.856C97.4593 278.192 97.4469 278.527 97.2979 278.862C97.1489 279.197 96.9105 279.425 96.583 279.547C96.2554 279.668 95.9335 279.654 95.6172 279.504C95.3009 279.354 95.0806 279.111 94.9563 278.776C94.832 278.441 94.8443 278.105 94.9934 277.77C95.1424 277.435 95.3807 277.207 95.7083 277.086C96.0291 276.98 96.3476 277.001 96.6639 277.151ZM92.4616 275.161C92.7779 275.31 93.0016 275.545 93.1327 275.866C93.257 276.201 93.2446 276.536 93.0955 276.871C92.9465 277.206 92.7082 277.435 92.3806 277.556C92.0531 277.677 91.7311 277.663 91.4148 277.513C91.0985 277.363 90.8782 277.121 90.7539 276.785C90.6296 276.45 90.642 276.115 90.791 275.78C90.9401 275.445 91.1784 275.216 91.5059 275.095C91.8267 274.989 92.1453 275.011 92.4616 275.161Z" fill="white"/>
<path d="M76.7623 258.301C75.4055 257.305 74.61 256.111 74.3758 254.72C74.1187 253.332 74.5248 251.863 75.5941 250.313L79.9235 244.036L81.8579 245.456L77.6846 251.507C76.956 252.563 76.6556 253.541 76.7836 254.442C76.9116 255.342 77.439 256.132 78.3659 256.813C79.4137 257.582 80.4575 257.873 81.4973 257.686C82.5276 257.513 83.445 256.843 84.2494 255.677L88.1245 250.059L90.0589 251.479L82.5357 262.386L80.6819 261.025L81.8175 259.379C81.0399 259.655 80.218 259.702 79.3515 259.521C78.4717 259.329 77.6086 258.923 76.7623 258.301Z" fill="white"/>
<path d="M56.7268 239.534L66.0046 230.074L67.5781 231.717L66.1777 233.145C66.9904 233.006 67.8077 233.089 68.6294 233.393C69.428 233.697 70.15 234.186 70.7955 234.86C72.0174 236.136 72.6415 237.486 72.6678 238.911C72.6825 240.347 72.0246 241.744 70.6942 243.1L65.3551 248.544L63.6952 246.81L68.8417 241.563C69.7403 240.647 70.2097 239.728 70.25 238.807C70.2787 237.897 69.8953 237.027 69.0999 236.197C68.2238 235.282 67.2637 234.833 66.2197 234.851C65.1757 234.869 64.1635 235.377 63.1832 236.377L58.3868 241.267L56.7268 239.534ZM60.9949 247.387C61.237 247.64 61.3628 247.94 61.3723 248.287C61.3702 248.646 61.2408 248.956 60.984 249.218C60.7273 249.48 60.4249 249.61 60.077 249.607C59.729 249.605 59.434 249.478 59.1919 249.225C58.9498 248.972 58.8299 248.667 58.832 248.307C58.8341 247.948 58.9636 247.638 59.2203 247.376C59.4771 247.114 59.7794 246.985 60.1274 246.987C60.4637 247.001 60.7529 247.134 60.9949 247.387ZM57.7788 244.028C58.0209 244.281 58.1467 244.581 58.1562 244.928C58.154 245.287 58.0246 245.598 57.7679 245.86C57.5111 246.121 57.2088 246.251 56.8608 246.249C56.5128 246.247 56.2178 246.12 55.9757 245.867C55.7337 245.614 55.6137 245.308 55.6158 244.949C55.618 244.59 55.7474 244.28 56.0042 244.018C56.2609 243.756 56.5633 243.626 56.9112 243.628C57.2475 243.642 57.5367 243.776 57.7788 244.028Z" fill="white"/>
<path d="M41.905 218.296C41.0226 216.882 40.7282 215.498 41.0216 214.143C41.3062 212.774 42.2398 211.563 43.8223 210.512L50.1734 206.292L51.4439 208.329L45.3219 212.396C44.253 213.106 43.6067 213.896 43.3829 214.764C43.1503 215.619 43.3252 216.513 43.9075 217.446C44.5516 218.478 45.3826 219.086 46.4006 219.27C47.4047 219.463 48.4967 219.167 49.6767 218.383L55.3614 214.606L56.632 216.643L50.51 220.71C49.4411 221.42 48.7947 222.21 48.5709 223.078C48.3384 223.933 48.5132 224.827 49.0956 225.76C49.7397 226.792 50.5707 227.4 51.5887 227.584C52.5928 227.777 53.6848 227.481 54.8648 226.697L60.5495 222.921L61.82 224.957L50.7838 232.289L49.5662 230.338L51.2112 229.245C50.3862 229.213 49.6205 228.962 48.9143 228.491C48.1942 228.029 47.5695 227.374 47.0401 226.526C46.493 225.649 46.1813 224.756 46.1048 223.847C46.0284 222.937 46.2086 222.078 46.6455 221.267C45.7423 221.267 44.8763 221.013 44.0478 220.503C43.2104 219.979 42.4961 219.244 41.905 218.296Z" fill="white"/>
<path d="M28.1451 119.993L26.5749 125.784L24.4853 125.181L28.2732 111.21L30.3628 111.814L28.7927 117.604L43.5165 121.855L42.8688 124.244L28.1451 119.993Z" fill="white"/>
<path d="M40.0431 94.1771L51.9961 99.8946L51.0638 101.97L49.2595 101.107C49.6779 101.843 49.8961 102.658 49.914 103.553C49.9238 104.426 49.7374 105.288 49.3549 106.139C48.6309 107.751 47.6246 108.812 46.3359 109.322C45.0322 109.825 43.5234 109.667 41.8094 108.847L34.9308 105.556L35.9143 103.367L42.5448 106.539C43.7025 107.093 44.7084 107.232 45.5626 106.957C46.4016 106.675 47.0568 106.01 47.5281 104.961C48.0472 103.805 48.1112 102.728 47.7201 101.728C47.329 100.728 46.502 99.9263 45.239 99.3222L39.0596 96.3663L40.0431 94.1771ZM34.4193 100.962C34.2759 101.281 34.0477 101.505 33.7348 101.632C33.4068 101.752 33.0774 101.733 32.7466 101.575C32.4159 101.417 32.1889 101.17 32.0659 100.834C31.9428 100.498 31.953 100.17 32.0964 99.851C32.2398 99.5317 32.4755 99.312 32.8035 99.1919C33.1315 99.0717 33.4609 99.0907 33.7916 99.249C34.1224 99.4072 34.3493 99.6542 34.4724 99.9902C34.5805 100.319 34.5628 100.643 34.4193 100.962ZM36.3249 96.7205C36.1815 97.0398 35.9533 97.2631 35.6404 97.3905C35.3124 97.5106 34.983 97.4916 34.6522 97.3334C34.3215 97.1752 34.0945 96.9281 33.9715 96.5922C33.8484 96.2563 33.8586 95.9287 34.002 95.6094C34.1454 95.2901 34.3811 95.0704 34.7091 94.9503C35.0371 94.8301 35.3665 94.8491 35.6973 95.0074C36.028 95.1656 36.2549 95.4126 36.378 95.7486C36.4861 96.0773 36.4684 96.4013 36.3249 96.7205Z" fill="white"/>
<path d="M47.6074 85.6713C47.1956 84.8902 47.0429 84.0429 47.1493 83.1294C47.2557 82.216 47.6216 81.2668 48.247 80.2819L50.1731 81.5841C50.0878 81.6873 49.9826 81.8374 49.8576 82.0344C49.1607 83.1319 48.9357 84.2165 49.1827 85.2884C49.4247 86.3368 50.1395 87.2625 51.3269 88.0652L56.7946 91.7617L55.5081 93.7878L44.5313 86.3668L45.7641 84.4252L47.6074 85.6713Z" fill="white"/>
<path d="M61.9985 74.1762L62.1001 77.9829L64.7828 80.421L63.2246 82.2464L49.497 69.7702L51.0552 67.9448L59.8616 75.9484L59.6681 66.0142L61.5509 63.8085L61.9831 71.7311L71.7134 72.3018L69.7981 74.5455L61.9985 74.1762Z" fill="white"/>
<path d="M80.3466 47.5852C81.663 46.563 82.9877 46.1459 84.3209 46.334C85.6671 46.5119 86.9001 47.3684 88.0197 48.9034L92.513 55.0639L90.6174 56.5359L86.2862 50.5976C85.53 49.5608 84.7234 48.9638 83.8665 48.8066C83.0227 48.6393 82.1664 48.8929 81.2977 49.5676C80.3367 50.3138 79.7991 51.2164 79.6849 52.2754C79.5608 53.3209 79.9161 54.416 80.751 55.5605L84.7728 61.0747L82.8772 62.5467L78.546 56.6084C77.7898 55.5716 76.9832 54.9746 76.1263 54.8174C75.2825 54.65 74.4263 54.9037 73.5575 55.5784C72.5965 56.3246 72.0589 57.2272 71.9447 58.2862C71.8206 59.3317 72.176 60.4267 73.0108 61.5713L77.0326 67.0854L75.137 68.5575L67.3291 57.8524L69.1457 56.4417L70.3095 58.0374C70.2886 57.1888 70.4843 56.3829 70.8968 55.6197C71.2994 54.843 71.8956 54.148 72.6854 53.5347C73.5016 52.9009 74.3483 52.507 75.2257 52.3529C76.1031 52.1989 76.9486 52.3121 77.7623 52.6927C77.7054 51.7666 77.8982 50.8576 78.3405 49.9657C78.7959 49.0636 79.4647 48.2701 80.3466 47.5852Z" fill="white"/>
<path d="M105.913 41.2238C105.99 41.3904 106.075 41.6174 106.17 41.9048L96.5087 46.618C97.1295 47.6129 97.9786 48.2461 99.0561 48.5177C100.142 48.7667 101.268 48.6063 102.437 48.0363C103.86 47.3421 104.784 46.2983 105.208 44.9047L107.045 45.7329C106.797 46.6324 106.345 47.4461 105.689 48.174C105.048 48.8946 104.233 49.4961 103.244 49.9784C101.986 50.5922 100.752 50.879 99.5422 50.8388C98.3256 50.7835 97.2324 50.4176 96.2628 49.7413C95.3081 49.0576 94.56 48.1248 94.0185 46.943C93.4839 45.7763 93.2561 44.599 93.3349 43.4111C93.4288 42.2159 93.8071 41.1416 94.4698 40.1879C95.1406 39.2119 96.0452 38.4462 97.1836 37.8908C98.322 37.3355 99.4546 37.1074 100.581 37.2066C101.716 37.2833 102.746 37.6708 103.671 38.3691C104.61 39.06 105.358 40.0116 105.913 41.2238ZM98.0271 39.7318C96.9935 40.236 96.2705 40.978 95.858 41.9578C95.4606 42.9303 95.438 43.961 95.7902 45.0498L103.43 41.323C102.845 40.3663 102.054 39.7415 101.059 39.4486C100.071 39.1332 99.0607 39.2276 98.0271 39.7318Z" fill="white"/>
<path d="M117.656 30.1397C119.273 29.673 120.683 29.778 121.885 30.4545C123.099 31.1103 123.952 32.3471 124.444 34.1648L126.439 41.5244L124.133 42.1897L122.21 35.0956C121.875 33.8569 121.326 33.0094 120.563 32.553C119.801 32.0965 118.867 32.0277 117.762 32.3465C116.513 32.7069 115.628 33.361 115.108 34.3089C114.584 35.2407 114.507 36.3903 114.877 37.7577L116.662 44.3451L114.357 45.0104L110.891 32.2217L113.101 31.5841L113.624 33.5144C113.91 32.7209 114.397 32.034 115.085 31.4537C115.79 30.8688 116.647 30.4308 117.656 30.1397Z" fill="white"/>
<path d="M131.966 27.2033L134.341 26.8623L136.112 39.9934L133.736 40.3345L131.966 27.2033ZM132.813 24.5057C132.351 24.572 131.943 24.479 131.589 24.2267C131.252 23.972 131.055 23.6299 130.997 23.2005C130.939 22.7711 131.039 22.3864 131.295 22.0464C131.567 21.6876 131.933 21.475 132.395 21.4087C132.857 21.3424 133.256 21.4366 133.593 21.6912C133.945 21.927 134.149 22.2596 134.207 22.6891C134.267 23.1351 134.162 23.5374 133.891 23.8963C133.634 24.2362 133.275 24.4393 132.813 24.5057Z" fill="white"/>
<path d="M147.671 39.2749C146.588 39.3007 145.543 39.1838 144.537 38.9243C143.531 38.6482 142.739 38.2919 142.163 37.8555L143.12 35.9322C143.712 36.3349 144.428 36.6513 145.267 36.8814C146.105 37.1116 146.949 37.2165 147.799 37.1963C149.899 37.1464 150.935 36.5216 150.908 35.3219C150.899 34.922 150.751 34.6088 150.462 34.3822C150.174 34.1557 149.812 33.9976 149.376 33.9079C148.957 33.8012 148.354 33.6905 147.568 33.5758C146.498 33.4345 145.619 33.2637 144.931 33.0633C144.26 32.8626 143.677 32.5097 143.182 32.0046C142.687 31.4996 142.43 30.7805 142.409 29.8474C142.382 28.6477 142.86 27.6777 143.844 26.9374C144.828 26.1805 146.161 25.782 147.843 25.742C148.727 25.721 149.612 25.8083 150.5 26.004C151.388 26.1996 152.119 26.4739 152.694 26.827L151.712 28.7509C150.613 28.0768 149.331 27.7572 147.864 27.7921C146.848 27.8163 146.077 28.0013 145.551 28.3473C145.025 28.6932 144.769 29.1411 144.781 29.6909C144.791 30.1242 144.948 30.4622 145.254 30.705C145.559 30.9478 145.93 31.1224 146.366 31.2287C146.818 31.3346 147.446 31.4531 148.249 31.584C149.32 31.742 150.182 31.9215 150.837 32.1227C151.508 32.3068 152.082 32.6432 152.56 33.132C153.037 33.6208 153.286 34.3151 153.306 35.2148C153.333 36.4145 152.838 37.3849 151.821 38.126C150.82 38.85 149.437 39.233 147.671 39.2749Z" fill="white"/>
<path d="M166.817 39.5368C166.438 39.7964 165.983 39.9805 165.452 40.0891C164.923 40.1811 164.385 40.1966 163.839 40.1358C162.513 39.9882 161.524 39.5174 160.869 38.7234C160.215 37.9295 159.957 36.8695 160.096 35.5434L160.853 28.3078L158.617 28.0588L158.822 26.0945L161.059 26.3436L161.36 23.4593L163.745 23.725L163.444 26.6092L167.22 27.0299L167.015 28.9942L163.238 28.5735L162.492 35.7096C162.417 36.4224 162.534 36.9887 162.842 37.4087C163.166 37.8306 163.66 38.0784 164.323 38.1522C165.051 38.2334 165.694 38.0954 166.251 37.7381L166.817 39.5368Z" fill="white"/>
<path d="M180.67 29.7079C182.445 30.1673 183.694 30.9554 184.417 32.0721C185.156 33.193 185.315 34.6199 184.894 36.3528L183.004 44.1264L180.802 43.5563L181.215 41.8559C180.682 42.3548 180.013 42.6723 179.209 42.8083C178.424 42.9322 177.539 42.8668 176.555 42.6121C175.119 42.2404 174.05 41.5936 173.348 40.6717C172.662 39.7539 172.457 38.7283 172.733 37.5946C173.008 36.461 173.64 35.6605 174.628 35.1933C175.621 34.7099 177.012 34.7 178.803 35.1636L182.482 36.1158L182.594 35.6542C182.838 34.6502 182.735 33.8057 182.284 33.1209C181.833 32.4362 181.043 31.9476 179.913 31.6553C179.155 31.459 178.381 31.3964 177.592 31.4676C176.807 31.5226 176.113 31.6959 175.511 31.9875L174.968 29.9879C175.759 29.6247 176.648 29.4244 177.635 29.3872C178.626 29.3337 179.637 29.4406 180.67 29.7079ZM177.379 40.9147C178.267 41.1444 179.08 41.1484 179.82 40.9268C180.564 40.6889 181.17 40.2432 181.637 39.5896L182.074 37.792L178.493 36.8648C176.524 36.3553 175.378 36.7646 175.056 38.0926C174.898 38.7404 175.024 39.3152 175.434 39.8172C175.843 40.3191 176.492 40.685 177.379 40.9147Z" fill="white"/>
<path d="M200.898 37.002C202.433 37.6922 203.458 38.6919 203.972 40.001C204.508 41.3016 204.41 42.8194 203.677 44.5544L200.711 51.5788L198.522 50.5947L201.381 43.8236C201.881 42.6413 201.976 41.6244 201.666 40.7727C201.356 39.921 200.677 39.2594 199.628 38.7879C198.443 38.2548 197.359 38.1876 196.376 38.5864C195.4 38.9698 194.637 39.814 194.086 41.1191L191.431 47.4065L189.242 46.4224L194.396 34.216L196.494 35.1592L195.716 37.0016C196.423 36.5703 197.22 36.3532 198.107 36.3503C199.01 36.3542 199.94 36.5714 200.898 37.002Z" fill="white"/>
<path d="M227.303 46.8047L217.244 62.39L215.348 61.0873L216.487 59.3229C215.65 59.637 214.791 59.7238 213.91 59.5833C213.029 59.4429 212.183 59.0941 211.373 58.5372C210.315 57.8103 209.521 56.921 208.99 55.869C208.46 54.8171 208.23 53.6989 208.3 52.5143C208.394 51.3252 208.802 50.1705 209.525 49.0502C210.248 47.93 211.119 47.1033 212.137 46.57C213.169 46.0462 214.258 45.8342 215.403 45.9339C216.548 46.0336 217.65 46.4469 218.707 47.1738C219.49 47.7118 220.112 48.3615 220.572 49.1226C221.042 49.8698 221.307 50.6885 221.367 51.5787L225.325 45.4454L227.303 46.8047ZM212.676 56.8861C213.363 57.3581 214.092 57.6266 214.863 57.6915C215.643 57.7425 216.381 57.5824 217.077 57.2114C217.781 56.8264 218.382 56.2488 218.879 55.4787C219.376 54.7085 219.657 53.9208 219.72 53.1156C219.793 52.2963 219.652 51.5321 219.296 50.823C218.941 50.114 218.42 49.5234 217.733 49.0514C217.033 48.57 216.297 48.2968 215.526 48.2319C214.769 48.1763 214.031 48.3364 213.313 48.7119C212.617 49.083 212.021 49.6535 211.524 50.4237C211.026 51.1939 210.742 51.9886 210.669 52.8078C210.619 53.6225 210.76 54.3867 211.093 55.1003C211.448 55.8094 211.976 56.4047 212.676 56.8861Z" fill="white"/>
<path d="M235.29 60.7955C236.609 62.0695 237.313 63.3757 237.403 64.7138C237.505 66.0636 236.957 67.3987 235.758 68.7192L230.381 74.6427L228.746 73.0617L229.922 71.766C229.22 71.9446 228.487 71.8967 227.724 71.6223C226.983 71.3472 226.248 70.8563 225.517 70.1498C224.45 69.119 223.834 68.0255 223.669 66.8694C223.515 65.7249 223.83 64.7207 224.615 63.8568C225.399 62.993 226.332 62.5972 227.413 62.6696C228.506 62.7297 229.718 63.4025 231.048 64.6882L233.781 67.329L234.1 66.9773C234.794 66.2121 235.111 65.4175 235.049 64.5933C234.987 63.769 234.537 62.9516 233.698 62.1408C233.135 61.5964 232.494 61.1623 231.775 60.8386C231.068 60.5025 230.383 60.3153 229.72 60.2771L230.211 58.2494C231.072 58.317 231.939 58.5761 232.813 59.0265C233.697 59.4645 234.523 60.0542 235.29 60.7955ZM227.048 69.0579C227.707 69.695 228.411 70.0971 229.159 70.2642C229.918 70.4189 230.658 70.3229 231.378 69.9761L232.621 68.6062L229.961 66.0349C228.498 64.6219 227.308 64.4213 226.39 65.4333C225.942 65.9269 225.774 66.4952 225.888 67.1381C226.002 67.7809 226.389 68.4209 227.048 69.0579Z" fill="white"/>
<path d="M260.751 153.15C260.732 151.833 261.005 150.645 261.573 149.586C262.14 148.527 262.928 147.689 263.935 147.073C264.96 146.473 266.122 146.163 267.422 146.142C268.722 146.121 269.884 146.394 270.909 146.961C271.952 147.545 272.764 148.357 273.346 149.398C273.945 150.438 274.255 151.617 274.275 152.933C274.294 154.25 274.02 155.429 273.453 156.472C272.902 157.531 272.114 158.36 271.09 158.96C270.082 159.576 268.929 159.895 267.629 159.916C266.329 159.936 265.158 159.655 264.116 159.072C263.09 158.505 262.278 157.701 261.679 156.66C261.08 155.636 260.771 154.466 260.751 153.15ZM262.851 153.116C262.864 153.966 263.067 154.721 263.46 155.382C263.87 156.059 264.428 156.583 265.134 156.955C265.856 157.327 266.676 157.506 267.592 157.491C268.509 157.476 269.314 157.272 270.008 156.877C270.719 156.482 271.261 155.94 271.634 155.251C272.007 154.578 272.188 153.817 272.175 152.967C272.162 152.117 271.959 151.354 271.565 150.676C271.172 150.016 270.614 149.492 269.892 149.103C269.186 148.731 268.375 148.552 267.458 148.567C266.542 148.582 265.728 148.786 265.017 149.181C264.323 149.592 263.781 150.134 263.391 150.807C263.018 151.497 262.838 152.266 262.851 153.116ZM276.464 150.548C276.459 150.198 276.571 149.896 276.8 149.643C277.047 149.389 277.353 149.259 277.72 149.253C278.086 149.247 278.396 149.367 278.65 149.613C278.904 149.859 279.033 150.157 279.039 150.507C279.044 150.857 278.923 151.159 278.677 151.413C278.431 151.667 278.125 151.797 277.758 151.803C277.391 151.808 277.081 151.688 276.827 151.442C276.59 151.196 276.469 150.898 276.464 150.548ZM276.534 155.198C276.529 154.848 276.641 154.546 276.87 154.292C277.116 154.038 277.423 153.908 277.79 153.902C278.156 153.897 278.466 154.017 278.72 154.263C278.974 154.509 279.103 154.806 279.108 155.156C279.114 155.506 278.993 155.808 278.747 156.062C278.501 156.316 278.194 156.446 277.828 156.452C277.461 156.458 277.151 156.338 276.897 156.092C276.66 155.846 276.539 155.548 276.534 155.198Z" fill="white"/>
<path d="M272.669 175.004C272.419 176.668 271.736 177.909 270.619 178.727C269.517 179.563 268.035 179.833 266.175 179.536L258.646 178.335L259.002 175.961L266.26 177.12C267.527 177.322 268.527 177.169 269.261 176.662C269.994 176.155 270.446 175.332 270.616 174.195C270.809 172.909 270.582 171.835 269.937 170.973C269.307 170.113 268.293 169.571 266.894 169.348L260.154 168.272L260.51 165.899L273.594 167.987L273.253 170.262L271.278 169.946C271.882 170.532 272.304 171.258 272.545 172.123C272.783 173.005 272.825 173.965 272.669 175.004Z" fill="white"/>
<path d="M270.428 203.836L252.939 197.652L253.664 195.47L255.644 196.17C255.12 195.419 254.807 194.592 254.703 193.689C254.599 192.787 254.702 191.869 255.011 190.935C255.416 189.717 256.045 188.721 256.9 187.945C257.755 187.169 258.753 186.673 259.896 186.459C261.049 186.265 262.253 186.391 263.511 186.835C264.768 187.28 265.786 187.94 266.566 188.817C267.341 189.71 267.835 190.733 268.049 191.886C268.263 193.04 268.167 194.226 267.763 195.444C267.463 196.346 267.015 197.115 266.417 197.752C265.835 198.394 265.13 198.852 264.302 199.125L271.184 201.558L270.428 203.836ZM256.928 191.825C256.666 192.616 256.607 193.4 256.753 194.176C256.915 194.958 257.266 195.647 257.805 196.244C258.36 196.847 259.069 197.301 259.933 197.607C260.798 197.912 261.62 198 262.401 197.87C263.197 197.745 263.884 197.422 264.461 196.901C265.038 196.38 265.457 195.725 265.72 194.934C265.988 194.127 266.049 193.336 265.903 192.559C265.751 191.799 265.401 191.109 264.851 190.491C264.312 189.894 263.611 189.442 262.746 189.137C261.882 188.831 261.052 188.741 260.255 188.866C259.469 189.012 258.783 189.335 258.195 189.834C257.619 190.355 257.196 191.019 256.928 191.825Z" fill="white"/>
<path d="M255.623 222.189L244.1 215.648L245.171 213.64L246.91 214.627C246.543 213.864 246.381 213.034 246.424 212.139C246.474 211.267 246.718 210.419 247.157 209.595C247.988 208.036 249.063 207.047 250.382 206.627C251.716 206.215 253.209 206.478 254.861 207.416L261.492 211.18L260.363 213.298L253.971 209.67C252.855 209.036 251.862 208.827 250.992 209.042C250.137 209.265 249.439 209.884 248.898 210.899C248.302 212.017 248.165 213.089 248.486 214.114C248.808 215.14 249.578 215.998 250.795 216.689L256.752 220.071L255.623 222.189ZM261.689 215.804C261.854 215.495 262.097 215.288 262.417 215.182C262.752 215.085 263.079 215.127 263.398 215.308C263.717 215.489 263.926 215.752 264.026 216.096C264.126 216.44 264.093 216.766 263.929 217.075C263.764 217.384 263.514 217.587 263.179 217.684C262.844 217.781 262.517 217.739 262.198 217.558C261.879 217.377 261.67 217.115 261.57 216.771C261.485 216.435 261.525 216.113 261.689 215.804ZM259.502 219.907C259.666 219.598 259.909 219.391 260.23 219.286C260.565 219.189 260.892 219.23 261.21 219.411C261.529 219.592 261.739 219.855 261.838 220.199C261.938 220.543 261.906 220.869 261.741 221.178C261.576 221.487 261.327 221.69 260.992 221.787C260.657 221.885 260.33 221.843 260.011 221.662C259.692 221.481 259.483 221.218 259.383 220.874C259.297 220.538 259.337 220.216 259.502 219.907Z" fill="white"/>
<path d="M247.52 230.129C247.877 230.938 247.972 231.794 247.803 232.699C247.634 233.603 247.204 234.525 246.514 235.466L244.683 234.033C244.775 233.935 244.89 233.793 245.028 233.605C245.798 232.557 246.096 231.49 245.924 230.403C245.754 229.34 245.105 228.366 243.976 227.483L238.779 223.415L240.2 221.482L250.635 229.647L249.273 231.501L247.52 230.129Z" fill="white"/>
<path d="M232.211 250.847L223.08 241.246L224.679 239.627L226.057 241.077C225.926 240.238 226.009 239.395 226.307 238.548C226.605 237.724 227.081 236.981 227.737 236.317C228.978 235.06 230.289 234.42 231.67 234.397C233.062 234.386 234.413 235.069 235.722 236.446L240.977 241.971L239.291 243.678L234.225 238.353C233.341 237.423 232.452 236.936 231.56 236.891C230.678 236.859 229.834 237.252 229.026 238.07C228.136 238.972 227.697 239.961 227.71 241.038C227.723 242.116 228.212 243.161 229.177 244.176L233.898 249.139L232.211 250.847ZM239.839 246.466C240.085 246.217 240.376 246.088 240.712 246.08C241.06 246.083 241.361 246.217 241.613 246.483C241.866 246.749 241.991 247.061 241.987 247.42C241.984 247.779 241.859 248.083 241.613 248.332C241.367 248.581 241.07 248.704 240.722 248.701C240.374 248.698 240.074 248.563 239.821 248.297C239.569 248.032 239.444 247.719 239.447 247.36C239.462 247.013 239.593 246.715 239.839 246.466ZM236.571 249.775C236.817 249.526 237.108 249.397 237.445 249.388C237.793 249.391 238.093 249.526 238.346 249.792C238.599 250.057 238.723 250.37 238.72 250.729C238.716 251.088 238.592 251.392 238.346 251.641C238.1 251.89 237.803 252.013 237.455 252.009C237.107 252.006 236.807 251.872 236.554 251.606C236.301 251.34 236.177 251.028 236.18 250.669C236.195 250.322 236.325 250.024 236.571 249.775Z" fill="white"/>
<path d="M228.625 260.618L226.729 262.091L215.794 247.107L217.689 245.634L228.625 260.618Z" fill="white"/>
<path d="M207.576 274.343L198.719 258.044L200.71 256.892L201.713 258.737C201.824 257.826 202.142 256.997 202.666 256.251C203.19 255.506 203.877 254.886 204.728 254.394C205.839 253.751 206.97 253.424 208.121 253.413C209.271 253.402 210.342 253.697 211.332 254.298C212.316 254.922 213.126 255.82 213.763 256.992C214.399 258.163 214.715 259.337 214.71 260.515C214.69 261.7 214.376 262.796 213.766 263.803C213.157 264.81 212.297 265.635 211.186 266.278C210.364 266.754 209.519 267.031 208.651 267.109C207.792 267.202 206.964 267.075 206.168 266.727L209.654 273.141L207.576 274.343ZM205.558 256.339C204.837 256.757 204.272 257.305 203.863 257.984C203.463 258.678 203.264 259.428 203.266 260.235C203.277 261.057 203.501 261.87 203.938 262.676C204.376 263.481 204.928 264.095 205.594 264.518C206.268 264.956 206.992 265.172 207.767 265.167C208.541 265.161 209.289 264.95 210.01 264.533C210.746 264.107 211.318 263.555 211.727 262.876C212.121 262.205 212.32 261.455 212.324 260.625C212.321 259.818 212.101 259.011 211.664 258.206C211.226 257.401 210.67 256.779 209.996 256.341C209.316 255.927 208.591 255.71 207.823 255.693C207.049 255.698 206.294 255.914 205.558 256.339Z" fill="white"/>
<path d="M196.545 273.451L194.323 274.357L189.581 261.985L191.803 261.078L196.545 273.451ZM196.346 276.285C196.778 276.109 197.195 276.101 197.595 276.261C197.98 276.428 198.251 276.714 198.406 277.118C198.561 277.523 198.553 277.922 198.383 278.316C198.203 278.731 197.897 279.027 197.465 279.203C197.033 279.379 196.624 279.384 196.239 279.217C195.844 279.072 195.57 278.798 195.414 278.393C195.253 277.973 195.263 277.555 195.443 277.14C195.613 276.746 195.914 276.461 196.346 276.285Z" fill="white"/>
<path d="M172.915 121.84C173.112 121.995 173.427 122.15 173.506 122.188C174.922 122.963 175.316 124.24 175.395 125.75C175.473 127.376 175.906 128.925 176.969 130.242C177.441 130.861 177.992 131.403 178.818 131.597C179.251 131.713 179.448 132.023 179.605 132.41C180.156 133.765 180.51 135.159 180.51 136.591C180.51 137.443 180.786 138.062 181.415 138.604C182.793 139.843 184.327 140.85 185.862 141.857C188.184 143.328 190.584 144.722 192.827 146.309C193.181 146.541 193.457 146.851 193.693 147.2C195.031 149.329 197.195 150.336 199.399 151.304C199.91 151.536 200.422 151.265 200.894 151.071C201.524 150.762 201.839 150.878 202.153 151.536C202.744 152.814 203.924 153.51 205.144 154.091C206.6 154.749 208.135 155.33 209.512 156.104C210.732 156.801 211.834 157.653 212.818 158.621C213.408 159.202 214.037 159.744 214.746 160.17C215.572 160.634 216.438 160.712 217.186 160.092C218.169 159.279 219.271 159.473 220.373 159.628C220.609 159.666 220.806 159.783 220.924 159.937C221.278 160.363 221.711 160.518 222.262 160.518C222.695 160.518 223.01 160.751 223.206 161.099C223.6 161.796 224.229 162.067 225.016 162.028C225.803 161.989 226.512 162.106 227.22 162.415C227.85 162.686 227.928 163.035 227.771 163.577C227.653 163.925 227.456 164.196 227.181 164.429C226.236 165.319 225.803 168.145 226.591 169.113C227.259 169.965 227.063 170.701 226.709 171.514C226.551 171.862 226.276 172.133 225.882 172.172C224.977 172.249 224.072 172.366 223.167 171.978C221.947 171.475 220.845 170.817 219.586 170.391C219.035 170.197 218.524 170.043 217.933 170.081C217.225 170.12 217.028 170.275 217.028 170.972C217.028 171.398 217.068 171.785 217.028 172.211C216.989 173.256 216.32 173.914 215.257 173.914C213.447 173.953 211.676 174.069 209.984 174.65C209.315 174.882 208.764 175.231 208.292 175.695C207.859 176.082 207.663 176.547 207.781 177.128C208.017 178.367 207.781 179.528 206.954 180.496C206.285 181.309 206.089 182.2 206.246 183.284C206.443 184.445 206.364 185.607 206.049 186.73C205.852 187.504 205.538 188.085 204.554 188.123C203.531 188.162 203.255 188.511 203.058 189.479C202.98 189.866 202.783 190.021 202.35 189.943C202.232 189.904 202.153 189.866 202.035 189.866C201.13 189.595 200.737 189.827 200.501 190.717C200.383 191.105 200.619 191.647 200.304 191.879C199.95 192.15 199.596 191.608 199.202 191.531C198.691 191.453 198.297 191.608 198.061 192.073C197.864 192.46 197.589 192.576 197.156 192.576C196.251 192.537 195.346 192.498 194.873 193.505C194.873 193.544 194.795 193.583 194.755 193.583C193.535 193.544 192.591 194.783 191.292 194.279C191.174 194.241 190.978 194.279 190.86 194.318C190.269 194.434 190.151 194.705 190.505 195.17C190.702 195.402 190.938 195.596 191.174 195.789C191.607 196.138 191.647 196.525 191.174 196.719C189.876 197.222 189.797 198.229 189.915 199.313C189.955 199.893 189.797 200.164 189.168 200.203C188.38 200.242 187.712 200.668 187.318 201.287C186.177 202.991 184.603 203.262 182.753 202.797C182.045 202.604 181.297 202.487 180.589 202.333C179.605 202.139 178.818 201.713 178.267 200.823C177.874 200.164 177.283 200.087 176.418 200.435C175.473 200.823 174.529 200.861 173.545 200.823C172.955 200.784 172.483 200.59 172.128 200.126C171.892 199.816 171.656 199.584 171.42 199.274C170.79 198.538 170.043 198.112 169.059 198.074C168.626 198.074 168.508 197.88 168.547 197.454C168.666 196.525 168.862 195.596 168.587 194.628C168.469 194.163 168.193 193.854 167.682 193.699C166.973 193.505 166.855 193.118 167.406 192.615C167.879 192.15 168.154 191.608 168.193 190.989C168.233 190.446 168.154 189.943 167.721 189.556C167.21 189.091 167.17 188.511 167.288 187.891C167.485 186.885 167.328 185.839 167.485 184.794C167.564 184.29 167.21 184.252 166.816 184.252C164.179 184.252 161.582 184.252 158.946 184.252C158.356 184.252 158.041 184.097 157.844 183.516C157.096 181.503 155.719 179.915 153.988 178.56C153.2 177.941 152.295 177.592 151.312 177.36C149.934 177.05 148.99 176.16 147.967 175.347C147.691 175.115 147.613 174.805 147.573 174.456C147.534 174.185 147.534 173.953 147.534 173.682C147.455 172.559 147.455 172.521 146.314 172.366C145.566 172.249 144.976 171.862 144.465 171.359C143.756 170.623 142.969 170.236 141.907 170.507C140.962 170.74 139.978 170.662 139.152 170.081C138.798 169.849 138.444 169.888 138.208 170.197C137.854 170.662 137.381 170.701 136.87 170.662C136.279 170.623 135.729 170.43 135.138 170.275C134.784 170.197 134.666 169.888 134.627 169.617C134.469 168.842 133.997 168.416 133.249 168.145C131.361 167.41 129.354 167.023 127.347 166.713C126.678 166.597 126.088 166.403 125.576 165.977C125.261 165.706 125.104 165.435 125.34 165.048C125.655 164.545 125.576 164.08 125.104 163.732C124.789 163.499 124.671 163.151 124.592 162.803C124.395 162.028 124.081 161.873 123.412 162.338C122.625 162.88 121.838 162.841 120.972 162.57C119.555 162.106 118.06 161.757 116.565 161.796C116.132 161.796 115.738 161.873 115.384 162.067C114.951 162.299 114.754 162.57 114.794 163.112C114.912 163.964 114.558 164.351 113.692 164.274C112.197 164.119 110.701 163.964 109.206 164.041C109.127 164.041 109.048 164.041 108.93 164.003C105.467 162.919 102.752 164.235 100.312 166.519C99.9583 166.868 99.6041 167.255 99.1319 167.41C97.7153 167.874 97.2824 168.92 97.2431 170.236C97.2037 171.282 96.8496 171.785 95.7871 171.901C94.5278 172.056 93.308 172.288 92.2061 172.985C91.852 173.179 91.301 173.101 90.8682 173.101C89.8057 173.179 88.7826 173.217 87.7201 173.024C87.1692 172.908 86.815 172.637 86.815 172.017C86.7757 170.275 86.697 168.533 86.6182 166.79C86.5789 166.171 86.5395 165.551 86.5395 164.932C86.5002 163.848 86.5002 162.803 86.9724 161.718C87.5627 160.441 87.6414 159.008 87.3266 157.614C87.1692 156.879 87.2479 156.182 87.5233 155.485C87.9562 154.478 88.4678 153.549 88.94 152.581C89.5696 151.226 89.3728 150.491 87.9562 150.065C86.697 149.677 86.1067 148.942 85.7525 147.78C85.5951 147.2 85.241 146.696 84.9655 146.154C84.2572 144.915 82.9979 144.76 81.7387 144.683C81.3845 144.644 80.991 144.644 80.7943 144.257C80.5188 143.792 80.3221 143.289 80.6762 142.825C81.0697 142.283 81.5419 141.818 82.329 141.857C83.2734 141.895 84.1785 142.089 85.0442 142.437C85.3984 142.592 85.7919 142.708 86.1854 142.592C86.6576 142.476 86.7363 142.166 86.5002 141.818C86.2641 141.431 85.8706 141.16 85.4377 141.005C84.3359 140.579 83.903 139.688 84.2965 138.604C84.4146 138.295 84.572 137.985 84.69 137.675C84.9655 136.978 84.572 136.514 83.8637 136.669C83.234 136.785 82.6438 136.746 82.0929 136.436C81.8174 136.281 81.5419 136.165 81.2271 136.204C80.5582 136.243 80.0072 136.127 79.417 135.817C78.9054 135.546 78.7087 135.701 78.7874 136.281C78.8267 136.591 78.8267 136.862 78.5119 137.017C78.1184 137.172 78.079 136.785 77.9216 136.591C77.0559 135.546 76.9378 134.346 77.2527 133.068C77.4101 132.487 77.3314 131.829 77.3314 131.209C77.292 129.699 77.6855 128.344 78.748 127.222C78.9841 126.951 79.1022 126.68 79.0628 126.292C78.9841 125.363 79.1022 124.511 79.5744 123.698C79.7711 123.35 80.0466 123.079 80.5188 123.118C80.9517 123.156 81.1878 123.466 81.3452 123.853C81.5026 124.279 81.5813 124.744 81.5813 125.17C81.5813 125.479 81.6993 125.673 82.0142 125.673C82.447 125.673 82.8405 125.789 83.234 125.867C83.5489 125.944 83.8637 125.944 84.0604 125.673C84.3752 125.286 84.6507 125.402 84.9261 125.712C85.0442 125.867 85.1229 126.06 85.3197 126.138C85.9886 126.409 86.1854 126.292 86.3034 125.596C86.3821 125.208 86.3821 124.821 86.6182 124.473C86.7757 124.202 86.9724 124.124 87.2479 124.357C87.5233 124.589 87.7594 124.86 87.7988 125.208C87.8381 125.479 87.8775 125.75 87.8775 126.021C87.9168 127.88 87.9955 127.957 89.845 127.841C90.6714 127.802 91.4978 127.609 92.2061 127.144C92.6783 126.834 93.1899 126.641 93.6228 127.222C93.7408 127.376 93.9769 127.493 94.213 127.376C94.4491 127.26 94.2917 127.028 94.2524 126.834C94.095 126.06 93.8982 125.324 94.213 124.55C94.4491 123.969 94.7246 123.931 95.1575 124.395C95.4329 124.666 95.669 124.976 95.9051 125.286C96.3773 125.828 96.9283 125.789 97.5579 125.596C98.6204 125.247 98.8958 124.434 99.1319 123.505C99.1713 123.35 99.1713 123.195 99.0926 123.079C98.463 121.84 97.7546 120.717 96.5348 119.943C96.0625 119.633 95.5903 119.323 95.1181 119.014C93.7408 118.201 92.9144 116.884 92.0487 115.645C91.7733 115.258 91.6552 114.793 91.8126 114.368C92.1274 113.361 91.852 112.432 91.301 111.619C90.8682 110.922 90.7108 110.225 90.8682 109.412C90.9862 108.599 90.7501 108.289 90.0024 107.979C88.389 107.282 86.815 107.476 85.241 108.095C84.7294 108.289 84.2965 108.366 83.8637 107.979C83.5095 107.67 83.0766 107.708 82.7225 108.018C81.8961 108.87 80.9123 109.644 80.4795 110.806C80.322 111.231 80.1253 111.58 79.7711 111.851C79.535 112.045 79.3776 112.316 79.4957 112.587C79.6137 112.896 79.8892 112.587 80.0466 112.587C80.4401 112.587 80.8336 112.703 80.7156 113.167C80.4795 114.368 80.3221 115.645 79.417 116.613C78.9448 117.116 78.748 117.116 78.2758 116.613C77.8429 116.149 77.5281 115.49 76.7804 115.297C76.5837 115.258 76.5837 115.064 76.6624 114.91C76.7411 114.677 76.8198 114.406 76.8985 114.174C77.1346 113.283 77.0559 113.09 76.3082 112.548C75.6786 112.122 75.6786 111.348 76.3476 110.96C77.3707 110.38 78.2758 109.644 79.1022 108.792C80.3221 107.553 81.9355 106.973 83.5095 106.314C84.0211 106.121 84.572 105.889 85.0442 105.618C85.7132 105.23 86.4608 105.347 87.1298 105.23C88.5465 105.037 89.9237 104.843 91.3404 104.611C93.0325 104.301 94.5278 104.572 95.9051 105.695C97.8333 107.244 99.8796 108.676 101.572 110.535C101.926 110.922 102.162 111.348 102.083 111.851C102.005 112.316 102.201 112.664 102.555 113.012C103.461 113.942 104.169 114.948 104.484 116.226C104.641 116.962 105.074 117.542 105.822 117.891C106.294 118.123 106.451 118.588 106.687 119.014C106.923 119.478 107.238 119.711 107.789 119.749C108.97 119.827 110.111 119.904 111.252 119.362C111.921 119.014 112.747 119.323 113.495 119.401C115.305 119.633 117.115 119.904 118.926 120.136C119.791 120.253 120.618 120.214 121.483 120.253C121.798 120.253 122.152 120.291 122.467 120.33C122.782 120.369 123.176 120.678 123.451 120.33C123.726 119.943 124.041 119.323 123.726 118.936C122.979 117.93 123.057 116.729 122.743 115.645C122.428 114.639 122.31 113.516 122.349 112.393C122.349 112.006 122.546 111.735 122.939 111.696C122.979 111.696 123.018 111.696 123.057 111.657C124.513 111.386 124.592 111.425 124.868 112.858C125.025 113.671 125.222 114.484 125.851 115.142C126.166 115.452 126.009 115.916 126.127 116.303C126.324 117.078 126.717 117.233 127.229 116.691C128.212 115.645 129.393 114.987 130.888 114.91C131.361 114.871 131.754 113.864 131.479 113.283C131.321 112.858 131.006 112.548 130.574 112.432C129.983 112.277 129.826 111.89 129.905 111.348C129.905 111.231 129.905 111.077 129.944 110.96C129.983 110.457 129.826 110.186 129.275 110.186C129 110.186 128.685 110.186 128.527 109.915C128.37 109.605 128.685 109.412 128.803 109.179C129.157 108.521 129.668 108.25 130.455 108.289C131.597 108.328 132.659 107.166 132.699 105.966C132.699 105.734 132.659 105.54 132.659 105.308C132.659 104.611 132.935 104.03 133.564 103.682C134.076 103.411 134.627 103.643 135.099 103.914C135.571 104.224 136.004 104.379 136.555 104.34C136.712 104.34 136.909 104.34 136.988 104.108C137.027 103.914 136.948 103.759 136.791 103.682C136.516 103.488 136.24 103.333 135.965 103.178C135.532 102.946 135.217 102.598 135.02 102.133C134.902 101.746 135.02 101.552 135.414 101.514C135.807 101.475 136.201 101.397 136.555 101.243C136.712 101.165 136.909 101.165 137.067 101.281C137.381 101.514 137.775 101.514 138.129 101.591C139.231 101.746 139.27 101.707 139.624 100.7C139.782 100.236 139.939 100.236 140.215 100.584C140.844 101.32 141.474 102.017 142.182 102.636C143.048 103.449 144.032 103.991 145.291 103.72C145.645 103.643 145.921 103.759 146.117 104.069C146.393 104.495 146.708 104.882 146.826 105.385C147.062 106.314 147.77 106.624 148.636 106.702C149.226 106.779 149.816 106.663 150.367 106.469C151.508 106.121 152.571 106.276 153.515 107.011C153.791 107.244 154.145 107.399 154.499 107.553C155.089 107.824 155.286 108.212 154.893 108.792C154.46 109.373 154.46 109.954 154.617 110.612C154.814 111.386 155.011 111.541 155.562 112.083C156.034 112.548 156.585 112.935 157.057 113.4C157.175 113.555 157.332 113.709 157.214 113.903C157.096 114.097 156.9 113.98 156.742 113.942C156.427 113.903 156.152 113.826 155.837 113.826C155.404 113.864 155.207 114.135 155.483 114.561C155.68 114.871 155.876 115.142 156.073 115.413C156.427 115.955 156.506 116.497 155.955 116.962C155.522 117.349 155.404 117.852 155.444 118.433C155.483 118.936 155.64 119.323 156.152 119.594C156.703 119.904 157.214 120.175 157.805 120.369C158.119 120.485 158.395 120.601 158.592 120.795C159.339 121.569 160.284 121.569 161.189 121.337C162.527 121.027 163.825 120.833 165.203 120.911C165.872 120.949 166.462 121.104 166.895 121.685C167.446 122.421 168.115 122.305 168.351 121.414C168.587 120.485 169.177 120.175 170.043 120.136C170.24 120.485 171.302 120.833 172.915 121.84Z" fill="white"/>
</svg>
