<svg width="20" height="21" viewBox="0 0 20 21" fill="none" xmlns="http://www.w3.org/2000/svg">
<path d="M10 0.0541992C12.717 0.0541992 13.056 0.0642138 14.122 0.114287C15.187 0.164361 15.912 0.331606 16.55 0.57997C17.21 0.834343 17.766 1.17885 18.322 1.73466C18.8305 2.23529 19.224 2.84087 19.475 3.50927C19.722 4.1472 19.89 4.87427 19.94 5.94083C19.987 7.0084 20 7.34789 20 10.0689C20 12.7899 19.99 13.1294 19.94 14.1969C19.89 15.2635 19.722 15.9896 19.475 16.6285C19.2247 17.2973 18.8311 17.903 18.322 18.4031C17.822 18.9122 17.2173 19.3062 16.55 19.5578C15.913 19.8052 15.187 19.9734 14.122 20.0235C13.056 20.0705 12.717 20.0836 10 20.0836C7.283 20.0836 6.944 20.0736 5.878 20.0235C4.813 19.9734 4.088 19.8052 3.45 19.5578C2.78233 19.3069 2.17753 18.9128 1.678 18.4031C1.16941 17.9026 0.775931 17.2969 0.525 16.6285C0.277 15.9906 0.11 15.2635 0.0599999 14.1969C0.0129999 13.1294 0 12.7899 0 10.0689C0 7.34789 0.00999994 7.0084 0.0599999 5.94083C0.11 4.87327 0.277 4.1482 0.525 3.50927C0.775236 2.84046 1.1688 2.23472 1.678 1.73466C2.17767 1.22515 2.78243 0.831068 3.45 0.57997C4.088 0.331606 4.812 0.164361 5.878 0.114287C6.944 0.0672183 7.283 0.0541992 10 0.0541992ZM10 5.06154C8.67392 5.06154 7.40215 5.5891 6.46447 6.52816C5.52678 7.46722 5 8.74085 5 10.0689C5 11.3969 5.52678 12.6706 6.46447 13.6096C7.40215 14.5487 8.67392 15.0762 10 15.0762C11.3261 15.0762 12.5979 14.5487 13.5355 13.6096C14.4732 12.6706 15 11.3969 15 10.0689C15 8.74085 14.4732 7.46722 13.5355 6.52816C12.5979 5.5891 11.3261 5.06154 10 5.06154ZM16.5 4.81117C16.5 4.47917 16.3683 4.16076 16.1339 3.92599C15.8995 3.69123 15.5815 3.55934 15.25 3.55934C14.9185 3.55934 14.6005 3.69123 14.3661 3.92599C14.1317 4.16076 14 4.47917 14 4.81117C14 5.14318 14.1317 5.46159 14.3661 5.69636C14.6005 5.93112 14.9185 6.06301 15.25 6.06301C15.5815 6.06301 15.8995 5.93112 16.1339 5.69636C16.3683 5.46159 16.5 5.14318 16.5 4.81117ZM10 7.06448C10.7956 7.06448 11.5587 7.38101 12.1213 7.94445C12.6839 8.50788 13 9.27207 13 10.0689C13 10.8657 12.6839 11.6299 12.1213 12.1933C11.5587 12.7568 10.7956 13.0733 10 13.0733C9.20435 13.0733 8.44129 12.7568 7.87868 12.1933C7.31607 11.6299 7 10.8657 7 10.0689C7 9.27207 7.31607 8.50788 7.87868 7.94445C8.44129 7.38101 9.20435 7.06448 10 7.06448Z" fill="white"/>
</svg>
