<svg width="11" height="14" viewBox="0 0 11 14" fill="none" xmlns="http://www.w3.org/2000/svg">
<path d="M9.03563 8.78556L5.5 12.3212L1.96438 8.78556C1.26514 8.08629 0.788962 7.19538 0.596057 6.22548C0.403152 5.25558 0.502184 4.25026 0.880629 3.33665C1.25907 2.42303 1.89994 1.64215 2.72218 1.09276C3.54442 0.54336 4.51111 0.250122 5.5 0.250122C6.4889 0.250122 7.45559 0.54336 8.27783 1.09276C9.10007 1.64215 9.74093 2.42303 10.1194 3.33665C10.4978 4.25026 10.5969 5.25558 10.4039 6.22548C10.211 7.19538 9.73486 8.08629 9.03563 8.78556ZM1.125 12.7499H9.875V13.9999H1.125V12.7499Z" fill="white"/>
</svg>
