<svg width="11" height="10" viewBox="0 0 11 10" fill="none" xmlns="http://www.w3.org/2000/svg">
<path d="M0.55 0H10.45C10.5959 0 10.7358 0.0585316 10.8389 0.162718C10.9421 0.266905 11 0.408213 11 0.555556V9.44444C11 9.59179 10.9421 9.7331 10.8389 9.83728C10.7358 9.94147 10.5959 10 10.45 10H0.55C0.404131 10 0.264236 9.94147 0.161091 9.83728C0.0579462 9.7331 0 9.59179 0 9.44444V0.555556C0 0.408213 0.0579462 0.266905 0.161091 0.162718C0.264236 0.0585316 0.404131 0 0.55 0ZM5.533 4.82389L2.0064 1.79889L1.29415 2.64556L5.54015 6.28722L9.7097 2.64278L8.9903 1.80222L5.53355 4.82389H5.533Z" fill="white"/>
</svg>
