<svg width="106" height="99" viewBox="0 0 106 99" fill="none" xmlns="http://www.w3.org/2000/svg">
<path d="M26.3199 73.9985V73.9659C26.9852 73.9063 27.2546 73.5161 27.2546 72.7629C27.2546 71.6845 26.7598 71.3918 25.3688 71.3918C24.4725 71.3918 23.9722 71.3973 23.3674 71.4515V76.7026C24.0382 76.7568 24.5935 76.7622 25.6162 76.7622C26.8918 76.7622 27.4251 76.475 27.4251 75.3912C27.4251 74.562 27.1392 74.0689 26.3199 73.9985ZM24.522 72.2643L25.3193 72.2697C25.9351 72.2697 26.1275 72.389 26.1275 72.9255C26.1275 73.4674 25.9516 73.6029 25.3797 73.6029H24.522V72.2643ZM25.4127 75.8951H24.522V74.3724H25.3852C26.0505 74.3778 26.243 74.5404 26.243 75.1798C26.243 75.7651 26.056 75.8951 25.4127 75.8951Z" fill="#306732"/>
<path d="M30.669 71.4568H29.5584C29.366 71.4568 29.1955 71.5706 29.1515 71.7603L27.6175 76.708H28.8216L29.2065 75.3315H31.0374L31.4223 76.708H32.6209L31.0869 71.7603C31.0319 71.5706 30.867 71.4568 30.669 71.4568ZM29.4484 74.4319L29.8938 72.8278C29.9323 72.6653 29.9708 72.4918 30.0092 72.3347H30.2182C30.2402 72.4973 30.2897 72.6707 30.3281 72.8278L30.7735 74.4319H29.4484Z" fill="#306732"/>
<path d="M37.2504 72.3997H38.8448V76.708H40.0215V72.3997H41.6159V71.4568H37.2504V72.3997Z" fill="#306732"/>
<path d="M43.6833 75.765C43.3809 75.765 43.2654 75.6512 43.2654 75.3748V71.4568H42.0943V75.6133C42.0943 76.2582 42.4572 76.7296 43.3149 76.7296C44.0737 76.7296 44.8599 76.7242 45.5692 76.6483L45.5142 75.765H43.6833Z" fill="#306732"/>
<path d="M47.4661 73.3806C47.3836 73.5865 47.3176 73.8304 47.2736 74.0417H47.1966C47.1417 73.8304 47.0867 73.5865 46.9932 73.3806L46.108 71.4568H44.8819L46.6413 74.9738V76.708H47.8234V74.9738L49.5664 71.4568H48.3568L47.4661 73.3806Z" fill="#306732"/>
<path d="M54.9986 72.3455V71.4568H51.2324V72.3455H53.701L51.1719 75.8192V76.708H55.0591V75.8192H52.464L54.9986 72.3455Z" fill="#306732"/>
<path d="M58.4185 71.4568H57.3079C57.1154 71.4568 56.945 71.5706 56.901 71.7603L55.367 76.708H56.5711L56.956 75.3315H58.7869L59.1718 76.708H60.3704L58.8364 71.7603C58.7814 71.5706 58.6219 71.4568 58.4185 71.4568ZM57.1979 74.4319L57.6433 72.8278C57.6817 72.6653 57.7202 72.4918 57.7587 72.3347H57.9677C57.9896 72.4973 58.0391 72.6707 58.0776 72.8278L58.523 74.4319H57.1979Z" fill="#306732"/>
<path d="M66.2534 71.4568H65.1208C64.8569 71.4568 64.7029 71.5868 64.6425 71.8307L63.9992 74.4482C63.9442 74.6974 63.9057 74.9413 63.8617 75.1852H63.7627C63.7243 74.9413 63.6858 74.6974 63.6253 74.4482L62.9765 71.8307C62.9215 71.5868 62.7676 71.4568 62.5147 71.4568H61.382C61.0961 71.4568 60.9587 71.6085 60.9422 71.8903L60.7497 76.708H61.8604L62.0143 72.3618H62.1463L62.9545 75.6133C63.0095 75.8626 63.1689 75.9872 63.4329 75.9872H64.2026C64.4665 75.9872 64.626 75.868 64.6809 75.6133L65.4837 72.3618H65.6156L65.7916 76.708H66.9022L66.6933 71.8903C66.6823 71.6085 66.5338 71.4568 66.2534 71.4568Z" fill="#306732"/>
<path d="M70.3331 71.4568H69.2225C69.03 71.4568 68.8596 71.5706 68.8156 71.7603L67.2816 76.708H68.4857L68.8706 75.3315H70.7015L71.0864 76.708H72.285L70.751 71.7603C70.696 71.5706 70.5365 71.4568 70.3331 71.4568ZM69.1125 74.4319L69.5579 72.8278C69.5964 72.6653 69.6348 72.4918 69.6733 72.3347H69.8823C69.9043 72.4973 69.9537 72.6707 69.9922 72.8278L70.4376 74.4319H69.1125Z" fill="#306732"/>
<path d="M76.0843 74.4806C76.0843 74.7787 76.1062 75.0659 76.1282 75.364H76.0513C75.9303 75.0659 75.7818 74.7462 75.6664 74.5186L74.3138 71.8036C74.1984 71.576 74.0884 71.4622 73.841 71.4622H73.1262C72.8458 71.4622 72.7029 71.6085 72.7029 71.8794V76.7133H73.8245V73.5919C73.8245 73.3155 73.808 73.0283 73.7695 72.7573H73.852C73.9125 73.0175 74.0664 73.3426 74.1764 73.5702L75.5729 76.3719C75.6884 76.5995 75.7983 76.7133 76.0458 76.7133H76.777C77.0574 76.7133 77.1949 76.567 77.1949 76.296V71.4622H76.0843V74.4806Z" fill="#306732"/>
<path d="M81.0601 71.7603C81.0161 71.5706 80.8512 71.4568 80.6532 71.4568H79.5426C79.3502 71.4568 79.1797 71.5706 79.1357 71.7603L77.6017 76.708H78.8059L79.1907 75.3315H81.0216L81.4065 76.708H82.6051L81.0601 71.7603ZM79.4272 74.4319L79.8725 72.8278C79.911 72.6653 79.9495 72.4918 79.988 72.3347H80.1969C80.2189 72.4973 80.2684 72.6707 80.3069 72.8278L80.7522 74.4319H79.4272Z" fill="#306732"/>
<path d="M36.4202 73.6786H35.2655V74.6324H35.7879V75.8138H34.9631H34.7652C34.6662 75.8138 34.5728 75.8029 34.4958 75.7704C34.4903 75.7704 34.4848 75.765 34.4738 75.7596C34.1164 75.6241 33.9735 75.2177 33.957 74.3343C33.9515 74.2585 33.9515 74.1826 33.9515 74.0959C33.9515 73.9062 33.957 73.7382 33.9625 73.5865C34.0339 72.5243 34.3583 72.3455 35.1336 72.3455C35.2435 72.3455 35.3535 72.3455 35.469 72.3509C35.8374 72.3563 36.2332 72.3672 36.6401 72.3835L36.6951 71.8415L36.7281 71.5272C36.3212 71.4134 35.9033 71.3646 35.425 71.3538C35.315 71.3484 35.2051 71.3484 35.0896 71.3484C33.5556 71.3484 32.8793 71.8307 32.7309 73.3318C32.7309 73.3318 32.7309 73.3372 32.7309 73.3426C32.7199 73.451 32.7144 73.5594 32.7089 73.684C32.7034 73.8033 32.6979 73.9279 32.6979 74.058C32.6979 74.1284 32.6979 74.1935 32.7034 74.2531C32.7034 74.3181 32.7034 74.3777 32.7089 74.4373C32.7144 74.5674 32.7199 74.692 32.7364 74.8058C32.7419 74.9034 32.7529 75.0009 32.7694 75.093C32.9508 76.2744 33.5281 76.7134 34.6882 76.773H34.6937H35.8099V76.7621H36.9095V76.6971H36.915V73.6678L36.4202 73.6786Z" fill="#306732"/>
<path d="M53.0357 3.72838C53.0962 3.76631 53.1622 3.80967 53.2447 3.85302C54.6302 4.6388 59.2762 6.96903 66.017 7.17496C66.017 7.17496 74.1599 7.29418 76.5351 9.53229C77.7007 10.459 78.443 11.83 78.443 13.3636V15.6559H89.1205V25.5134H91.6167C93.5356 25.5134 95.218 26.4238 96.1967 27.7948C98.209 30.4286 98.319 37.0291 98.319 37.0291C98.5444 43.2503 101.068 47.5422 101.92 48.8212C101.97 48.897 102.014 48.9621 102.058 49.0217C102.014 49.0759 101.97 49.1409 101.92 49.2168C101.068 50.4957 98.5444 54.7822 98.319 61.0089C98.319 61.0089 98.1925 68.5252 95.7678 70.7146C94.7617 71.7876 93.2771 72.4758 91.6167 72.4758H89.1205V82.3332H78.443V84.6472C78.443 86.4138 77.4588 87.9691 75.9688 88.8796C73.1152 90.7383 65.9675 90.8413 65.9675 90.8413C59.2267 91.0472 54.5807 93.3775 53.1952 94.1632C53.1127 94.2066 53.0412 94.25 52.9808 94.2879C52.9203 94.25 52.8543 94.2066 52.7718 94.1632C51.3863 93.3775 46.7403 91.0472 39.9995 90.8413C39.9995 90.8413 31.8566 90.7221 29.4814 88.484C28.3158 87.5573 27.5735 86.1862 27.5735 84.6526V82.3386H16.896V72.4812H14.3888C12.4699 72.4812 10.7875 71.5708 9.80881 70.1997C7.79646 67.566 7.6865 60.9655 7.6865 60.9655C7.46107 54.7443 4.93739 50.4523 4.08517 49.1734C4.03569 49.0975 3.9917 49.0325 3.94772 48.9729C3.9917 48.9187 4.03569 48.8537 4.08517 48.7778C4.93739 47.4989 7.46107 43.2123 7.6865 36.9857C7.6865 36.9857 7.81296 29.4694 10.2377 27.28C11.2438 26.207 12.7284 25.5188 14.3888 25.5188H16.896V15.6614H27.5735V13.3691C27.5735 11.6024 28.5577 10.0471 30.0477 9.1367C32.9013 7.27793 40.049 7.17496 40.049 7.17496C46.7898 6.96903 51.4358 4.6388 52.8213 3.85302C52.9038 3.80967 52.9753 3.77173 53.0357 3.72838ZM53.0137 0L51.3148 1.16512L51.2928 1.18138L51.2763 1.18679L51.2653 1.19221C50.1437 1.82626 46.0255 3.91263 39.9775 4.10772C38.5754 4.1294 31.8017 4.35158 28.3708 6.54634C26.1495 7.91197 24.7419 10.1284 24.4945 12.5887H16.896H13.7785V15.6614V22.4678C11.5847 22.6141 9.5174 23.5571 8.02739 25.1124C4.97038 28.017 4.6075 34.8181 4.56901 36.9044C4.36558 42.3615 2.1498 46.0791 1.47902 47.0925L1.46802 47.1087L0 48.9675L1.44603 50.8046L1.45703 50.8208L1.46802 50.8371L1.47902 50.8534C2.1553 51.8667 4.36558 55.5843 4.56901 61.0414C4.59101 62.3745 4.83843 68.7474 7.28513 71.9989C8.77514 74.0636 11.1669 75.3534 13.7785 75.5268V82.3332V85.4059H16.896H24.4945C24.698 87.4868 25.7426 89.4161 27.4306 90.798C30.5041 93.5509 37.7177 93.876 39.9225 93.914C45.9705 94.1036 50.0942 96.1954 51.2103 96.8295L51.2268 96.8403L51.2378 96.8457L52.9753 98.0108L54.6852 96.862L54.7127 96.8457L54.7292 96.8403L54.7457 96.8295C55.8673 96.1954 59.9855 94.1091 66.0335 93.914C67.4356 93.8923 74.2094 93.6701 77.6402 91.4753C79.867 90.1043 81.2746 87.8824 81.5165 85.4113H89.115H92.2325V82.3386V75.5322C94.4208 75.3805 96.4826 74.4375 97.9726 72.8931C101.03 69.9884 101.393 63.1874 101.431 61.101C101.634 55.6493 103.85 51.9263 104.521 50.913L104.532 50.8967L106 49.0325L104.554 47.1954L104.543 47.1792L104.532 47.1629L104.521 47.1467C103.845 46.1333 101.634 42.4157 101.431 36.9586C101.409 35.6255 101.162 29.2526 98.7149 26.0011C97.2249 23.9418 94.8386 22.6521 92.2325 22.4732V15.6614V12.5887H89.115H81.5165C81.3075 10.5186 80.2629 8.6002 78.5859 7.22373C75.5124 4.4708 68.2988 4.14565 66.094 4.10772C60.046 3.91805 55.9223 1.82626 54.8062 1.19221L54.7897 1.18138L54.7732 1.17596L53.0137 0Z" fill="#19561B"/>
<path d="M45.8661 19.2598C39.906 19.2598 36.2222 19.3085 31.9721 19.6662L26.9412 54.9232C27.623 54.972 28.2828 55.0154 28.9426 55.0587C29.1625 55.0695 29.3824 55.0858 29.6024 55.0966C29.9707 55.1183 30.3336 55.1346 30.702 55.1508C31.8071 55.1996 32.9343 55.2375 34.1439 55.2646C36.717 55.3242 39.6476 55.3351 43.4798 55.3351C44.6785 55.3351 45.7891 55.3026 46.8063 55.2213L57.0604 43.4996C56.956 41.5433 56.2577 38.5086 53.1072 37.3652H53.2337C53.1787 37.3489 53.1457 37.3435 53.1457 37.3435C56.802 35.0295 57.7532 29.3557 57.7532 29.3557L57.7587 29.3611C57.7862 29.1822 57.8137 29.0034 57.8412 28.8137C58.8253 21.4057 55.0921 19.2598 45.8661 19.2598ZM46.6523 43.6622C46.6523 43.6622 46.6358 43.7923 46.6358 43.7977C46.3719 45.5047 46.0145 46.4693 45.4372 47.0058C45.3052 47.1251 45.1733 47.2226 45.0578 47.2931C44.9589 47.3527 44.8599 47.4069 44.7554 47.4502C44.6345 47.499 44.508 47.5423 44.387 47.5803C44.1946 47.6399 43.9802 47.6887 43.7383 47.7266C43.2049 47.8187 42.5506 47.8621 41.6654 47.8621H38.0311L39.1143 40.2752H43.6338C45.1898 40.2752 46.0145 40.4541 46.3884 40.8768C46.7623 41.2941 46.8447 42.1449 46.6523 43.6622ZM47.9829 29.3394C47.5155 32.4229 46.8228 33.0461 43.8427 33.0461H40.1644L41.0826 26.684L45.5527 26.7328C46.7898 26.7328 47.4715 26.8845 47.7794 27.2313C48.0708 27.5619 48.1368 28.2339 47.9829 29.3394Z" fill="#19561B"/>
<path d="M56.5381 58.7002V58.7057H72.4554L71.4713 65.653H44.4091L45.3438 58.7002L46.6193 57.2317H46.6248L47.4056 56.3321L47.9609 55.6926L57.6707 44.5183L59.8645 41.993L63.9002 37.3434H54.9436C54.9436 37.3434 55.0591 37.2837 55.2405 37.132C55.2515 37.1212 55.257 37.1157 55.268 37.1049C55.2735 37.0995 55.279 37.0941 55.2845 37.0887C55.3945 36.9911 55.5209 36.861 55.6584 36.6876C55.6749 36.6714 55.6914 36.6497 55.7079 36.628C55.7134 36.6226 55.7134 36.6172 55.7189 36.6172C57.5223 34.5091 58.3855 31.767 58.7209 30.396H76.0348L75.0506 37.3434L56.5381 58.7002Z" fill="#19561B"/>
<path d="M55.6584 36.6877C55.5209 36.8612 55.3945 36.9912 55.2845 37.0888C55.411 36.9587 55.5374 36.8232 55.6584 36.6877Z" fill="#52AC62"/>
<path d="M47.4056 56.332L46.6248 57.2316H46.6193L47.4056 56.332Z" fill="#52AC62"/>
<path opacity="0.1" d="M57.0604 43.4995L46.8063 55.2211C45.7891 55.3024 44.6785 55.3349 43.4798 55.3349C39.6476 55.3349 36.717 55.3241 34.1439 55.2645C32.9343 55.2374 31.8071 55.1994 30.702 55.1506C30.3336 55.1344 29.9707 55.1181 29.6024 55.0965C29.3824 55.0856 29.1625 55.0694 28.9426 55.0585C28.2828 55.0152 27.623 54.9718 26.9412 54.923L31.9721 19.666L41.0826 26.6838L39.1143 40.2751L38.0311 47.8619H41.6654C42.5506 47.8619 43.2049 47.8185 43.7383 47.7264C43.9802 47.6885 44.1946 47.6397 44.387 47.5801C44.508 47.5422 44.6345 47.4988 44.7554 47.45C44.8599 47.4067 44.9589 47.3525 45.0578 47.2929C45.1733 47.2224 45.3052 47.1249 45.4372 47.0057C46.0145 46.4692 46.3719 45.5045 46.6358 43.7975C46.6358 43.7921 46.6523 43.662 46.6523 43.662C46.8228 42.3018 46.7788 41.4727 46.4929 41.0175C50.2536 40.2263 52.6838 39.0287 54.2343 37.9177C55.9553 38.9961 56.6591 40.7682 56.9285 42.3072C56.9505 42.4373 56.9725 42.5728 56.9834 42.7028C57.0219 42.9901 57.0494 43.261 57.0604 43.4995Z" fill="white"/>
<path opacity="0.1" d="M76.0348 30.396L75.0506 37.3434L56.5381 58.7002V58.7057L44.4091 65.653L45.3438 58.7002L46.6193 57.2317H46.6248L47.4056 56.3321L47.9609 55.6926L57.6707 44.5183L59.8645 41.993L63.9002 37.3434H55.0316L55.2405 37.132L55.2845 37.0887C55.2845 37.0887 55.2845 37.0887 55.29 37.0832C55.4 36.9857 55.5209 36.8556 55.6584 36.6876C55.6749 36.6714 55.6914 36.6497 55.7079 36.628C55.7134 36.6226 55.7134 36.6172 55.7189 36.6172C57.5223 34.5091 58.3855 31.767 58.7209 30.396H76.0348Z" fill="white"/>
</svg>
