<svg width="49" height="46" viewBox="0 0 49 46" fill="none" xmlns="http://www.w3.org/2000/svg">
<g clip-path="url(#clip0)">
<path d="M12.1667 34.7347V34.7195C12.4743 34.6915 12.5988 34.5084 12.5988 34.1548C12.5988 33.6486 12.3701 33.5112 11.727 33.5112C11.3127 33.5112 11.0815 33.5138 10.8019 33.5392V36.004C11.112 36.0295 11.3687 36.032 11.8414 36.032C12.4311 36.032 12.6776 35.8972 12.6776 35.3885C12.6776 34.9993 12.5454 34.7678 12.1667 34.7347ZM11.3356 33.9208L11.7042 33.9233C11.9888 33.9233 12.0778 33.9793 12.0778 34.2311C12.0778 34.4855 11.9964 34.5491 11.7321 34.5491H11.3356V33.9208ZM11.7474 35.625H11.3356V34.9103H11.7347C12.0422 34.9128 12.1312 34.9891 12.1312 35.2893C12.1312 35.564 12.0447 35.625 11.7474 35.625Z" fill="white"/>
<path d="M14.1771 33.541H13.6637C13.5748 33.541 13.496 33.5944 13.4757 33.6835L12.7665 36.0058H13.3232L13.5011 35.3597H14.3474L14.5253 36.0058H15.0794L14.3703 33.6835C14.3449 33.5944 14.2686 33.541 14.1771 33.541ZM13.6129 34.9375L13.8188 34.1846C13.8366 34.1083 13.8544 34.0269 13.8721 33.9531H13.9687C13.9789 34.0294 14.0018 34.1108 14.0196 34.1846L14.2254 34.9375H13.6129Z" fill="white"/>
<path d="M17.2195 33.9836H17.9566V36.0058H18.5005V33.9836H19.2376V33.541H17.2195V33.9836Z" fill="white"/>
<path d="M20.1931 35.5632C20.0534 35.5632 20 35.5098 20 35.3801V33.541H19.4586V35.492C19.4586 35.7947 19.6264 36.016 20.0229 36.016C20.3736 36.016 20.7371 36.0135 21.0649 35.9779L21.0395 35.5632H20.1931Z" fill="white"/>
<path d="M21.9419 34.444C21.9038 34.5407 21.8733 34.6551 21.8529 34.7544H21.8173C21.7919 34.6551 21.7665 34.5407 21.7233 34.444L21.3141 33.541H20.7473L21.5606 35.1919V36.0058H22.1071V35.1919L22.9128 33.541H22.3536L21.9419 34.444Z" fill="white"/>
<path d="M25.4238 33.9582V33.541H23.6827V33.9582H24.8239L23.6548 35.5887V36.0058H25.4517V35.5887H24.2521L25.4238 33.9582Z" fill="white"/>
<path d="M27.0048 33.541H26.4914C26.4024 33.541 26.3236 33.5944 26.3033 33.6835L25.5942 36.0058H26.1508L26.3287 35.3597H27.1751L27.353 36.0058H27.9071L27.1979 33.6835C27.1725 33.5944 27.0988 33.541 27.0048 33.541ZM26.4405 34.9375L26.6464 34.1846C26.6642 34.1083 26.682 34.0269 26.6998 33.9531H26.7964C26.8065 34.0294 26.8294 34.1108 26.8472 34.1846L27.0531 34.9375H26.4405Z" fill="white"/>
<path d="M30.6266 33.541H30.103C29.981 33.541 29.9098 33.6021 29.8819 33.7165L29.5845 34.9451C29.5591 35.0621 29.5413 35.1766 29.521 35.2911H29.4752C29.4574 35.1766 29.4396 35.0621 29.4117 34.9451L29.1118 33.7165C29.0863 33.6021 29.0152 33.541 28.8983 33.541H28.3747C28.2425 33.541 28.179 33.6122 28.1714 33.7445L28.0824 36.0058H28.5958L28.667 33.9658H28.728L29.1016 35.492C29.127 35.609 29.2007 35.6675 29.3227 35.6675H29.6785C29.8005 35.6675 29.8742 35.6116 29.8997 35.492L30.2707 33.9658H30.3317L30.4131 36.0058H30.9265L30.8299 33.7445C30.8248 33.6122 30.7562 33.541 30.6266 33.541Z" fill="white"/>
<path d="M32.5124 33.541H31.999C31.91 33.541 31.8313 33.5944 31.8109 33.6835L31.1018 36.0058H31.6584L31.8363 35.3597H32.6827L32.8606 36.0058H33.4147L32.7056 33.6835C32.6802 33.5944 32.6064 33.541 32.5124 33.541ZM31.9482 34.9375L32.154 34.1846C32.1718 34.1083 32.1896 34.0269 32.2074 33.9531H32.304C32.3142 34.0294 32.337 34.1108 32.3548 34.1846L32.5607 34.9375H31.9482Z" fill="white"/>
<path d="M35.171 34.9605C35.171 35.1004 35.1812 35.2353 35.1913 35.3752H35.1558C35.0998 35.2353 35.0312 35.0852 34.9778 34.9783L34.3526 33.704C34.2992 33.5971 34.2484 33.5437 34.134 33.5437H33.8036C33.674 33.5437 33.6079 33.6124 33.6079 33.7396V36.0085H34.1264V34.5434C34.1264 34.4136 34.1188 34.2788 34.101 34.1516H34.1391C34.1671 34.2737 34.2382 34.4264 34.2891 34.5332L34.9346 35.8483C34.988 35.9551 35.0388 36.0085 35.1532 36.0085H35.4913C35.6209 36.0085 35.6844 35.9398 35.6844 35.8127V33.5437H35.171V34.9605Z" fill="white"/>
<path d="M37.4711 33.6835C37.4508 33.5944 37.3745 33.541 37.283 33.541H36.7696C36.6807 33.541 36.6019 33.5944 36.5815 33.6835L35.8724 36.0058H36.4291L36.607 35.3597H37.4533L37.6312 36.0058H38.1853L37.4711 33.6835ZM36.7163 34.9375L36.9221 34.1846C36.9399 34.1083 36.9577 34.0269 36.9755 33.9531H37.0721C37.0823 34.0294 37.1051 34.1108 37.1229 34.1846L37.3288 34.9375H36.7163Z" fill="white"/>
<path d="M16.8357 34.584H16.302V35.0317H16.5434V35.5862H16.1622H16.0707C16.025 35.5862 15.9817 35.5811 15.9462 35.5659C15.9436 35.5659 15.9411 35.5633 15.936 35.5608C15.7708 35.4972 15.7047 35.3064 15.6971 34.8918C15.6945 34.8562 15.6945 34.8206 15.6945 34.7799C15.6945 34.6908 15.6971 34.612 15.6996 34.5408C15.7327 34.0422 15.8826 33.9583 16.241 33.9583C16.2918 33.9583 16.3427 33.9583 16.396 33.9608C16.5663 33.9634 16.7493 33.9684 16.9374 33.9761L16.9628 33.7217L16.9781 33.5742C16.79 33.5208 16.5968 33.4979 16.3757 33.4928C16.3249 33.4902 16.274 33.4902 16.2207 33.4902C15.5115 33.4902 15.1989 33.7166 15.1303 34.4212C15.1303 34.4212 15.1303 34.4238 15.1303 34.4263C15.1252 34.4772 15.1227 34.5281 15.1201 34.5866C15.1176 34.6425 15.1151 34.701 15.1151 34.7621C15.1151 34.7951 15.1151 34.8257 15.1176 34.8536C15.1176 34.8842 15.1176 34.9121 15.1201 34.9401C15.1227 35.0012 15.1252 35.0597 15.1328 35.1131C15.1354 35.1589 15.1405 35.2047 15.1481 35.2479C15.232 35.8024 15.4988 36.0085 16.0351 36.0365H16.0377H16.5536V36.0314H17.0619V36.0008H17.0645V34.5789L16.8357 34.584Z" fill="white"/>
<path d="M24.5165 1.75006C24.5445 1.76786 24.575 1.78821 24.6131 1.80856C25.2536 2.17739 27.4013 3.27118 30.5173 3.36784C30.5173 3.36784 34.2814 3.4238 35.3794 4.47434C35.9183 4.90931 36.2614 5.55286 36.2614 6.27273V7.34871H41.1972V11.9757H42.3511C43.2381 11.9757 44.0159 12.403 44.4683 13.0466C45.3985 14.2828 45.4494 17.381 45.4494 17.381C45.5536 20.3012 46.7202 22.3157 47.1141 22.9161C47.137 22.9517 47.1573 22.9822 47.1777 23.0102C47.1573 23.0356 47.137 23.0661 47.1141 23.1017C46.7202 23.7021 45.5536 25.7141 45.4494 28.6368C45.4494 28.6368 45.3909 32.1649 44.27 33.1926C43.8049 33.6962 43.1187 34.0192 42.3511 34.0192H41.1972V38.6462H36.2614V39.7324C36.2614 40.5616 35.8064 41.2916 35.1176 41.719C33.7985 42.5915 30.4944 42.6398 30.4944 42.6398C27.3784 42.7365 25.2307 43.8302 24.5902 44.1991C24.5521 44.2194 24.5191 44.2398 24.4911 44.2576C24.4631 44.2398 24.4326 44.2194 24.3945 44.1991C23.754 43.8302 21.6064 42.7365 18.4903 42.6398C18.4903 42.6398 14.7262 42.5838 13.6282 41.5333C13.0894 41.0983 12.7463 40.4548 12.7463 39.7349V38.6488H7.81042V34.0218H6.65143C5.76441 34.0218 4.98667 33.5944 4.53426 32.9509C3.60403 31.7147 3.55319 28.6165 3.55319 28.6165C3.44899 25.6963 2.28238 23.6817 1.88843 23.0814C1.86555 23.0458 1.84522 23.0153 1.82489 22.9873C1.84522 22.9618 1.86555 22.9313 1.88843 22.8957C2.28238 22.2954 3.44899 20.2833 3.55319 17.3607C3.55319 17.3607 3.61165 13.8326 4.73251 12.8049C5.19763 12.3013 5.88386 11.9782 6.65143 11.9782H7.81042V7.35125H12.7463V6.27527C12.7463 5.44603 13.2012 4.71599 13.89 4.28865C15.2091 3.41617 18.5132 3.36784 18.5132 3.36784C21.6292 3.27118 23.7769 2.17739 24.4174 1.80856C24.4555 1.78821 24.4886 1.7704 24.5165 1.75006ZM24.5064 0L23.721 0.546892L23.7108 0.554523L23.7032 0.557067L23.6981 0.559611C23.1796 0.857222 21.2759 1.83654 18.4802 1.92811C17.832 1.93829 14.7008 2.04258 13.1148 3.07277C12.088 3.71378 11.4373 4.75415 11.3229 5.90898H7.81042H6.36931V7.35125V10.5461C5.35521 10.6148 4.39955 11.0574 3.71077 11.7874C2.29763 13.1509 2.12988 16.3432 2.11209 17.3225C2.01805 19.884 0.993776 21.629 0.683697 22.1046L0.678614 22.1123L0 22.9847L0.668448 23.847L0.673531 23.8547L0.678614 23.8623L0.683697 23.8699C0.996317 24.3456 2.01805 26.0906 2.11209 28.6521C2.12226 29.2778 2.23663 32.2692 3.36765 33.7954C4.05643 34.7645 5.16204 35.3699 6.36931 35.4513V38.6462V40.0885H7.81042H11.3229C11.417 41.0653 11.8999 41.9708 12.6802 42.6194C14.1009 43.9116 17.4356 44.0643 18.4547 44.0821C21.2505 44.1711 23.1568 45.153 23.6727 45.4506L23.6803 45.4557L23.6854 45.4582L24.4886 46.0051L25.279 45.4658L25.2917 45.4582L25.2993 45.4557L25.307 45.4506C25.8255 45.153 27.7291 44.1736 30.5249 44.0821C31.173 44.0719 34.3043 43.9676 35.8903 42.9374C36.9197 42.2939 37.5703 41.2509 37.6821 40.091H41.1947H42.6358V38.6488V35.4539C43.6473 35.3827 44.6004 34.9401 45.2892 34.2151C46.7024 32.8517 46.8701 29.6594 46.8879 28.68C46.982 26.1211 48.0062 24.3736 48.3163 23.8979L48.3214 23.8903L49 23.0153L48.3316 22.153L48.3265 22.1453L48.3214 22.1377L48.3163 22.1301C48.0037 21.6544 46.982 19.9094 46.8879 17.3479C46.8777 16.7222 46.7634 13.7308 45.6323 12.2046C44.9436 11.238 43.8405 10.6326 42.6358 10.5487V7.35125V5.90898H41.1947H37.6821C37.5856 4.93729 37.1026 4.03683 36.3275 3.39073C34.9067 2.09854 31.5721 1.94592 30.5529 1.92811C27.7571 1.83908 25.8509 0.857222 25.3349 0.559611L25.3273 0.554523L25.3197 0.55198L24.5064 0Z" fill="white"/>
<path d="M21.2023 9.04028C18.4471 9.04028 16.7442 9.06318 14.7796 9.23106L12.454 25.7803C12.7691 25.8032 13.0741 25.8235 13.3791 25.8439C13.4808 25.8489 13.5825 25.8566 13.6841 25.8617C13.8544 25.8718 14.0222 25.8795 14.1925 25.8871C14.7033 25.91 15.2244 25.9278 15.7835 25.9405C16.973 25.9685 18.3277 25.9736 20.0992 25.9736C20.6533 25.9736 21.1667 25.9583 21.6369 25.9202L26.377 20.4182C26.3287 19.4999 26.0059 18.0754 24.5496 17.5387H24.608C24.5826 17.5311 24.5674 17.5286 24.5674 17.5286C26.2575 16.4424 26.6972 13.7792 26.6972 13.7792L26.6998 13.7817C26.7125 13.6978 26.7252 13.6138 26.7379 13.5248C27.1929 10.0476 25.4671 9.04028 21.2023 9.04028ZM21.5657 20.4945C21.5657 20.4945 21.5581 20.5555 21.5581 20.5581C21.4361 21.3593 21.2709 21.8121 21.004 22.0639C20.943 22.1199 20.882 22.1657 20.8286 22.1988C20.7829 22.2267 20.7371 22.2522 20.6888 22.2725C20.6329 22.2954 20.5745 22.3158 20.5186 22.3336C20.4296 22.3616 20.3305 22.3845 20.2186 22.4023C19.9721 22.4455 19.6697 22.4658 19.2605 22.4658H17.5804L18.0811 18.9047H20.1704C20.8896 18.9047 21.2709 18.9886 21.4437 19.187C21.6165 19.3829 21.6547 19.7823 21.5657 20.4945ZM22.1808 13.7715C21.9647 15.2189 21.6445 15.5114 20.2669 15.5114H18.5666L18.991 12.5251L21.0574 12.548C21.6292 12.548 21.9444 12.6192 22.0867 12.782C22.2214 12.9372 22.2519 13.2526 22.1808 13.7715Z" fill="white"/>
<path d="M26.1355 27.5532V27.5558H33.4935L33.0386 30.8168H20.5287L20.9608 27.5532L21.5504 26.8639H21.553L21.9139 26.4417L22.1706 26.1415L26.6591 20.8964L27.6732 19.7111L29.5387 17.5286H25.3984C25.3984 17.5286 25.4518 17.5006 25.5357 17.4294C25.5408 17.4243 25.5433 17.4217 25.5484 17.4167C25.5509 17.4141 25.5535 17.4116 25.556 17.409C25.6069 17.3632 25.6653 17.3022 25.7289 17.2208C25.7365 17.2132 25.7441 17.203 25.7517 17.1928C25.7543 17.1903 25.7543 17.1877 25.7568 17.1877C26.5905 16.1982 26.9895 14.9111 27.1445 14.2676H35.1481L34.6932 17.5286L26.1355 27.5532Z" fill="white"/>
<path d="M25.7289 17.2207C25.6653 17.302 25.6069 17.3629 25.556 17.4087C25.6145 17.3477 25.673 17.2842 25.7289 17.2207Z" fill="white"/>
<path d="M21.9139 26.4417L21.553 26.8639H21.5505L21.9139 26.4417Z" fill="white"/>
<path opacity="0.5" d="M26.377 20.4181L21.6369 25.9201C21.1667 25.9582 20.6533 25.9735 20.0992 25.9735C18.3277 25.9735 16.973 25.9684 15.7835 25.9404C15.2244 25.9277 14.7033 25.9099 14.1925 25.887C14.0222 25.8794 13.8544 25.8717 13.6841 25.8616C13.5825 25.8565 13.4808 25.8489 13.3791 25.8438C13.0741 25.8234 12.7691 25.8031 12.454 25.7802L14.7796 9.23096L18.991 12.525L18.0811 18.9046L17.5804 22.4658H19.2605C19.6697 22.4658 19.9721 22.4454 20.2186 22.4022C20.3305 22.3844 20.4296 22.3615 20.5186 22.3335C20.5745 22.3157 20.6329 22.2953 20.6888 22.2724C20.7371 22.2521 20.7829 22.2266 20.8286 22.1987C20.882 22.1656 20.943 22.1198 21.004 22.0638C21.2709 21.812 21.4361 21.3592 21.5581 20.558C21.5581 20.5554 21.5657 20.4944 21.5657 20.4944C21.6445 19.8559 21.6242 19.4667 21.492 19.2531C23.2305 18.8817 24.3539 18.3195 25.0706 17.7981C25.8661 18.3043 26.1915 19.1361 26.316 19.8585C26.3262 19.9195 26.3363 19.9831 26.3414 20.0442C26.3592 20.179 26.3719 20.3062 26.377 20.4181Z" fill="white"/>
<path opacity="0.5" d="M35.1481 14.2676L34.6932 17.5286L26.1355 27.5532V27.5558L20.5287 30.8168L20.9608 27.5532L21.5504 26.8639H21.553L21.9139 26.4417L22.1706 26.1415L26.6591 20.8964L27.6732 19.7111L29.5387 17.5286H25.4391L25.5357 17.4294L25.556 17.409C25.556 17.409 25.556 17.409 25.5586 17.4065C25.6094 17.3607 25.6653 17.2997 25.7289 17.2208C25.7365 17.2132 25.7441 17.203 25.7517 17.1928C25.7543 17.1903 25.7543 17.1877 25.7568 17.1877C26.5905 16.1982 26.9895 14.9111 27.1445 14.2676H35.1481Z" fill="white"/>
</g>
<defs>
<clipPath id="clip0">
<rect width="49" height="46" fill="white"/>
</clipPath>
</defs>
</svg>
