<svg width="13" height="13" viewBox="0 0 13 13" fill="none" xmlns="http://www.w3.org/2000/svg">
<path d="M12.125 9.2625V11.4725C12.1251 11.6307 12.0651 11.7831 11.9572 11.8989C11.8494 12.0146 11.7016 12.0852 11.5437 12.0963C11.2706 12.115 11.0475 12.125 10.875 12.125C5.35188 12.125 0.875 7.64813 0.875 2.125C0.875 1.9525 0.884375 1.72938 0.90375 1.45625C0.914826 1.2984 0.985363 1.15063 1.10113 1.04276C1.21689 0.934879 1.36926 0.874928 1.5275 0.875H3.7375C3.81502 0.874922 3.88981 0.903662 3.94733 0.955638C4.00485 1.00761 4.041 1.07911 4.04875 1.15625C4.06313 1.3 4.07625 1.41438 4.08875 1.50125C4.21296 2.36808 4.4675 3.21115 4.84375 4.00188C4.90313 4.12688 4.86438 4.27625 4.75187 4.35625L3.40313 5.32C4.22778 7.24153 5.75909 8.77284 7.68062 9.5975L8.64313 8.25125C8.68247 8.19625 8.73986 8.1568 8.80531 8.13978C8.87076 8.12276 8.9401 8.12926 9.00125 8.15812C9.79189 8.53367 10.6347 8.78757 11.5013 8.91125C11.5881 8.92375 11.7025 8.9375 11.845 8.95125C11.922 8.95915 11.9934 8.99536 12.0452 9.05286C12.0971 9.11037 12.1257 9.18507 12.1256 9.2625H12.125Z" fill="white"/>
</svg>
