<svg width="299" height="299" viewBox="0 0 299 299" fill="none" xmlns="http://www.w3.org/2000/svg">
<circle cx="149.5" cy="149.5" r="149.5" fill="#043480"/>
<path d="M107.465 171L139.798 190.946L115.333 230.604L104.933 211.283L83.0001 210.658L107.465 171Z" fill="white"/>
<path d="M159 191.41L191.042 171L216.076 210.302L194.154 211.243L184.034 230.711L159 191.41Z" fill="white"/>
<circle cx="149.5" cy="144.5" r="61.5" fill="#043480"/>
<path d="M119.795 161H115.065V151.32C115.006 151.379 114.903 151.459 114.757 151.562C114.625 151.665 114.317 151.797 113.833 151.958C113.363 152.119 112.843 152.2 112.271 152.2V148.13C112.799 148.13 113.261 148.042 113.657 147.866C114.053 147.675 114.353 147.433 114.559 147.14C114.779 146.847 114.94 146.575 115.043 146.326C115.145 146.077 115.211 145.835 115.241 145.6H119.795V161ZM131.484 153.3C131.484 154.664 131.697 155.676 132.122 156.336C132.548 156.996 133.068 157.326 133.684 157.326C134.3 157.326 134.821 156.996 135.246 156.336C135.672 155.676 135.884 154.664 135.884 153.3C135.884 151.951 135.672 150.946 135.246 150.286C134.821 149.626 134.3 149.296 133.684 149.296C133.068 149.296 132.548 149.626 132.122 150.286C131.697 150.946 131.484 151.951 131.484 153.3ZM140.834 153.3C140.834 155.823 140.182 157.795 138.876 159.218C137.571 160.626 135.84 161.33 133.684 161.33C131.528 161.33 129.798 160.626 128.492 159.218C127.187 157.795 126.534 155.823 126.534 153.3C126.534 150.792 127.187 148.827 128.492 147.404C129.798 145.981 131.528 145.27 133.684 145.27C135.84 145.27 137.571 145.981 138.876 147.404C140.182 148.827 140.834 150.792 140.834 153.3ZM151.955 153.3C151.955 154.664 152.167 155.676 152.593 156.336C153.018 156.996 153.539 157.326 154.155 157.326C154.771 157.326 155.291 156.996 155.717 156.336C156.142 155.676 156.355 154.664 156.355 153.3C156.355 151.951 156.142 150.946 155.717 150.286C155.291 149.626 154.771 149.296 154.155 149.296C153.539 149.296 153.018 149.626 152.593 150.286C152.167 150.946 151.955 151.951 151.955 153.3ZM161.305 153.3C161.305 155.823 160.652 157.795 159.347 159.218C158.041 160.626 156.311 161.33 154.155 161.33C151.999 161.33 150.268 160.626 148.963 159.218C147.657 157.795 147.005 155.823 147.005 153.3C147.005 150.792 147.657 148.827 148.963 147.404C150.268 145.981 151.999 145.27 154.155 145.27C156.311 145.27 158.041 145.981 159.347 147.404C160.652 148.827 161.305 150.792 161.305 153.3ZM183.645 145.6L174.845 161H170.445L179.245 145.6H183.645ZM171.259 148.13C170.79 148.13 170.555 148.607 170.555 149.56C170.555 150.513 170.79 150.99 171.259 150.99C171.743 150.99 171.985 150.513 171.985 149.56C171.985 148.607 171.743 148.13 171.259 148.13ZM174.207 146.48C174.926 147.213 175.285 148.24 175.285 149.56C175.285 150.88 174.926 151.907 174.207 152.64C173.488 153.373 172.506 153.74 171.259 153.74C170.012 153.74 169.03 153.373 168.311 152.64C167.607 151.892 167.255 150.865 167.255 149.56C167.255 148.255 167.607 147.235 168.311 146.502C169.03 145.754 170.012 145.38 171.259 145.38C172.506 145.38 173.488 145.747 174.207 146.48ZM182.809 155.61C182.34 155.61 182.105 156.087 182.105 157.04C182.105 157.993 182.34 158.47 182.809 158.47C183.293 158.47 183.535 157.993 183.535 157.04C183.535 156.087 183.293 155.61 182.809 155.61ZM185.757 153.96C186.476 154.693 186.835 155.72 186.835 157.04C186.835 158.36 186.476 159.387 185.757 160.12C185.038 160.853 184.056 161.22 182.809 161.22C181.562 161.22 180.58 160.853 179.861 160.12C179.157 159.372 178.805 158.345 178.805 157.04C178.805 155.735 179.157 154.715 179.861 153.982C180.58 153.234 181.562 152.86 182.809 152.86C184.056 152.86 185.038 153.227 185.757 153.96Z" fill="white"/>
<path d="M148.549 100.927C148.848 100.006 150.152 100.006 150.451 100.927L152.755 108.019C152.889 108.431 153.273 108.71 153.707 108.71H161.164C162.132 108.71 162.535 109.95 161.751 110.519L155.718 114.902C155.368 115.157 155.221 115.608 155.355 116.021L157.66 123.113C157.959 124.034 156.904 124.8 156.121 124.231L150.088 119.848C149.737 119.593 149.263 119.593 148.912 119.848L142.879 124.231C142.096 124.8 141.041 124.034 141.34 123.113L143.645 116.021C143.779 115.608 143.632 115.157 143.282 114.902L137.249 110.519C136.465 109.95 136.868 108.71 137.836 108.71H145.293C145.727 108.71 146.111 108.431 146.245 108.019L148.549 100.927Z" fill="white"/>
<path d="M179.049 117.927C179.348 117.006 180.652 117.006 180.951 117.927L182.245 121.91C182.379 122.322 182.763 122.601 183.196 122.601H187.384C188.353 122.601 188.755 123.84 187.972 124.41L184.584 126.871C184.233 127.126 184.087 127.577 184.22 127.989L185.515 131.972C185.814 132.893 184.759 133.66 183.976 133.09L180.588 130.629C180.237 130.374 179.763 130.374 179.412 130.629L176.024 133.09C175.241 133.66 174.186 132.893 174.485 131.972L175.78 127.989C175.913 127.577 175.767 127.126 175.416 126.871L172.028 124.41C171.245 123.84 171.647 122.601 172.616 122.601H176.804C177.237 122.601 177.621 122.322 177.755 121.91L179.049 117.927Z" fill="white"/>
<path d="M117.049 117.927C117.348 117.006 118.652 117.006 118.951 117.927L120.245 121.91C120.379 122.322 120.763 122.601 121.196 122.601H125.384C126.353 122.601 126.755 123.84 125.972 124.41L122.584 126.871C122.233 127.126 122.087 127.577 122.22 127.989L123.515 131.972C123.814 132.893 122.759 133.66 121.976 133.09L118.588 130.629C118.237 130.374 117.763 130.374 117.412 130.629L114.024 133.09C113.241 133.66 112.186 132.893 112.485 131.972L113.78 127.989C113.913 127.577 113.767 127.126 113.416 126.871L110.028 124.41C109.245 123.84 109.647 122.601 110.616 122.601H114.804C115.237 122.601 115.621 122.322 115.755 121.91L117.049 117.927Z" fill="white"/>
<path d="M191.931 186.591C215.717 162.867 215.717 124.404 191.931 100.681C168.145 76.9571 129.58 76.9571 105.794 100.681C82.0074 124.404 82.0074 162.867 105.794 186.591C129.58 210.314 168.145 210.314 191.931 186.591Z" stroke="white" stroke-width="3" stroke-miterlimit="10"/>
<path d="M112.095 266.809C111.03 266.216 110.306 265.486 109.922 264.617C109.518 263.759 109.465 262.784 109.765 261.691C110.166 260.228 111.015 259.246 112.31 258.743C113.59 258.236 115.249 258.268 117.287 258.839L124.991 260.996L120.363 277.873L113.117 275.844C111.271 275.327 109.938 274.547 109.118 273.504C108.278 272.473 108.049 271.258 108.433 269.859C108.684 268.943 109.13 268.229 109.772 267.716C110.398 267.199 111.172 266.897 112.095 266.809ZM120.016 269.78L115.321 268.465C114.15 268.137 113.195 268.121 112.457 268.416C111.704 268.707 111.203 269.302 110.957 270.203C110.71 271.103 110.835 271.873 111.333 272.515C111.827 273.172 112.652 273.663 113.807 273.986L118.502 275.301L120.016 269.78ZM116.813 260.757C114.229 260.033 112.673 260.636 112.144 262.565C111.879 263.529 112.014 264.329 112.549 264.963C113.063 265.609 113.962 266.112 115.246 266.471L120.518 267.947L122.085 262.233L116.813 260.757Z" fill="white"/>
<path d="M99.2356 261.096C97.7363 260.367 96.7452 259.474 96.2624 258.415C95.7796 257.357 95.8257 256.208 96.4007 254.968C97.0037 253.668 97.9068 252.869 99.1101 252.572C100.291 252.283 101.684 252.528 103.289 253.306L108.317 255.715L102.742 267.735L100.573 266.708L102.456 262.648L99.2356 261.096ZM90.9029 262.129L88.7338 261.101L94.3083 249.081L96.4774 250.108L90.9029 262.129ZM102.679 255.037C101.707 254.558 100.878 254.405 100.192 254.578C99.49 254.743 98.9535 255.227 98.5819 256.028C98.2172 256.815 98.1993 257.507 98.5281 258.105C98.8569 258.703 99.5149 259.245 100.502 259.731L103.192 261.061L105.38 256.343L102.679 255.037Z" fill="white"/>
<path d="M86.2876 243.243C87.4037 244.002 88.2409 244.925 88.7992 246.01C89.3437 247.086 89.5821 248.216 89.5143 249.4C89.4372 250.597 89.0382 251.737 88.3172 252.819C87.5962 253.9 86.7058 254.695 85.6459 255.204C84.5768 255.726 83.4511 255.928 82.2687 255.808C81.0634 255.694 79.9027 255.257 78.7866 254.497C77.7946 253.822 77.0468 253.021 76.5432 252.093C76.0259 251.157 75.8079 250.162 75.8891 249.108L78.0495 249.157C78.0428 249.919 78.2065 250.605 78.5406 251.215C78.8748 251.825 79.3519 252.342 79.972 252.764C80.6884 253.251 81.4423 253.533 82.2336 253.607C83.0112 253.673 83.764 253.52 84.4921 253.149C85.1973 252.782 85.804 252.217 86.3124 251.454C86.83 250.678 87.1291 249.883 87.2097 249.071C87.2672 248.264 87.1198 247.508 86.7675 246.805C86.4014 246.092 85.8601 245.492 85.1436 245.004C84.5236 244.582 83.8709 244.33 83.1854 244.246C82.5 244.163 81.8094 244.267 81.1137 244.56L80.2428 242.576C81.1783 242.104 82.1774 241.927 83.2401 242.046C84.2797 242.169 85.2956 242.568 86.2876 243.243Z" fill="white"/>
<path d="M74.8432 233.863C75.8165 234.75 76.497 235.764 76.8847 236.907C77.2725 238.049 77.3497 239.202 77.1163 240.364C76.8595 241.528 76.2983 242.595 75.4327 243.565C74.5672 244.535 73.5804 245.203 72.4723 245.569C71.3408 245.936 70.1983 245.977 69.0449 245.692C67.8804 245.42 66.8115 244.841 65.8382 243.954C64.865 243.068 64.1906 242.059 63.8152 240.927C63.4164 239.797 63.3454 238.65 63.6022 237.487C63.8356 236.324 64.385 235.258 65.2506 234.288C66.1161 233.318 67.1146 232.649 68.2461 232.282C69.3542 231.917 70.4905 231.87 71.6551 232.142C72.8073 232.402 73.87 232.976 74.8432 233.863ZM73.445 235.43C72.8167 234.857 72.1286 234.49 71.3806 234.327C70.6092 234.165 69.8487 234.216 69.0993 234.48C68.3388 234.757 67.6534 235.237 67.0431 235.921C66.4328 236.605 66.0362 237.337 65.8535 238.117C65.6597 238.91 65.6878 239.68 65.9376 240.426C66.1752 241.161 66.6081 241.815 67.2364 242.387C67.8647 242.96 68.559 243.333 69.3194 243.508C70.0674 243.671 70.8278 243.619 71.6006 243.354C72.35 243.09 73.0299 242.616 73.6402 241.932C74.2506 241.248 74.6526 240.51 74.8464 239.717C75.0168 238.925 74.9888 238.155 74.7623 237.408C74.5124 236.662 74.0733 236.002 73.445 235.43Z" fill="white"/>
<path d="M59.5878 225.848L61.3401 227.967L65.6191 224.354L67.1484 226.204L57.024 234.752L55.4947 232.902L59.7737 229.289L57.9895 227.131L50.9705 227.43L49.3297 225.445L57.4029 225.206L59.2312 216.628L61.0313 218.805L59.5878 225.848Z" fill="white"/>
<path d="M55.177 209.438C55.8655 210.561 56.2371 211.724 56.2919 212.929C56.3466 214.133 56.1001 215.261 55.5523 216.312C54.9816 217.358 54.1454 218.226 53.0437 218.916C51.9421 219.606 50.8079 219.973 49.6413 220.015C48.4518 220.052 47.3425 219.774 46.3132 219.18C45.2697 218.594 44.4038 217.741 43.7152 216.618C43.0267 215.496 42.6594 214.34 42.6134 213.149C42.5445 211.953 42.7954 210.833 43.3661 209.787C43.9139 208.736 44.7387 207.865 45.8403 207.175C46.942 206.485 48.0876 206.121 49.2771 206.084C50.4437 206.041 51.5487 206.313 52.5921 206.898C53.6268 207.469 54.4885 208.316 55.177 209.438ZM53.3973 210.553C52.9528 209.829 52.3939 209.284 51.7204 208.919C51.0241 208.549 50.2791 208.386 49.4854 208.431C48.6776 208.485 47.8853 208.755 47.1085 209.242C46.3316 209.728 45.7468 210.321 45.3541 211.019C44.9472 211.727 44.76 212.473 44.7925 213.259C44.8162 214.031 45.0504 214.779 45.4949 215.503C45.9394 216.228 46.5027 216.78 47.1849 217.159C47.8584 217.523 48.6034 217.686 49.4199 217.647C50.2136 217.602 50.9988 217.336 51.7756 216.849C52.5525 216.363 53.1443 215.766 53.5512 215.059C53.9352 214.346 54.1224 213.599 54.1128 212.819C54.0803 212.033 53.8418 211.278 53.3973 210.553Z" fill="white"/>
<path d="M39.151 191.582C39.3188 191.508 39.5466 191.426 39.8344 191.336L44.0873 201.209C45.0959 200.601 45.7568 199.755 46.0699 198.671C46.3612 197.578 46.2497 196.434 45.7354 195.24C45.109 193.786 44.1164 192.83 42.7576 192.372L43.6522 190.531C44.5303 190.8 45.3152 191.274 46.0069 191.953C46.692 192.616 47.2522 193.453 47.6873 194.464C48.2412 195.749 48.4731 197.004 48.383 198.227C48.2776 199.457 47.8706 200.555 47.1621 201.522C46.447 202.474 45.4945 203.212 44.3045 203.735C43.1298 204.252 41.9574 204.458 40.7873 204.354C39.6107 204.234 38.5652 203.829 37.6509 203.139C36.7147 202.44 35.996 201.509 35.4949 200.345C34.9938 199.182 34.8157 198.031 34.9607 196.893C35.0837 195.747 35.5094 194.713 36.2377 193.792C36.9594 192.855 37.9305 192.119 39.151 191.582ZM37.3485 199.53C37.8035 200.586 38.5063 201.333 39.457 201.771C40.401 202.193 41.4182 202.237 42.5083 201.903L39.1456 194.097C38.1761 194.669 37.526 195.456 37.1952 196.457C36.8425 197.449 36.8936 198.474 37.3485 199.53Z" fill="white"/>
<path d="M34.0479 163.106L34.3512 165.84L39.9156 165.209L40.1803 167.594L27.0146 169.086L26.7499 166.701L32.3143 166.07L32.0054 163.288L25.9668 159.644L25.6828 157.085L32.5715 161.362L38.81 155.245L39.1215 158.053L34.0479 163.106Z" fill="white"/>
<path d="M25.7652 147.553C25.8063 145.72 26.2876 144.331 27.209 143.385C28.1308 142.422 29.4832 141.962 31.266 142.002L39.2639 142.186L39.2129 144.46L37.4634 144.42C38.0709 144.834 38.5329 145.42 38.8493 146.177C39.1495 146.918 39.2881 147.796 39.2653 148.812C39.2321 150.295 38.8471 151.479 38.1104 152.362C37.3741 153.229 36.4228 153.649 35.2565 153.622C34.0901 153.595 33.1665 153.149 32.4858 152.283C31.7884 151.417 31.4604 150.059 31.5019 148.209L31.5871 144.41L31.1122 144.4C30.0792 144.376 29.281 144.658 28.7177 145.245C28.1544 145.832 27.8596 146.709 27.8335 147.875C27.8159 148.659 27.932 149.428 28.1818 150.184C28.4149 150.94 28.7423 151.581 29.1639 152.107L27.342 153.066C26.8074 152.37 26.4092 151.544 26.1472 150.588C25.8686 149.631 25.7413 148.619 25.7652 147.553ZM37.4248 148.37C37.4453 147.454 37.2631 146.658 36.8782 145.982C36.4766 145.306 35.9042 144.809 35.1612 144.492L33.3117 144.45L33.2287 148.149C33.1831 150.182 33.8434 151.214 35.2097 151.245C35.8762 151.26 36.4069 151.014 36.8017 150.506C37.1965 149.999 37.4042 149.287 37.4248 148.37Z" fill="white"/>
<path d="M28.4498 124.992L41.5263 127.13L41.147 129.499L35.8671 128.636C36.2985 130.159 36.4022 131.62 36.1783 133.019C35.9175 134.648 35.3377 135.845 34.4388 136.61C33.54 137.375 32.3339 137.634 30.8206 137.387L26.577 136.693L26.9563 134.324L31.0519 134.993C31.9566 135.141 32.684 134.973 33.2341 134.488C33.7868 133.988 34.1449 133.227 34.3082 132.207C34.4926 131.055 34.4036 129.765 34.0413 128.338L28.0705 127.362L28.4498 124.992Z" fill="white"/>
<path d="M40.1344 108.644C40.3093 108.699 40.535 108.787 40.8114 108.909L37.6505 119.184C38.8077 119.39 39.8555 119.186 40.7941 118.573C41.7216 117.938 42.3765 117 42.7588 115.757C43.2243 114.244 43.0904 112.865 42.357 111.622L44.2254 110.82C44.7168 111.603 45.0051 112.48 45.0902 113.45C45.1803 114.404 45.0636 115.407 44.7402 116.458C44.3286 117.796 43.6931 118.898 42.834 119.764C41.9589 120.624 40.9403 121.186 39.778 121.45C38.6206 121.698 37.4218 121.627 36.1816 121.238C34.9572 120.853 33.9355 120.235 33.1162 119.384C32.3019 118.517 31.7715 117.52 31.5249 116.395C31.2673 115.248 31.3247 114.069 31.6972 112.859C32.0696 111.648 32.6787 110.66 33.5243 109.895C34.359 109.109 35.3501 108.608 36.4977 108.392C37.6501 108.16 38.8624 108.244 40.1344 108.644ZM33.6291 113.466C33.291 114.565 33.3406 115.594 33.7781 116.552C34.2205 117.495 34.9628 118.2 36.0048 118.667L38.5041 110.542C37.3996 110.335 36.3982 110.501 35.5001 111.04C34.5909 111.558 33.9672 112.366 33.6291 113.466Z" fill="white"/>
<path d="M50.5849 101.919C50.0159 103.143 49.2432 104.114 48.2666 104.831C47.297 105.533 46.2266 105.938 45.0552 106.046C43.8688 106.147 42.6883 105.919 41.5139 105.362C40.3394 104.804 39.4194 104.036 38.7538 103.056C38.0732 102.068 37.6982 100.977 37.6288 99.7822C37.5514 98.5648 37.7971 97.344 38.3661 96.1198C38.8719 95.0315 39.5398 94.1679 40.3699 93.5287C41.2069 92.8745 42.1484 92.5096 43.1943 92.434L43.4866 94.5928C42.7388 94.6991 42.092 94.964 41.546 95.3874C41 95.8109 40.5689 96.3627 40.2528 97.0428C39.8875 97.8287 39.7305 98.6213 39.7818 99.4204C39.8401 100.204 40.1087 100.931 40.5875 101.601C41.0584 102.249 41.7078 102.77 42.536 103.163C43.3792 103.563 44.2053 103.743 45.0143 103.702C45.8153 103.64 46.5329 103.381 47.1673 102.925C47.8086 102.455 48.3119 101.827 48.6772 101.041C48.9933 100.361 49.1383 99.6732 49.1121 98.9782C49.086 98.2832 48.8746 97.611 48.478 96.9616L50.2862 95.7997C50.8966 96.6613 51.2274 97.63 51.2787 98.7059C51.322 99.7595 51.0907 100.83 50.5849 101.919Z" fill="white"/>
<path d="M50.7176 79.2518L48.1332 83.3559L57.5118 89.3861L56.233 91.417L46.8544 85.3867L44.27 89.4908L42.5036 88.3551L48.9512 78.116L50.7176 79.2518Z" fill="white"/>
<path d="M62.8475 71.0809C64.2742 70.0398 65.6425 70.074 66.9523 71.1836C67.8425 71.9377 68.2473 72.8593 68.1665 73.9485C68.0964 75.0249 67.508 76.2301 66.4013 77.5641L62.331 82.4705L52.2208 73.9063L56.1475 69.173C57.1478 67.9673 58.1588 67.2184 59.1806 66.9264C60.1897 66.6236 61.1076 66.8223 61.9342 67.5225C62.4683 67.9749 62.8101 68.5157 62.9596 69.1446C63.107 69.75 63.0696 70.3954 62.8475 71.0809ZM58.0705 75.7819L60.3691 73.0112C60.9543 72.3057 61.2688 71.6657 61.3124 71.091C61.3667 70.5036 61.1522 70.0052 60.6689 69.5958C59.7024 68.7771 58.6232 69.0861 57.4314 70.5227L55.1328 73.2934L58.0705 75.7819ZM64.878 76.5031C65.5165 75.7334 65.8745 75.0539 65.9521 74.4644C66.0297 73.8749 65.8142 73.3647 65.3055 72.9338C64.7841 72.4921 64.2473 72.3431 63.6949 72.4868C63.1533 72.6177 62.5685 73.0615 61.9407 73.8183L59.3867 76.8969L62.4198 79.4661L64.878 76.5031Z" fill="white"/>
<path d="M77.0598 66.9848C76.0821 67.8667 75.0103 68.4407 73.8444 68.7068C72.6786 68.9729 71.5363 68.9259 70.4177 68.5658C69.3004 68.1821 68.3115 67.503 67.4508 66.5288C66.5901 65.5545 66.0398 64.491 65.7999 63.3383C65.5613 62.162 65.6443 61.0099 66.0488 59.8819C66.4423 58.7414 67.1279 57.7303 68.1056 56.8484C69.0833 55.9665 70.1489 55.3981 71.3024 55.1432C72.4572 54.8646 73.5933 54.9172 74.7106 55.3009C75.8292 55.661 76.8188 56.3282 77.6795 57.3025C78.5402 58.2768 79.0898 59.3521 79.3284 60.5284C79.5683 61.681 79.4915 62.8276 79.098 63.9681C78.7169 65.0974 78.0375 66.1029 77.0598 66.9848ZM75.6695 65.411C76.3007 64.8416 76.7369 64.1901 76.9781 63.4563C77.2207 62.6988 77.2526 61.9294 77.0739 61.148C76.884 60.3541 76.4857 59.6137 75.8788 58.9267C75.2719 58.2397 74.5944 57.7623 73.8464 57.4944C73.0872 57.214 72.3271 57.159 71.5659 57.3294C70.8171 57.4887 70.1271 57.8529 69.4959 58.4223C68.8647 58.9916 68.4223 59.6487 68.1687 60.3937C67.9274 61.1275 67.8955 61.8969 68.073 62.702C68.2518 63.4833 68.6446 64.2175 69.2515 64.9045C69.8584 65.5915 70.5414 66.0752 71.3005 66.3556C72.0609 66.6123 72.8211 66.6673 73.581 66.5205C74.3422 66.3501 75.0383 65.9803 75.6695 65.411Z" fill="white"/>
<path d="M106.521 33.5176L111.874 45.6381L109.686 46.6247L105.181 36.4253L98.3671 39.4983L102.872 49.6978L100.684 50.6845L95.3308 38.564L106.521 33.5176Z" fill="white"/>
<path d="M121.398 43.0227C120.131 43.3799 118.914 43.4198 117.748 43.1423C116.583 42.8648 115.576 42.3175 114.728 41.5002C113.891 40.6624 113.3 39.6169 112.954 38.3638C112.608 37.1107 112.581 35.915 112.872 34.7767C113.174 33.6178 113.755 32.6229 114.615 31.7918C115.471 30.9446 116.532 30.3425 117.799 29.9853C119.067 29.6281 120.275 29.5905 121.425 29.8724C122.586 30.1338 123.585 30.6834 124.422 31.5213C125.27 32.3385 125.867 33.3737 126.213 34.6269C126.558 35.88 126.58 37.086 126.278 38.2448C125.987 39.3831 125.413 40.3758 124.558 41.223C123.719 42.0656 122.665 42.6655 121.398 43.0227ZM120.839 40.9984C121.657 40.7678 122.336 40.3773 122.876 39.827C123.427 39.256 123.794 38.5811 123.977 37.8024C124.155 37.0076 124.122 36.1683 123.879 35.2847C123.635 34.4011 123.235 33.6739 122.68 33.1031C122.12 32.5163 121.46 32.1308 120.701 31.9467C119.957 31.758 119.176 31.779 118.358 32.0096C117.54 32.2402 116.853 32.6329 116.297 33.1878C115.758 33.7382 115.391 34.413 115.196 35.2124C115.014 35.9911 115.044 36.8223 115.288 37.7059C115.532 38.5896 115.934 39.3248 116.494 39.9116C117.065 40.4779 117.724 40.8634 118.473 41.0681C119.232 41.2522 120.021 41.229 120.839 40.9984Z" fill="white"/>
<path d="M150.22 25.7226L152.618 25.8203L152.394 31.4408L159.938 31.7482L160.162 26.1276L162.56 26.2253L162.032 39.4648L159.634 39.3671L159.855 33.8215L152.311 33.5142L152.09 39.0597L149.692 38.962L150.22 25.7226Z" fill="white"/>
<path d="M172.38 41.5144C171.088 41.2614 169.982 40.7476 169.061 39.9729C168.141 39.1982 167.482 38.254 167.084 37.1402C166.706 36.0133 166.64 34.8114 166.885 33.5347C167.13 32.258 167.634 31.1764 168.398 30.29C169.181 29.3905 170.142 28.7634 171.279 28.4086C172.419 28.0375 173.635 27.9785 174.928 28.2315C176.22 28.4845 177.318 28.9968 178.222 29.7683C179.146 30.5266 179.797 31.4692 180.174 32.5961C180.572 33.7099 180.648 34.9052 180.403 36.1819C180.158 37.4586 179.644 38.5468 178.861 39.4463C178.097 40.3327 177.145 40.9614 176.004 41.3325C174.88 41.7068 173.672 41.7675 172.38 41.5144ZM172.776 39.452C173.61 39.6154 174.39 39.5729 175.117 39.3245C175.863 39.063 176.49 38.6253 176.998 38.0115C177.509 37.3813 177.851 36.6161 178.023 35.7159C178.196 34.8156 178.16 33.9849 177.916 33.2238C177.675 32.4463 177.255 31.8036 176.656 31.2958C176.074 30.7912 175.366 30.4573 174.532 30.2939C173.698 30.1306 172.909 30.1715 172.167 30.4166C171.44 30.665 170.813 31.1026 170.286 31.7296C169.778 32.3434 169.437 33.1005 169.265 34.0007C169.092 34.901 169.126 35.7399 169.367 36.5174C169.628 37.2817 170.048 37.9244 170.627 38.4453C171.225 38.9531 171.942 39.2887 172.776 39.452Z" fill="white"/>
<path d="M193.617 40.5297C195.094 41.5103 195.552 42.8118 194.992 44.4344C194.611 45.5372 193.901 46.2409 192.861 46.5458C191.837 46.8561 190.507 46.723 188.873 46.1465L182.861 44.026L187.187 31.5021L192.987 33.5477C194.464 34.0688 195.521 34.7599 196.158 35.6208C196.801 36.466 196.946 37.4006 196.592 38.4245C196.363 39.0862 195.984 39.5974 195.454 39.9583C194.945 40.3089 194.332 40.4994 193.617 40.5297ZM187.542 37.6714L190.937 38.8689C191.801 39.1738 192.508 39.2463 193.057 39.0864C193.622 38.9321 194.007 38.5557 194.214 37.957C194.628 36.7598 193.954 35.8507 192.194 35.2298L188.799 34.0324L187.542 37.6714ZM189.312 44.3397C190.255 44.6723 191.014 44.7721 191.589 44.6391C192.164 44.5061 192.56 44.1245 192.778 43.4944C193.001 42.8485 192.947 42.2904 192.615 41.8201C192.3 41.3554 191.678 40.9595 190.751 40.6324L186.979 39.3019L185.681 43.0591L189.312 44.3397Z" fill="white"/>
<path d="M211.06 49.4872C210.976 49.6504 210.852 49.8579 210.685 50.1096L201.156 45.1346C200.758 46.2428 200.78 47.3165 201.222 48.3557C201.686 49.3877 202.495 50.2046 203.647 50.8062C205.051 51.5389 206.424 51.6541 207.766 51.1517L208.235 53.145C207.384 53.4906 206.477 53.6184 205.512 53.5284C204.562 53.446 203.6 53.1503 202.624 52.6413C201.383 51.9934 200.412 51.1665 199.709 50.1606C199.015 49.1399 198.636 48.0306 198.575 46.8329C198.528 45.6429 198.801 44.4691 199.393 43.3116C199.977 42.169 200.755 41.2688 201.728 40.6109C202.715 39.9608 203.781 39.6149 204.926 39.5732C206.093 39.5243 207.237 39.7929 208.36 40.3791C209.483 40.9653 210.348 41.7456 210.954 42.7201C211.582 43.6874 211.905 44.7584 211.922 45.933C211.954 47.1153 211.667 48.3 211.06 49.4872ZM207.438 42.1821C206.419 41.6499 205.403 41.5142 204.39 41.7749C203.391 42.0434 202.575 42.6513 201.941 43.5987L209.476 47.5324C209.866 46.4764 209.873 45.4556 209.498 44.4698C209.144 43.4769 208.458 42.7143 207.438 42.1821Z" fill="white"/>
<path d="M218.786 46.7102L220.725 48.1234L215.121 55.9791L227.293 52.9074L229.051 54.1881L221.355 64.9744L219.415 63.5613L225.02 55.7056L212.868 58.7919L211.09 57.4965L218.786 46.7102ZM224.799 48.9566C223.802 48.2304 223.197 47.4287 222.983 46.5515C222.779 45.6607 222.995 44.7558 223.63 43.837L224.943 44.7938C224.599 45.3056 224.477 45.8353 224.577 46.3829C224.701 46.9267 225.039 47.3998 225.592 47.8022C226.144 48.2045 226.695 48.3791 227.245 48.326C227.804 48.2593 228.27 47.9798 228.641 47.4876L229.995 48.4739C229.333 49.3731 228.545 49.8608 227.631 49.9371C226.726 49.9998 225.782 49.673 224.799 48.9566Z" fill="white"/>
<path d="M247.157 72.2565L237.707 81.5444L224.617 67.9456L234.067 58.6578L235.731 60.3869L227.779 68.2027L231.836 72.4174L239.788 64.6016L241.453 66.3307L233.501 74.1465L237.54 78.3432L245.492 70.5274L247.157 72.2565Z" fill="white"/>
<path d="M250.061 76.8211L251.401 78.8125L243.446 84.2755L255.935 85.5545L257.149 87.3593L246.226 94.8602L244.887 92.8688L252.842 87.4058L240.367 86.1475L239.139 84.322L250.061 76.8211Z" fill="white"/>
<path d="M266.656 107.16L254.666 112.8L253.756 110.825L262.511 106.706L253.042 105.691L252.603 104.737L257.972 96.7961L249.195 100.925L248.274 98.9272L260.264 93.2867L261.3 95.5346L255.377 104.067L265.714 105.117L266.656 107.16Z" fill="white"/>
<path d="M271.996 142.346L271.374 137.536L260.32 138.997L260.012 136.617L271.065 135.156L270.442 130.346L272.524 130.07L274.078 142.07L271.996 142.346Z" fill="white"/>
<path d="M267.523 159.409C267.34 159.408 267.098 159.392 266.798 159.358L266.807 148.608C265.64 148.757 264.698 149.265 263.981 150.131C263.28 151.013 262.929 152.105 262.928 153.405C262.927 154.988 263.459 156.263 264.525 157.231L262.974 158.555C262.274 157.954 261.741 157.204 261.376 156.303C261.01 155.42 260.827 154.428 260.828 153.328C260.829 151.928 261.114 150.686 261.681 149.604C262.265 148.521 263.074 147.68 264.108 147.081C265.142 146.498 266.309 146.208 267.609 146.209C268.892 146.21 270.05 146.494 271.083 147.062C272.116 147.646 272.915 148.438 273.481 149.439C274.064 150.456 274.354 151.598 274.353 152.864C274.352 154.131 274.06 155.256 273.476 156.239C272.908 157.238 272.107 158.013 271.074 158.562C270.04 159.127 268.856 159.41 267.523 159.409ZM272.328 152.863C272.329 151.713 271.98 150.746 271.281 149.962C270.581 149.195 269.665 148.744 268.532 148.609L268.525 157.109C269.642 156.977 270.55 156.52 271.251 155.737C271.968 154.971 272.327 154.013 272.328 152.863Z" fill="white"/>
<path d="M259.308 171.476L264.846 168.377L260.335 163.845L260.692 161.194L266.706 167.295L273.785 163.246L273.428 165.897L268.211 168.864L272.458 173.107L272.107 175.709L266.36 169.872L258.944 174.177L259.308 171.476Z" fill="white"/>
<path d="M270.852 180.946L270.203 183.257L264.796 181.708L262.757 188.978L268.164 190.527L267.516 192.837L254.778 189.189L255.426 186.878L260.762 188.406L262.801 181.137L257.466 179.609L258.114 177.298L270.852 180.946Z" fill="white"/>
<path d="M250.417 198.934C250.958 197.733 251.709 196.776 252.67 196.063C253.632 195.35 254.697 194.932 255.867 194.81C257.046 194.71 258.225 194.932 259.406 195.475C260.587 196.019 261.52 196.769 262.204 197.726C262.896 198.705 263.284 199.791 263.367 200.985C263.465 202.187 263.244 203.387 262.703 204.588C262.162 205.788 261.415 206.737 260.46 207.436C259.514 208.156 258.452 208.566 257.273 208.666C256.103 208.788 254.928 208.577 253.747 208.034C252.566 207.49 251.629 206.729 250.937 205.75C250.253 204.793 249.862 203.714 249.763 202.513C249.658 201.327 249.876 200.134 250.417 198.934ZM252.324 199.812C251.975 200.587 251.838 201.358 251.912 202.126C251.995 202.916 252.275 203.632 252.754 204.275C253.247 204.924 253.91 205.44 254.743 205.823C255.576 206.206 256.389 206.369 257.182 206.312C257.991 206.263 258.709 206.006 259.338 205.544C259.961 205.096 260.446 204.485 260.796 203.71C261.145 202.935 261.286 202.156 261.218 201.373C261.144 200.604 260.863 199.888 260.377 199.224C259.898 198.582 259.243 198.069 258.41 197.686C257.577 197.303 256.757 197.136 255.948 197.186C255.148 197.258 254.429 197.514 253.792 197.955C253.163 198.418 252.674 199.037 252.324 199.812Z" fill="white"/>
<path d="M250.554 225.516L239.47 218.256L240.766 216.236L250.093 222.345L253.171 217.547L250.784 215.805C249.337 214.758 248.175 213.807 247.297 212.953C246.433 212.108 245.846 211.265 245.534 210.423C245.223 209.582 245.323 208.761 245.836 207.962C246.07 207.597 246.398 207.224 246.821 206.843L248.434 208.079C248.275 208.234 248.146 208.389 248.047 208.543C247.687 209.104 247.661 209.685 247.969 210.285C248.277 210.885 248.739 211.447 249.354 211.969C249.969 212.492 250.875 213.194 252.071 214.077L256.048 216.951L250.554 225.516Z" fill="white"/>
<path d="M232.41 226.479C233.275 225.487 234.271 224.789 235.397 224.386C236.523 223.984 237.663 223.894 238.817 224.119C239.972 224.367 241.034 224.924 242.005 225.789C242.975 226.654 243.648 227.644 244.023 228.76C244.4 229.9 244.455 231.054 244.187 232.222C243.932 233.401 243.372 234.486 242.506 235.478C241.64 236.47 240.649 237.161 239.534 237.551C238.421 237.965 237.287 238.048 236.132 237.8C234.978 237.576 233.916 237.031 232.946 236.166C231.975 235.301 231.302 234.298 230.925 233.159C230.55 232.043 230.489 230.895 230.745 229.716C230.989 228.55 231.544 227.47 232.41 226.479ZM233.977 227.876C233.418 228.516 233.063 229.215 232.91 229.972C232.759 230.753 232.819 231.521 233.09 232.276C233.373 233.041 233.856 233.729 234.54 234.339C235.225 234.949 235.954 235.342 236.729 235.519C237.516 235.708 238.277 235.672 239.013 235.412C239.737 235.165 240.379 234.721 240.938 234.081C241.497 233.44 241.858 232.735 242.021 231.966C242.174 231.208 242.114 230.44 241.842 229.662C241.572 228.908 241.094 228.225 240.41 227.616C239.726 227.006 238.99 226.607 238.203 226.418C237.417 226.254 236.656 226.29 235.919 226.526C235.183 226.786 234.536 227.236 233.977 227.876Z" fill="white"/>
<path d="M224.819 249.298L230.351 244.459L223.096 235.992L224.902 234.411L233.523 244.473L226.185 250.893L224.819 249.298Z" fill="white"/>
<path d="M221.766 254.093L219.759 255.41L214.543 247.292L212.966 259.867L211.148 261.06L203.985 249.914L205.991 248.597L211.208 256.715L212.764 244.153L214.603 242.946L221.766 254.093Z" fill="white"/>
<path d="M195.658 268.443L190.204 256.368L192.157 255.467L193.886 259.295L197.382 257.683L197.631 257.568L198.536 252.525L200.874 251.447L199.808 256.921C200.84 256.776 201.739 256.903 202.504 257.302C203.277 257.717 203.876 258.395 204.301 259.337C204.925 260.719 204.929 261.984 204.313 263.13C203.704 264.292 202.575 265.253 200.925 266.014L195.658 268.443ZM202.045 260.295C201.682 259.49 201.161 259.005 200.483 258.84C199.797 258.698 198.947 258.86 197.933 259.328L194.596 260.867L196.746 265.629L199.993 264.132C202.081 263.169 202.766 261.889 202.045 260.295Z" fill="white"/>
<path d="M174.344 274.993L170.797 262.226L172.89 261.633L175.479 270.955L178.053 261.727L179.063 261.441L185.972 268.004L183.376 258.658L185.492 258.058L189.039 270.824L186.658 271.5L179.26 264.296L176.508 274.379L174.344 274.993Z" fill="white"/>
</svg>
