<svg width="300" height="300" viewBox="0 0 300 300" fill="none" xmlns="http://www.w3.org/2000/svg">
<circle cx="150.341" cy="150.341" r="149.5" fill="#043480"/>
<path d="M111.164 270.723L116.824 272.713L116.128 274.774L102.473 269.972L103.169 267.912L108.829 269.902L113.734 255.383L116.068 256.204L111.164 270.723Z" fill="white"/>
<path d="M93.8548 260.965C92.2367 260.104 91.206 259.045 90.7628 257.789C90.3049 256.526 90.4821 255.1 91.2945 253.513L94.9389 246.391L96.9468 247.461L96.1496 249.018C96.7836 248.657 97.5075 248.505 98.3213 248.561C99.1128 248.624 99.9572 248.894 100.855 249.372C102.164 250.069 103.052 250.948 103.52 252.01C103.973 253.063 103.934 254.109 103.403 255.147C102.871 256.186 102.071 256.817 101.002 257.04C99.9252 257.279 98.5704 256.963 96.9376 256.094L93.5836 254.307L93.3672 254.73C92.8965 255.65 92.8007 256.496 93.0797 257.267C93.3587 258.039 94.0131 258.699 95.0428 259.248C95.7342 259.616 96.4716 259.858 97.255 259.973C98.0309 260.103 98.7455 260.096 99.3989 259.953L99.4616 262.026C98.6079 262.194 97.6973 262.181 96.7297 261.987C95.7546 261.807 94.7963 261.467 93.8548 260.965ZM99.6587 250.831C98.8496 250.4 98.0598 250.206 97.2892 250.248C96.511 250.306 95.8186 250.598 95.2122 251.125L94.3694 252.772L97.6351 254.511C99.4298 255.467 100.638 255.336 101.261 254.12C101.565 253.526 101.576 252.938 101.294 252.353C101.013 251.769 100.468 251.262 99.6587 250.831ZM94.7389 263.957C95.0478 264.121 95.2594 264.366 95.3738 264.692C95.4805 265.032 95.4504 265.365 95.2834 265.691C95.1163 266.018 94.8656 266.233 94.531 266.338C94.1965 266.444 93.8748 266.414 93.5658 266.249C93.2569 266.085 93.0491 265.832 92.9423 265.492C92.8355 265.152 92.8657 264.819 93.0327 264.493C93.1997 264.166 93.4505 263.95 93.7851 263.845C94.112 263.755 94.4299 263.792 94.7389 263.957ZM90.6347 261.771C90.9436 261.935 91.1553 262.18 91.2696 262.506C91.3764 262.846 91.3463 263.179 91.1792 263.505C91.0122 263.832 90.7614 264.047 90.4269 264.153C90.0923 264.258 89.7706 264.228 89.4617 264.063C89.1528 263.899 88.9449 263.646 88.8382 263.306C88.7314 262.966 88.7615 262.633 88.9286 262.307C89.0956 261.98 89.3464 261.764 89.6809 261.659C90.0079 261.569 90.3258 261.606 90.6347 261.771Z" fill="white"/>
<path d="M80.7632 238.649L81.9062 237.038L90.8346 243.633L89.9375 244.897L78.0151 248.179L84.1885 252.739L83.0455 254.35L74.3987 247.963L75.3102 246.678L87.2181 243.417L80.7632 238.649Z" fill="white"/>
<path d="M64.4414 229.23C64.5685 229.098 64.7478 228.935 64.9793 228.743L72.5767 236.348C73.2794 235.401 73.5729 234.363 73.4572 233.233C73.3182 232.104 72.7893 231.079 71.8705 230.159C70.7515 229.039 69.4807 228.522 68.0581 228.607L68.1962 226.552C69.1055 226.472 70.0052 226.618 70.8954 226.991C71.7739 227.351 72.6018 227.921 73.3792 228.699C74.3686 229.689 75.0498 230.772 75.4226 231.947C75.7838 233.134 75.8183 234.312 75.5261 235.481C75.222 236.639 74.6194 237.686 73.7183 238.623C72.8287 239.548 71.8255 240.182 70.7087 240.526C69.5801 240.858 68.4661 240.875 67.3665 240.576C66.2436 240.277 65.2346 239.679 64.3394 238.783C63.4442 237.887 62.8513 236.881 62.5607 235.765C62.2468 234.649 62.2537 233.524 62.5813 232.39C62.8971 231.244 63.5171 230.191 64.4414 229.23ZM65.7431 237.324C66.5559 238.137 67.4817 238.569 68.5205 238.619C69.5476 238.656 70.501 238.314 71.3809 237.592L65.3737 231.578C64.6938 232.477 64.3881 233.456 64.4565 234.515C64.5015 235.574 64.9304 236.51 65.7431 237.324Z" fill="white"/>
<path d="M43.7543 177.567C44.1416 177.812 44.4894 178.157 44.7977 178.602C45.09 179.052 45.3156 179.54 45.4745 180.066C45.8596 181.343 45.8162 182.439 45.3443 183.356C44.8724 184.273 44.0004 184.931 42.7283 185.331L35.7875 187.51L36.4374 189.664L34.5531 190.256L33.9032 188.102L31.1364 188.971L30.4432 186.673L33.21 185.804L32.1123 182.166L33.9966 181.575L35.0942 185.213L41.9396 183.063C42.6234 182.848 43.0976 182.516 43.3622 182.066C43.622 181.6 43.6556 181.048 43.4631 180.41C43.2513 179.708 42.872 179.172 42.3252 178.802L43.7543 177.567Z" fill="white"/>
<path d="M34.8577 160.775C35.0385 160.745 35.2796 160.722 35.5808 160.706L37.2661 171.323C38.3936 170.985 39.243 170.33 39.8142 169.357C40.3664 168.37 40.5405 167.235 40.3367 165.951C40.0885 164.387 39.3624 163.215 38.1585 162.434L39.4801 160.873C40.2648 161.351 40.9085 162.005 41.4114 162.834C41.9116 163.647 42.248 164.596 42.4204 165.683C42.6399 167.066 42.555 168.338 42.1657 169.5C41.76 170.665 41.0945 171.628 40.169 172.389C39.241 173.134 38.1356 173.612 36.853 173.824C35.5868 174.033 34.3996 173.942 33.2912 173.551C32.1803 173.143 31.2669 172.492 30.551 171.597C29.8161 170.688 29.3493 169.608 29.1508 168.357C28.9522 167.106 29.0636 165.947 29.485 164.881C29.8873 163.801 30.5551 162.905 31.4884 162.193C32.4191 161.465 33.5422 160.992 34.8577 160.775ZM31.1487 168.027C31.329 169.162 31.8258 170.06 32.6393 170.72C33.4501 171.363 34.4251 171.658 35.5641 171.605L34.2316 163.21C33.1508 163.523 32.3264 164.124 31.7586 165.012C31.1717 165.886 30.9684 166.891 31.1487 168.027Z" fill="white"/>
<path d="M27.6632 146.856C27.6701 145.173 28.1672 143.841 29.1545 142.861C30.1253 141.864 31.5523 141.369 33.4357 141.375L41.0606 141.399L41.0508 143.799L33.7008 143.776C32.4175 143.772 31.4496 144.077 30.7971 144.691C30.1446 145.306 29.8159 146.188 29.8112 147.338C29.8059 148.638 30.1851 149.664 30.9487 150.417C31.6956 151.169 32.7774 151.548 34.194 151.552L41.019 151.574L41.0092 153.974L22.4593 153.914L22.4691 151.514L29.6441 151.538C29.0128 151.036 28.5238 150.384 28.177 149.583C27.8304 148.765 27.6591 147.856 27.6632 146.856Z" fill="white"/>
<path d="M29.7833 125.229C30.0712 123.57 30.7831 122.344 31.9189 121.55C33.0412 120.736 34.529 120.497 36.3823 120.832L43.8859 122.188L43.4754 124.552L36.2425 123.245C34.9796 123.017 33.9756 123.149 33.2305 123.641C32.4854 124.133 32.0145 124.946 31.8178 126.079C31.5955 127.36 31.7974 128.438 32.4236 129.313C33.0334 130.185 34.0353 130.747 35.4294 130.999L42.1457 132.213L41.7352 134.577L28.6963 132.222L29.0897 129.955L31.0578 130.311C30.468 129.713 30.0626 128.98 29.8414 128.11C29.6231 127.223 29.6037 126.263 29.7833 125.229Z" fill="white"/>
<path d="M47.7281 110.226C47.2974 111.471 46.636 112.49 45.7437 113.284C44.8515 114.079 43.829 114.587 42.6763 114.81C41.5133 115.011 40.3203 114.891 39.0972 114.45C37.8742 114.01 36.8798 113.342 36.1141 112.446C35.3382 111.529 34.8554 110.478 34.6657 109.294C34.4603 108.104 34.573 106.886 35.0037 105.642C35.4343 104.398 36.093 103.386 36.9798 102.608C37.8564 101.807 38.8762 101.307 40.0391 101.106C41.1919 100.883 42.3798 100.993 43.6028 101.433C44.8259 101.874 45.8254 102.553 46.6013 103.47C47.367 104.366 47.8525 105.409 48.0579 106.599C48.2687 107.773 48.1588 108.982 47.7281 110.226ZM45.7524 109.515C46.0304 108.711 46.0981 107.93 45.9555 107.17C45.8027 106.388 45.4597 105.698 44.9266 105.099C44.3777 104.493 43.672 104.035 42.8096 103.725C41.9472 103.414 41.1241 103.321 40.3401 103.446C39.5405 103.566 38.8486 103.883 38.2644 104.399C37.6857 104.899 37.2574 105.551 36.9793 106.354C36.7013 107.157 36.6309 107.947 36.768 108.722C36.9106 109.482 37.2536 110.173 37.797 110.794C38.3302 111.393 39.028 111.848 39.8904 112.159C40.7528 112.47 41.5838 112.565 42.3835 112.446C43.1729 112.305 43.8648 111.988 44.4591 111.493C45.0433 110.977 45.4744 110.318 45.7524 109.515Z" fill="white"/>
<path d="M35.7022 90.4723L36.7562 88.3161L53.2895 96.7275L52.2355 98.8838L35.7022 90.4723Z" fill="white"/>
<path d="M59.9984 85.3924C59.2806 86.4962 58.394 87.3248 57.3385 87.8781C56.2831 88.4315 55.1708 88.6747 54.0018 88.6079C52.828 88.5178 51.7028 88.1084 50.6262 87.3797C49.5496 86.6511 48.7493 85.7573 48.2254 84.6985C47.6967 83.6163 47.4839 82.4762 47.5869 81.2784C47.6762 80.0711 48.0798 78.9156 48.7975 77.8118C49.5152 76.7079 50.3973 75.8863 51.4437 75.347C52.4854 74.7843 53.5931 74.5481 54.7668 74.6382C55.9359 74.705 57.0587 75.1028 58.1353 75.8314C59.2119 76.56 60.0146 77.4654 60.5433 78.5476C61.0672 79.6065 61.2846 80.7395 61.1953 81.9468C61.1151 83.14 60.7161 84.2886 59.9984 85.3924ZM58.2592 84.2154C58.7226 83.5028 58.9772 82.7596 59.0232 81.9858C59.0644 81.1888 58.8997 80.4334 58.5289 79.7197C58.1444 78.9966 57.5725 78.3782 56.8134 77.8644C56.0542 77.3506 55.2803 77.0582 54.4917 76.9873C53.6892 76.9069 52.943 77.0458 52.253 77.4038C51.5721 77.7479 51 78.2762 50.5366 78.9888C50.0733 79.7014 49.8141 80.4516 49.759 81.2393C49.7131 82.0131 49.8778 82.7685 50.2533 83.5055C50.6241 84.2192 51.189 84.8329 51.9482 85.3467C52.7073 85.8605 53.4881 86.1576 54.2906 86.2379C55.0884 86.2949 55.8346 86.156 56.5293 85.8213C57.2192 85.4633 57.7959 84.928 58.2592 84.2154Z" fill="white"/>
<path d="M65.7471 57.0937L74.0473 64.9809C75.7267 66.5767 76.5774 68.1782 76.5995 69.7852C76.6336 71.4037 75.8809 73.0561 74.3414 74.7424C73.4986 75.6655 72.5683 76.425 71.5504 77.0209C70.5447 77.6283 69.5762 77.9723 68.6452 78.053L68.0794 75.9294C68.8818 75.8413 69.6952 75.5683 70.5195 75.1103C71.3671 74.6515 72.1167 74.0651 72.7685 73.3512C73.8136 72.2065 74.3175 71.1108 74.2803 70.064C74.2544 69.005 73.6978 67.9588 72.6104 66.9256L71.8492 66.2023C71.9625 67.0915 71.8651 67.9644 71.557 68.8209C71.248 69.6536 70.7676 70.4269 70.1159 71.1409C69.2618 72.0763 68.2931 72.7419 67.2098 73.1377C66.1256 73.5096 65.0365 73.5781 63.9425 73.343C62.8364 73.0964 61.8302 72.5426 60.9241 71.6816C60.0179 70.8205 59.4111 69.8417 59.1037 68.745C58.7842 67.6368 58.7738 66.5236 59.0727 65.4054C59.3828 64.2749 59.9648 63.2419 60.8189 62.3065C61.4931 61.5679 62.2497 61.0111 63.0886 60.6359C63.9387 60.2485 64.8089 60.0985 65.6993 60.1859L64.2132 58.7738L65.7471 57.0937ZM68.779 69.4912C69.3633 68.8511 69.7529 68.1525 69.9478 67.3953C70.154 66.6257 70.1507 65.8755 69.938 65.1447C69.7244 64.3901 69.3156 63.7257 68.7115 63.1517C67.7812 62.2677 66.7455 61.8697 65.6046 61.9579C64.4516 62.0346 63.4256 62.5652 62.5266 63.5499C61.6164 64.5469 61.1647 65.6348 61.1715 66.8137C61.1663 67.981 61.6288 69.0067 62.5591 69.8907C63.1632 70.4647 63.8361 70.8398 64.5778 71.0159C65.3187 71.1683 66.0524 71.1184 66.7789 70.8663C67.5167 70.6019 68.1834 70.1435 68.779 69.4912Z" fill="white"/>
<path d="M72.1816 51.4337L74.017 49.8873L82.3536 60.1861L80.5182 61.7324L72.1816 51.4337ZM71.495 48.6785C71.1381 48.9792 70.7442 49.1149 70.3132 49.0858C69.8951 49.0459 69.5497 48.8576 69.277 48.5207C69.0044 48.1839 68.8884 47.8023 68.9291 47.3758C68.972 46.9256 69.1719 46.5502 69.5288 46.2495C69.8857 45.9488 70.2732 45.8184 70.6914 45.8583C71.1118 45.8745 71.4583 46.051 71.731 46.3878C72.0141 46.7376 72.1342 47.1376 72.0913 47.5877C72.0506 48.0142 71.8518 48.3778 71.495 48.6785Z" fill="white"/>
<path d="M90.933 37.8976L93.3824 53.7448C93.633 55.1969 93.5858 56.3665 93.2409 57.2534C92.9098 58.1312 92.2993 58.864 91.4093 59.452C90.8669 59.8103 90.2805 60.0679 89.6498 60.2248C89.042 60.3867 88.4641 60.409 87.916 60.2918L87.8066 58.207C88.7251 58.3792 89.5598 58.2172 90.3108 57.7212C90.7975 57.3996 91.1159 56.9995 91.2661 56.5209C91.4391 56.0471 91.4567 55.4063 91.319 54.5986L91.178 53.5833L79.21 45.6419L81.296 44.2639L90.8352 50.6643L88.9723 39.1929L90.933 37.8976ZM83.2997 36.7391L85.8445 35.0579L84.0817 40.1169L82.2044 41.3571L83.2997 36.7391Z" fill="white"/>
<path d="M100.646 32.9963C102.307 32.2208 103.76 32.0392 105.004 32.4516C106.263 32.8568 107.258 33.8731 107.987 35.5003L111.261 42.7998L109.2 43.7621L108.484 42.1653C108.373 42.8972 108.047 43.5738 107.504 44.1952C106.969 44.7943 106.241 45.3089 105.319 45.7389C103.975 46.3663 102.749 46.5434 101.64 46.2701C100.546 45.9899 99.7607 45.3175 99.2833 44.2529C98.8059 43.1884 98.8091 42.157 99.2929 41.1588C99.7698 40.1454 100.846 39.2474 102.523 38.4649L105.966 36.8576L105.772 36.4242C105.349 35.4813 104.753 34.8858 103.984 34.6378C103.216 34.3897 102.303 34.5124 101.246 35.0059C100.536 35.3372 99.8956 35.7832 99.3251 36.3437C98.7478 36.8891 98.3137 37.4687 98.0229 38.0826L96.3802 36.8632C96.7743 36.0723 97.3438 35.3467 98.0887 34.6864C98.8268 34.0108 99.6791 33.4474 100.646 32.9963ZM104.925 43.8817C105.755 43.4939 106.391 42.9766 106.831 42.3296C107.265 41.6675 107.464 40.9308 107.429 40.1196L106.672 38.4315L103.319 39.9965C101.477 40.8566 100.835 41.9101 101.394 43.1571C101.667 43.7654 102.116 44.1352 102.741 44.2664C103.366 44.3977 104.094 44.2694 104.925 43.8817Z" fill="white"/>
<path d="M111.704 23.0459L113.985 22.3011L119.537 40.0008L117.256 40.7457L111.704 23.0459Z" fill="white"/>
<path d="M128.937 23.8732C130.736 23.5196 132.193 23.6918 133.309 24.3898C134.441 25.0846 135.172 26.3081 135.503 28.0605L136.987 35.9216L134.755 36.3603L134.43 34.6407C134.152 35.3238 133.676 35.9014 133.002 36.3736C132.341 36.8262 131.512 37.1505 130.514 37.3465C129.059 37.6326 127.823 37.5102 126.807 36.9796C125.807 36.4457 125.199 35.6055 124.983 34.4591C124.766 33.3127 125.01 32.3136 125.714 31.4619C126.415 30.5937 127.673 29.9813 129.489 29.6246L133.217 28.8918L133.129 28.425C132.938 27.4096 132.496 26.6896 131.806 26.2648C131.115 25.8401 130.197 25.7402 129.052 25.9652C128.284 26.1162 127.556 26.3951 126.87 26.8017C126.18 27.192 125.622 27.6499 125.195 28.1753L123.88 26.5994C124.449 25.9272 125.173 25.3603 126.052 24.8987C126.929 24.4207 127.89 24.0788 128.937 23.8732ZM130.563 35.4515C131.463 35.2747 132.203 34.9256 132.783 34.4039C133.359 33.866 133.725 33.1995 133.881 32.4047L133.537 30.5868L129.907 31.3003C127.912 31.6924 127.041 32.5599 127.294 33.9029C127.418 34.558 127.769 35.024 128.347 35.3011C128.925 35.5781 129.664 35.6283 130.563 35.4515Z" fill="white"/>
<path d="M144.878 24.2403C145.252 23.451 145.836 22.8333 146.629 22.3873C147.423 21.9413 148.402 21.685 149.566 21.6185L149.694 23.94C149.56 23.9309 149.376 23.9331 149.143 23.9464C147.846 24.0206 146.844 24.4702 146.138 25.2951C145.448 26.1025 145.142 27.2217 145.221 28.6529L145.583 35.243L143.186 35.38L142.46 22.1499L144.756 22.0186L144.878 24.2403Z" fill="white"/>
<path d="M207.093 34.8702C208.245 35.4349 209.157 36.1973 209.829 37.1573C210.5 38.1174 210.874 39.182 210.95 40.3512C211.041 41.5277 210.802 42.7191 210.234 43.9254C209.666 45.1318 208.9 46.0741 207.936 46.7523C206.995 47.4228 205.946 47.7907 204.792 47.856C203.638 47.9214 202.484 47.6717 201.332 47.107C200.449 46.6743 199.722 46.1049 199.152 45.3987C198.582 44.6925 198.214 43.8904 198.047 42.9922L197.153 44.8922L195.087 43.8801L202.989 27.097L205.144 28.153L202.034 34.7577C202.812 34.3591 203.634 34.1774 204.501 34.2128C205.376 34.2331 206.24 34.4522 207.093 34.8702ZM202.047 45.119C202.81 45.493 203.573 45.6533 204.335 45.5998C205.119 45.5386 205.832 45.2757 206.474 44.811C207.139 44.3386 207.666 43.6877 208.057 42.8584C208.447 42.029 208.612 41.2097 208.551 40.4004C208.512 39.5833 208.267 38.851 207.817 38.2035C207.381 37.5633 206.782 37.0562 206.019 36.6822C205.27 36.3155 204.508 36.1552 203.731 36.2014C202.954 36.2475 202.241 36.5105 201.591 36.9902C200.949 37.4548 200.433 38.1018 200.042 38.9312C199.652 39.7606 199.476 40.5838 199.515 41.4009C199.561 42.2029 199.806 42.9352 200.249 43.5977C200.699 44.2452 201.299 44.7523 202.047 45.119Z" fill="white"/>
<path d="M219.214 42.0572L221.212 43.3876L214.07 54.5482L212.073 53.2179L219.214 42.0572ZM221.587 40.5745C221.199 40.3158 220.954 39.9723 220.852 39.5441C220.764 39.1251 220.837 38.7331 221.07 38.3681C221.304 38.0031 221.626 37.7774 222.038 37.691C222.472 37.5998 222.883 37.6836 223.272 37.9423C223.66 38.2009 223.898 38.5398 223.986 38.9588C224.097 39.373 224.036 39.7626 223.802 40.1276C223.56 40.5066 223.221 40.7417 222.787 40.8329C222.376 40.9193 221.976 40.8332 221.587 40.5745Z" fill="white"/>
<path d="M231.52 44.4429L233.389 45.9477L222.042 60.6225L220.173 59.1177L231.52 44.4429Z" fill="white"/>
<path d="M240.585 69.4917C240.456 69.6219 240.274 69.7815 240.04 69.9706L232.558 62.2512C231.841 63.1875 231.532 64.2213 231.631 65.3526C231.753 66.484 232.266 67.5165 233.171 68.45C234.273 69.587 235.535 70.1238 236.959 70.0604L236.79 72.1126C235.88 72.1789 234.982 72.0191 234.098 71.6332C233.225 71.2593 232.406 70.6774 231.64 69.8875C230.666 68.8822 230.001 67.7894 229.646 66.609C229.303 65.4168 229.286 64.2383 229.596 63.0736C229.918 61.9209 230.536 60.8829 231.451 59.9596C232.355 59.0482 233.367 58.4291 234.489 58.1021C235.623 57.7872 236.737 57.7875 237.832 58.1032C238.95 58.4189 239.95 59.0316 240.831 59.9412C241.713 60.8508 242.29 61.8658 242.564 62.9861C242.861 64.1067 242.837 65.2313 242.493 66.3601C242.159 67.5009 241.524 68.5448 240.585 69.4917ZM239.406 61.3793C238.605 60.5535 237.686 60.1079 236.648 60.0426C235.622 59.9891 234.663 60.317 233.773 61.0261L239.688 67.1299C240.382 66.2411 240.702 65.2669 240.65 64.2073C240.621 63.1478 240.206 62.2051 239.406 61.3793Z" fill="white"/>
<path d="M254.248 76.5906C255.207 77.9741 255.568 79.3575 255.331 80.741C255.116 82.1285 254.246 83.3732 252.718 84.4752L246.535 88.9368L245.168 86.9644L251.128 82.6637C252.169 81.9128 252.777 81.0938 252.953 80.2067C253.129 79.3195 252.889 78.4034 252.234 77.4583C251.493 76.3899 250.598 75.7718 249.549 75.604C248.514 75.4265 247.422 75.7522 246.273 76.5811L240.738 80.5747L239.371 78.6022L250.116 70.8493L251.426 72.7395L249.804 73.9098C250.634 73.9071 251.43 74.1341 252.192 74.5908C252.964 75.0611 253.65 75.7277 254.248 76.5906Z" fill="white"/>
<path d="M276.212 143.704L261.081 138.804C259.682 138.378 258.672 137.812 258.049 137.105C257.428 136.415 257.065 135.54 256.96 134.478C256.896 133.831 256.941 133.19 257.096 132.554C257.236 131.937 257.485 131.408 257.843 130.969L259.735 131.805C259.156 132.551 258.91 133.372 258.999 134.268C259.056 134.849 259.262 135.313 259.614 135.662C259.952 136.03 260.51 136.332 261.287 136.571L262.249 136.899L274.828 129.722L275.074 132.21L264.986 137.899L275.981 141.365L276.212 143.704ZM280.786 137.377L281.086 140.412L277.44 136.565L277.218 134.326L280.786 137.377Z" fill="white"/>
<path d="M262.501 155.017C262.564 153.702 262.911 152.535 263.544 151.515C264.177 150.495 265.015 149.71 266.059 149.162C267.119 148.63 268.298 148.397 269.596 148.461C270.895 148.525 272.038 148.874 273.025 149.507C274.029 150.158 274.789 151.022 275.305 152.098C275.837 153.176 276.072 154.373 276.009 155.688C275.947 157.003 275.599 158.162 274.968 159.165C274.352 160.186 273.514 160.962 272.454 161.494C271.41 162.043 270.239 162.285 268.94 162.22C267.642 162.156 266.491 161.798 265.487 161.148C264.5 160.515 263.74 159.659 263.207 158.582C262.674 157.521 262.438 156.333 262.501 155.017ZM264.598 155.121C264.558 155.97 264.713 156.737 265.064 157.422C265.431 158.125 265.955 158.685 266.636 159.102C267.334 159.521 268.14 159.753 269.056 159.798C269.971 159.844 270.788 159.692 271.505 159.344C272.239 158.997 272.814 158.491 273.229 157.828C273.644 157.181 273.872 156.433 273.912 155.584C273.952 154.735 273.798 153.959 273.447 153.258C273.096 152.573 272.572 152.013 271.875 151.578C271.195 151.16 270.396 150.929 269.481 150.883C268.565 150.838 267.741 150.989 267.006 151.336C266.288 151.701 265.714 152.206 265.282 152.853C264.867 153.516 264.639 154.272 264.598 155.121Z" fill="white"/>
<path d="M266.486 173.357L264.542 170.132L260.996 169.379L261.476 167.027L279.621 170.882L279.141 173.234L267.501 170.761L272.512 179.212L271.932 182.053L267.691 175.453L258.861 179.838L259.451 176.948L266.486 173.357Z" fill="white"/>
<path d="M268.171 193.581C267.539 195.302 266.637 196.456 265.463 197.042C264.283 197.644 262.861 197.627 261.195 196.99L253.721 194.135L254.505 192L256.14 192.624C255.702 192.029 255.456 191.319 255.403 190.496C255.36 189.695 255.514 188.817 255.864 187.863C256.375 186.47 257.121 185.479 258.1 184.89C259.074 184.317 260.106 184.238 261.196 184.655C262.286 185.071 263.011 185.803 263.372 186.851C263.749 187.904 263.618 189.3 262.981 191.036L261.671 194.604L262.115 194.773C263.08 195.142 263.923 195.143 264.644 194.776C265.364 194.409 265.926 193.678 266.328 192.583C266.597 191.847 266.737 191.08 266.746 190.281C266.771 189.487 266.67 188.771 266.444 188.131L268.47 187.835C268.748 188.673 268.856 189.588 268.793 190.581C268.746 191.58 268.539 192.58 268.171 193.581ZM257.455 188.898C257.139 189.759 257.053 190.573 257.197 191.342C257.356 192.117 257.735 192.778 258.332 193.328L260.06 193.988L261.335 190.515C262.035 188.606 261.747 187.408 260.471 186.92C259.848 186.682 259.269 186.737 258.732 187.085C258.196 187.433 257.77 188.038 257.455 188.898Z" fill="white"/>
<path d="M259.533 207.284C260.012 208.021 260.236 208.847 260.207 209.762C260.178 210.677 259.891 211.651 259.348 212.683L257.309 211.566C257.385 211.456 257.478 211.298 257.587 211.092C258.192 209.941 258.326 208.846 257.988 207.806C257.657 206.789 256.863 205.936 255.606 205.247L249.817 202.077L250.934 199.953L262.556 206.318L261.485 208.353L259.533 207.284Z" fill="white"/>
<path d="M248.283 229.048L240.231 215.177C239.468 213.915 239.086 212.809 239.084 211.857C239.073 210.918 239.374 210.013 239.988 209.141C240.363 208.61 240.815 208.156 241.345 207.78C241.852 207.408 242.382 207.177 242.935 207.086L243.796 208.989C242.878 209.163 242.16 209.618 241.642 210.353C241.306 210.83 241.155 211.319 241.189 211.82C241.201 212.324 241.418 212.928 241.84 213.63L242.342 214.524L256.376 217.563L254.936 219.607L243.724 217.119L249.637 227.127L248.283 229.048Z" fill="white"/>
<path d="M212.714 259.457C211.262 260.309 209.871 260.556 208.54 260.198C207.203 259.862 206.071 258.874 205.146 257.234L201.4 250.592L203.47 249.377L207.081 255.779C207.711 256.897 208.452 257.583 209.303 257.836C210.154 258.09 211.076 257.926 212.067 257.344C213.188 256.686 213.884 255.833 214.154 254.786C214.432 253.753 214.223 252.619 213.527 251.385L210.174 245.441L212.244 244.226L221.358 260.382L219.288 261.598L215.763 255.348C215.643 256.153 215.324 256.91 214.806 257.62C214.274 258.339 213.576 258.951 212.714 259.457Z" fill="white"/>
<path d="M200.095 265.62L197.883 266.551L192.912 254.269L195.124 253.337L200.095 265.62ZM199.946 268.449C200.376 268.268 200.793 268.255 201.197 268.41C201.586 268.572 201.862 268.853 202.025 269.255C202.187 269.657 202.187 270.055 202.023 270.449C201.85 270.866 201.548 271.165 201.118 271.346C200.688 271.527 200.279 271.537 199.89 271.375C199.491 271.236 199.211 270.965 199.048 270.563C198.88 270.146 198.882 269.729 199.055 269.313C199.219 268.918 199.516 268.63 199.946 268.449Z" fill="white"/>
<path d="M191.2 274.628L188.913 275.355L183.495 257.614L185.782 256.887L191.2 274.628Z" fill="white"/>
<path d="M108.465 172L140.798 191.946L116.333 231.604L105.933 212.283L83.9998 211.658L108.465 172Z" fill="white"/>
<path d="M160 192.41L192.042 172.001L217.076 211.302L195.154 212.243L185.034 231.712L160 192.41Z" fill="white"/>
<circle cx="150.5" cy="145.5" r="61.5" fill="#043480"/>
<g clip-path="url(#clip0)">
<path d="M114.063 172.711C120.382 172.427 126.717 172.285 133.036 172.174C139.354 172.047 145.689 172.063 152.008 172C158.327 172.032 164.661 172.047 170.98 172.158L180.459 172.364C183.618 172.49 186.777 172.553 189.937 172.727C189.968 172.727 190 172.759 190 172.791C190 172.822 189.968 172.854 189.937 172.854C186.777 173.028 183.618 173.091 180.459 173.217L170.98 173.423C164.661 173.518 158.327 173.549 152.008 173.581C145.689 173.518 139.354 173.534 133.036 173.407C126.717 173.296 120.382 173.154 114.063 172.87C114.032 172.854 114 172.822 114 172.775C114 172.743 114.032 172.711 114.063 172.711Z" fill="white"/>
<path d="M119.482 178.277C124.9 177.992 130.318 177.85 135.753 177.739C141.171 177.613 146.59 177.629 152.008 177.565C157.426 177.597 162.845 177.613 168.263 177.724L176.399 177.929C179.116 178.056 181.817 178.119 184.534 178.293C184.566 178.293 184.597 178.324 184.597 178.356C184.597 178.388 184.566 178.419 184.534 178.419C181.817 178.593 179.116 178.656 176.399 178.783L168.263 178.988C162.845 179.083 157.426 179.115 152.008 179.146C146.59 179.067 141.171 179.083 135.753 178.957C130.318 178.846 124.9 178.704 119.482 178.419C119.45 178.419 119.418 178.388 119.418 178.356C119.434 178.309 119.45 178.293 119.482 178.277Z" fill="white"/>
<path d="M126.796 183.146C130.998 182.861 135.2 182.719 139.402 182.608C143.604 182.466 147.806 182.45 152.008 182.435C156.21 182.435 160.412 182.466 164.614 182.593L170.917 182.798C173.018 182.925 175.119 182.988 177.22 183.162C177.252 183.162 177.283 183.193 177.283 183.225C177.283 183.257 177.252 183.288 177.22 183.288C175.119 183.462 173.018 183.525 170.917 183.652L164.614 183.857C160.412 183.984 156.21 184.016 152.008 184.016C147.806 184 143.604 183.968 139.402 183.842C135.2 183.699 130.998 183.573 126.796 183.273C126.764 183.273 126.732 183.241 126.732 183.209C126.748 183.178 126.764 183.146 126.796 183.146Z" fill="white"/>
</g>
<path d="M120.795 162H116.065V152.32C116.006 152.379 115.903 152.459 115.757 152.562C115.625 152.665 115.317 152.797 114.833 152.958C114.363 153.119 113.843 153.2 113.271 153.2V149.13C113.799 149.13 114.261 149.042 114.657 148.866C115.053 148.675 115.353 148.433 115.559 148.14C115.779 147.847 115.94 147.575 116.043 147.326C116.145 147.077 116.211 146.835 116.241 146.6H120.795V162ZM132.484 154.3C132.484 155.664 132.697 156.676 133.122 157.336C133.548 157.996 134.068 158.326 134.684 158.326C135.3 158.326 135.821 157.996 136.246 157.336C136.672 156.676 136.884 155.664 136.884 154.3C136.884 152.951 136.672 151.946 136.246 151.286C135.821 150.626 135.3 150.296 134.684 150.296C134.068 150.296 133.548 150.626 133.122 151.286C132.697 151.946 132.484 152.951 132.484 154.3ZM141.834 154.3C141.834 156.823 141.182 158.795 139.876 160.218C138.571 161.626 136.84 162.33 134.684 162.33C132.528 162.33 130.798 161.626 129.492 160.218C128.187 158.795 127.534 156.823 127.534 154.3C127.534 151.792 128.187 149.827 129.492 148.404C130.798 146.981 132.528 146.27 134.684 146.27C136.84 146.27 138.571 146.981 139.876 148.404C141.182 149.827 141.834 151.792 141.834 154.3ZM152.955 154.3C152.955 155.664 153.167 156.676 153.593 157.336C154.018 157.996 154.539 158.326 155.155 158.326C155.771 158.326 156.291 157.996 156.717 157.336C157.142 156.676 157.355 155.664 157.355 154.3C157.355 152.951 157.142 151.946 156.717 151.286C156.291 150.626 155.771 150.296 155.155 150.296C154.539 150.296 154.018 150.626 153.593 151.286C153.167 151.946 152.955 152.951 152.955 154.3ZM162.305 154.3C162.305 156.823 161.652 158.795 160.347 160.218C159.041 161.626 157.311 162.33 155.155 162.33C152.999 162.33 151.268 161.626 149.963 160.218C148.657 158.795 148.005 156.823 148.005 154.3C148.005 151.792 148.657 149.827 149.963 148.404C151.268 146.981 152.999 146.27 155.155 146.27C157.311 146.27 159.041 146.981 160.347 148.404C161.652 149.827 162.305 151.792 162.305 154.3ZM184.645 146.6L175.845 162H171.445L180.245 146.6H184.645ZM172.259 149.13C171.79 149.13 171.555 149.607 171.555 150.56C171.555 151.513 171.79 151.99 172.259 151.99C172.743 151.99 172.985 151.513 172.985 150.56C172.985 149.607 172.743 149.13 172.259 149.13ZM175.207 147.48C175.926 148.213 176.285 149.24 176.285 150.56C176.285 151.88 175.926 152.907 175.207 153.64C174.488 154.373 173.506 154.74 172.259 154.74C171.012 154.74 170.03 154.373 169.311 153.64C168.607 152.892 168.255 151.865 168.255 150.56C168.255 149.255 168.607 148.235 169.311 147.502C170.03 146.754 171.012 146.38 172.259 146.38C173.506 146.38 174.488 146.747 175.207 147.48ZM183.809 156.61C183.34 156.61 183.105 157.087 183.105 158.04C183.105 158.993 183.34 159.47 183.809 159.47C184.293 159.47 184.535 158.993 184.535 158.04C184.535 157.087 184.293 156.61 183.809 156.61ZM186.757 154.96C187.476 155.693 187.835 156.72 187.835 158.04C187.835 159.36 187.476 160.387 186.757 161.12C186.038 161.853 185.056 162.22 183.809 162.22C182.562 162.22 181.58 161.853 180.861 161.12C180.157 160.372 179.805 159.345 179.805 158.04C179.805 156.735 180.157 155.715 180.861 154.982C181.58 154.234 182.562 153.86 183.809 153.86C185.056 153.86 186.038 154.227 186.757 154.96Z" fill="white"/>
<path d="M149.549 101.927C149.848 101.006 151.152 101.006 151.451 101.927L153.755 109.019C153.889 109.431 154.273 109.71 154.707 109.71H162.164C163.132 109.71 163.535 110.95 162.751 111.519L156.718 115.902C156.368 116.157 156.221 116.608 156.355 117.021L158.66 124.113C158.959 125.034 157.904 125.8 157.121 125.231L151.088 120.848C150.737 120.593 150.263 120.593 149.912 120.848L143.879 125.231C143.096 125.8 142.041 125.034 142.34 124.113L144.645 117.021C144.779 116.608 144.632 116.157 144.282 115.902L138.249 111.519C137.465 110.95 137.868 109.71 138.836 109.71H146.293C146.727 109.71 147.111 109.431 147.245 109.019L149.549 101.927Z" fill="white"/>
<path d="M180.049 118.927C180.348 118.006 181.652 118.006 181.951 118.927L183.245 122.91C183.379 123.322 183.763 123.601 184.196 123.601H188.384C189.353 123.601 189.755 124.84 188.972 125.41L185.584 127.871C185.233 128.126 185.087 128.577 185.22 128.989L186.515 132.972C186.814 133.893 185.759 134.66 184.976 134.09L181.588 131.629C181.237 131.374 180.763 131.374 180.412 131.629L177.024 134.09C176.241 134.66 175.186 133.893 175.485 132.972L176.78 128.989C176.913 128.577 176.767 128.126 176.416 127.871L173.028 125.41C172.245 124.84 172.647 123.601 173.616 123.601H177.804C178.237 123.601 178.621 123.322 178.755 122.91L180.049 118.927Z" fill="white"/>
<path d="M118.049 118.927C118.348 118.006 119.652 118.006 119.951 118.927L121.245 122.91C121.379 123.322 121.763 123.601 122.196 123.601H126.384C127.353 123.601 127.755 124.84 126.972 125.41L123.584 127.871C123.233 128.126 123.087 128.577 123.22 128.989L124.515 132.972C124.814 133.893 123.759 134.66 122.976 134.09L119.588 131.629C119.237 131.374 118.763 131.374 118.412 131.629L115.024 134.09C114.241 134.66 113.186 133.893 113.485 132.972L114.78 128.989C114.913 128.577 114.767 128.126 114.416 127.871L111.028 125.41C110.245 124.84 110.647 123.601 111.616 123.601H115.804C116.237 123.601 116.621 123.322 116.755 122.91L118.049 118.927Z" fill="white"/>
<path d="M192.931 189.069C216.717 165.283 216.717 126.717 192.931 102.931C169.145 79.145 130.58 79.145 106.793 102.931C83.0072 126.717 83.0072 165.283 106.793 189.069C130.58 212.855 169.145 212.855 192.931 189.069Z" stroke="white" stroke-width="3" stroke-miterlimit="10"/>
<defs>
<clipPath id="clip0">
<rect width="76" height="12" fill="white" transform="translate(114 172)"/>
</clipPath>
</defs>
</svg>
