<svg width="1440" height="792" viewBox="0 0 1440 792" fill="none" xmlns="http://www.w3.org/2000/svg">
<path d="M-854.41 0.175106C-823.967 52.0509 -787.813 102.891 -745.781 150.889C-662.534 245.912 -537.498 343.783 -362.008 369.352C-251.603 385.438 -105.744 374.135 1.00015 359C199.225 330.9 367.132 291.928 569.754 275.265C839.366 253.099 1114.81 283.604 1374.47 344.815C1514.45 377.815 1652.4 417.186 1788.27 457.439C1855.72 477.405 1948.37 496.499 2001.14 531.369C2011.31 538.079 2000.02 527.635 1995.15 534.979C1993.81 537.008 1981 544.8 1976.57 547.19C1951.5 560.815 1941.64 610.698 1911.49 615.835C1734.44 645.917 1423.79 573.342 1181.01 609.527C920.361 648.381 667.494 708.13 419.727 770.968C317.5 770.968 114.5 806.622 0.999997 784.5C-270.215 731.637 -777.11 689.597 -904.965 529.928C-886.515 353.468 -876.682 176.336 -854.41 0.175106Z" fill="#043480"/>
</svg>
