<svg width="768" height="616" viewBox="0 0 768 616" fill="none" xmlns="http://www.w3.org/2000/svg">
<path d="M-135.579 1.14852C-123.049 30.2772 -107.779 58.9732 -89.6237 86.252C-53.6647 140.257 1.9709 196.807 84.1064 214.952C135.779 226.367 193.205 223.005 244.277 217.235C339.117 206.524 432.022 189.757 528.529 185.413C656.943 179.637 786.209 202.843 906.892 242.494C971.948 263.87 1035.82 288.687 1098.67 313.939C1129.87 326.465 1173.03 339.108 1196.74 359.451C1201.31 363.365 1196.35 357.379 1193.78 361.286C1193.07 362.366 1186.72 366.331 1184.54 367.535C1172.18 374.405 1165.71 401.492 1151.25 403.593C1066.36 415.89 921.958 368.812 805.737 382.9C680.959 398.028 559.109 424.782 439.561 453.349C331.3 479.221 206.122 521.199 87.2648 487.982C-39.1897 452.631 -123.969 380.54 -178.699 290.079C-163.574 193.875 -152.503 97.099 -135.579 1.14852Z" fill="white"/>
</svg>
