<svg width="209" height="209" viewBox="0 0 209 209" fill="none" xmlns="http://www.w3.org/2000/svg">
<path d="M156.435 156.432C185.116 127.751 185.116 81.2504 156.435 52.5696C127.754 23.8888 81.2533 23.8888 52.5725 52.5696C23.8917 81.2504 23.8917 127.751 52.5725 156.432C81.2533 185.113 127.754 185.113 156.435 156.432Z" stroke="white" stroke-width="3" stroke-miterlimit="10"/>
<path d="M52.373 52.9106C54.5587 52.9813 56.1289 53.4481 58.0812 54.0706C58.7319 54.2757 60.4154 55.0679 60.953 55.1033C62.2828 55.1882 61.6957 54.5728 62.983 54.2616C66.1024 53.4977 67.7222 55.7823 70.3959 53.434C70.891 53.0025 71.3579 51.1776 72.7018 51.7505C73.3101 52.0122 73.5789 52.8893 73.0484 53.6038C72.3976 54.4808 75.6726 53.9221 75.4958 53.8938C76.3587 54.0564 78.6788 53.7877 76.7973 55.5065C75.7504 56.4614 73.9326 55.1316 72.7937 55.5136C71.7681 55.8531 71.4286 56.7443 70.4595 57.3597C69.1015 58.2156 65.5719 58.5268 64.6806 60.0759C63.6196 61.9008 66.159 62.6152 67.128 63.563C68.7549 65.1545 67.8495 65.1616 68.1607 67.1563C68.578 69.8371 69.8654 66.5197 71.6832 65.5436C73.0838 64.7938 73.7699 64.6665 74.7318 63.2447C75.4392 62.1979 75.5948 60.8469 76.5992 59.9839C77.5258 59.1917 78.99 58.64 80.0015 59.6727C80.4895 60.1678 80.1571 61.724 80.6027 61.9786C81.6496 62.5728 82.9086 60.1466 83.7787 60.1395C86.1129 60.1183 84.5638 61.7169 84.2809 62.9901C84.2313 63.1952 86.0421 62.8911 85.9572 63.7681C85.8511 64.8009 84.6416 65.197 84.295 66.0882C84.0474 66.7177 87.6195 65.5789 87.5417 65.5153C88.921 66.6258 86.1624 68.5497 85.448 68.8397C83.425 69.6744 80.7583 68.8397 78.6151 69.3137C77.8017 69.4905 74.1094 71.0325 76.1536 71.3932C76.1677 71.3932 81.5152 69.5754 78.4807 71.4286C86.5443 73.6496 76.1536 74.1943 74.173 74.8804C72.4047 75.4958 69.2076 77.8936 67.8 79.1668C66.8875 79.9944 66.9724 79.2588 66.4065 80.1359C65.6992 81.2322 66.1448 82.3993 65.0343 83.5452C63.7682 84.8538 61.7523 84.8043 61.0449 86.3533C60.663 87.188 61.9008 90.8449 60.3234 90.9652C59.6373 91.0147 58.8451 86.9829 57.4375 86.4594C55.5206 85.745 54.2404 87.5063 52.3659 87.6831C50.2298 87.8812 49.5012 86.6787 47.8531 88.8219C46.7002 90.3286 45.3704 93.8511 46.396 95.7184C47.0609 96.9351 48.7514 97.8617 50.1661 97.2887C51.2625 96.8431 51.312 95.1384 52.7267 94.9899C55.9026 94.6574 52.5215 97.4726 53.0096 98.8449C53.6886 100.762 53.3138 98.6539 55.0467 99.6371C56.9565 100.719 55.8036 99.6088 56.3907 101.222C56.9919 102.863 55.4711 103.464 57.4587 104.624C57.9114 104.886 60.2103 105.253 60.6559 105.267C62.1908 105.331 61.4905 105.699 63.0891 104.864C63.6479 104.574 65.1899 102.233 66.0599 102.664C66.258 102.764 64.8575 106.145 66.4065 105.897C66.5268 105.876 66.7602 104.037 67.3048 103.74C68.3517 103.174 69.0307 104.072 70.1412 104.249C72.4896 104.624 72.8998 104.249 74.7177 105.904C76.6275 107.637 78.7707 107.927 80.6664 109.526C81.303 110.063 82.1376 110.792 82.3923 111.598C82.7318 112.666 81.8123 113.508 81.9537 114.18C82.4772 116.613 82.3286 113.763 84.2455 114.406C84.8043 114.59 83.4816 115.786 84.2809 115.991C85.0519 116.189 85.837 114.958 86.7353 115.085C87.5417 115.198 87.1456 116.641 87.6902 116.769C88.5602 116.967 89.4656 116.076 90.6044 116.45C92.5001 117.08 93.2994 119.11 95.0536 119.676C95.9731 119.973 96.4824 118.756 97.0765 120.051C97.5292 121.048 96.3904 121.671 96.0438 122.321C95.3789 123.566 93.9713 125.094 93.4055 126.615C92.7759 128.305 93.4125 130.441 92.7406 132.16C91.4249 135.52 88.9068 133.724 87.1951 135.916C86.1694 137.232 87.4144 139.488 86.3604 141.059C85.9502 141.674 84.8467 142.013 84.295 142.608C83.913 143.372 83.4533 144.086 82.9086 144.744C82.4418 145.182 81.9962 145.168 81.5505 144.701C81.02 145.055 80.5037 143.513 80.2066 145.211C80.0864 145.883 81.211 146.562 81.1898 147.262C81.1262 149.193 78.9193 149.129 78.3039 150.367C78.0988 150.777 76.9741 150.735 76.7973 151.145C76.7548 151.244 76.7124 153.31 76.7195 153.585C76.7265 153.932 76.2526 154.385 76.3021 154.795C76.3587 155.241 77.066 155.651 77.1085 155.941C77.3207 157.313 76.9104 157.412 76.6982 158.89C76.4365 160.694 77.1368 162.894 74.3287 161.097C72.6523 160.022 70.9476 157.377 70.9971 155.828C71.0183 155.092 71.8671 154.229 71.6196 153.069C71.4003 152.015 70.9476 151.98 70.4737 151.074C69.3066 148.825 69.6249 147.318 69.5966 144.715C69.5754 142.693 69.1015 140.853 68.7761 138.873C68.3871 136.468 68.288 132.705 67.1492 130.597C66.3146 129.041 64.2845 128.192 63.0962 126.926C61.9008 125.66 60.9317 124.04 59.9698 122.597C59.1068 121.31 58.0883 120.079 57.9609 118.544C57.8973 117.794 58.3995 116.96 58.3924 116.288C58.3783 114.838 57.777 115.099 58.4349 113.536C59.1563 111.824 62.1342 108.832 60.5003 106.64C59.3898 105.147 57.1758 107.276 55.266 106.173C53.9008 105.381 53.7523 103.902 52.7267 102.877C51.9274 102.077 51.2979 102.113 50.4208 101.646C49.6356 101.236 48.9495 100.479 48.2209 100.097C46.6294 99.2622 46.1485 100.054 44.6489 99.7998C42.9725 99.5098 40.9778 97.9466 40.2847 96.4753C39.8178 95.4709 40.129 94.1411 39.6268 93.1296C39.1176 92.104 38.3183 91.9413 37.7382 91.1491C37.2007 90.4205 34.9796 83.4179 34.6401 87.5558C34.5128 89.1332 36.3377 88.8007 34.4916 90.0103C34.0743 90.2861 33.1052 90.3144 32.5747 90.3993C34.8028 76.4577 42.1166 62.5232 52.373 52.9106Z" fill="white"/>
<path d="M58.7037 92.592C58.6541 92.6133 56.5251 93.5611 56.7231 94.1199C56.4119 93.2499 60.2881 95.0182 60.1537 94.9616C60.8469 95.2304 64.1996 97.1685 64.8504 95.8245C64.8999 95.7255 59.609 92.1818 58.7037 92.592Z" fill="white"/>
<path d="M67.8778 96.1075C65.3667 95.5204 62.4101 98.1092 66.838 97.9748C68.6629 97.9253 71.4144 96.9351 67.8778 96.1075Z" fill="white"/>
<path d="M86.905 43.2272C86.3745 43.0928 83.1632 42.244 82.8874 43.2272C82.4913 44.6489 84.7689 44.2882 84.7406 45.137C84.7265 45.4553 82.9652 46.3677 82.8166 46.7426C82.1376 48.4756 82.7884 48.5463 84.5143 48.4261C86.3604 48.2987 88.2702 46.5092 90.0385 45.9363C90.9227 45.6533 95.0818 45.3138 95.294 44.2316C95.3153 44.1184 87.8529 43.4606 86.905 43.2272Z" fill="white"/>
<path d="M79.662 48.32C78.6717 47.839 76.1111 47.7329 77.448 49.1476C77.929 49.6568 81.7415 50.3005 81.883 49.1829C81.9113 48.9283 80.0439 48.5039 79.662 48.32Z" fill="white"/>
<path d="M77.2924 50.6825C76.4365 50.0742 74.5691 51.3049 75.6797 52.2315C76.3233 52.7691 77.5117 51.892 78.1553 51.9132C79.3154 51.9486 83.0006 52.7762 83.3189 54.4172C83.7786 56.8292 78.799 54.5516 78.99 56.7655C79.0041 56.907 82.7954 59.7576 82.9652 59.7222C83.8777 59.5171 83.0854 58.6471 83.5876 58.0741C84.0757 57.5224 84.5708 58.4136 84.8962 58.0034C85.7521 56.9141 84.493 57.0485 85.6955 56.0299C86.2472 55.5631 87.6477 56.617 88.0085 55.2094C88.4117 53.6321 85.8157 52.564 84.8326 52.0476C83.2411 51.213 82.9652 51.2837 81.1756 51.1139C80.539 51.0574 77.738 51.0008 77.2924 50.6825Z" fill="white"/>
<path d="M92.783 46.7426C91.3118 46.8982 87.6902 47.2236 90.1659 48.7585C92.7335 50.3429 95.1667 46.3111 96.1287 51.0291C96.7229 53.9291 94.1482 54.4455 94.516 57.006C94.714 58.3995 95.7255 61.0308 97.7131 60.4861C99.3683 60.0264 100.04 57.3951 102.084 56.5958C103.011 56.235 104.058 56.3482 104.999 55.9804C106.088 55.556 106.873 54.594 107.998 54.2262C109.766 53.6462 112.192 54.403 113.784 53.2784C116.373 51.4393 112.192 50.9654 112.702 50.4915C112.878 50.3288 114.894 50.4561 115.333 50.2086C115.877 49.9044 115.955 49.3385 116.344 48.9354C116.748 48.511 120.39 45.7382 120.39 45.7523C120.249 43.5525 113.239 43.8991 111.782 43.9416C110.466 43.9769 109.122 43.595 107.814 43.8921C106.505 44.1891 105.501 45.236 104.129 45.3279C102.474 45.434 100.847 44.5216 99.1066 44.6772C96.829 44.8682 94.9545 46.5092 92.783 46.7426Z" fill="white"/>
<path d="M58.3641 49.7417C56.3058 50.2439 53.6391 51.4393 57.1899 51.5666C57.869 51.5879 59.4676 50.8169 60.0122 51.701C61.052 53.3916 58.7461 52.3093 58.5622 53.1511C58.1166 55.1599 62.1767 53.3633 62.6506 53.2925C64.1218 53.0733 66.548 54.4384 66.5551 52.4791C66.5692 50.2934 60.0122 49.3456 58.3641 49.7417Z" fill="white"/>
<path d="M69.4764 50.5481C69.2854 50.3854 69.0661 51.2413 69.9291 51.3969C70.7071 51.5383 72.2633 50.6471 71.4781 49.7488C71.6196 49.8973 69.9008 50.5976 69.4764 50.5481Z" fill="white"/>
<path d="M115.255 56.3482C112.39 55.5702 112.829 59.0927 116.847 57.4092C117.363 57.197 119.025 56.999 118.742 56.0865C118.381 54.9336 115.92 56.5321 115.255 56.3482Z" fill="white"/>
<path d="M176.475 89.8193C177.034 92.6274 172.302 89.7768 170.448 89.4373C169.769 89.3171 169.175 90.0103 168.234 89.7202C166.608 89.218 167.032 87.9661 166.091 87.2729C165.624 86.9263 164.252 85.9148 163.573 86.5868C162.83 87.3295 163.92 87.8246 164.196 88.5602C164.691 89.8617 165.327 91.3047 166.848 91.6866C168.22 92.0332 168.928 90.6539 169.783 90.7176C171.29 90.8308 170.172 91.3613 171.078 92.1676C172.804 93.7167 174.176 92.5991 173.193 94.9404C172.535 96.5107 170.625 98.1234 169.154 98.9722C167.4 99.9766 165.525 101.71 163.552 102.205C160.616 102.933 160.772 101.554 159.803 99.4249C159.223 98.1446 157.943 97.3665 157.377 96.2772C156.832 95.2375 156.974 94.1482 156.556 93.0872C156.259 92.3445 154.215 88.3551 153.727 88.0863C153.437 88.2278 153.211 88.4329 153.048 88.7158C152.44 88.3127 151.435 86.516 151.817 88.7088C152.065 90.1164 153.939 91.913 154.661 93.2781C155.672 95.1879 155.863 97.409 156.818 99.2622C157.504 100.592 158.883 101.886 159.852 103.046C160.991 104.405 161.133 104.907 163.29 104.659C164.45 104.525 167.279 102.65 168.135 103.747C169.635 105.671 164.988 110.141 163.969 111.167C161.048 114.074 158.127 114.477 158.162 119.039C158.183 121.649 159.117 126.127 157.582 128.419C156.422 130.151 154.922 130.484 154.463 132.818C153.982 135.244 153.904 135.605 152.319 137.812C151.004 139.644 149.738 141.37 147.821 142.947C146.519 144.015 145.501 144.581 143.909 144.892C143.98 144.878 141.087 145.126 141.257 145.14C138.144 144.829 140.167 142.509 139.007 140.521C138.427 139.531 137.225 139.375 136.779 138.18C136.56 137.578 137.274 137.345 137.189 136.885C136.97 135.704 136.305 134.629 136.072 133.391C135.633 131.078 135.011 128.199 135.414 125.844C135.747 123.877 136.327 122.427 135.605 120.383C135.117 118.997 134.091 117.908 133.518 116.465C132.938 115 133.54 113.232 133.115 111.987C132.443 110.028 132.804 110.983 130.661 110.113C129.536 109.653 128.779 108.641 127.591 108.45C125.879 108.175 124.118 109.695 122.477 109.844C121.098 109.964 119.032 109.893 117.646 109.476C115.142 108.726 115.453 107.637 114.159 105.982C112.143 103.407 110.495 102.622 111.626 99.1985C112.086 97.8192 112.433 97.5575 112.15 96.0226C111.718 93.6884 111.973 93.844 113.055 91.7079C113.975 89.8759 114.767 89.3029 116.09 87.8741C116.408 87.5275 117.129 87.188 117.363 86.707C117.724 85.9785 117.016 85.3631 117.363 84.7901C118.891 82.2225 122.137 82.753 124.493 82.4135C126.756 81.3454 128.999 80.6876 131.531 81.1332C133.752 81.5222 132.747 81.3525 133.837 82.8591C133.709 83.3542 133.702 83.8423 133.815 84.3374C134.162 84.4506 134.509 84.4435 134.862 84.3233C135.421 84.203 135.973 84.2243 136.525 84.3728C137.069 84.7406 137.557 85.1721 137.982 85.6814C139.198 86.1836 139.545 86.4594 140.705 85.9643C141.419 85.6531 140.981 84.3587 142.318 84.0686C143.541 83.8069 144.107 84.9316 145.048 85.3772C146.307 85.9714 151.018 86.4453 152.326 85.5399C153.663 84.6133 153.486 81.8264 152.461 81.0554C153.013 81.4727 149.313 80.5673 149.582 80.5673C148.012 80.5886 148.174 82.2579 146.604 80.8503C144.581 79.0324 148.061 76.6063 149.391 77.2712C149.667 77.4056 150.204 77.0307 151.053 76.9175C151.81 76.5002 152.602 76.4507 153.423 76.7619C153.713 77.1721 154.088 77.4551 154.547 77.5965C157.759 77.5824 156.684 75.9626 155.043 74.5762C154.349 73.9891 153.119 74.1023 153.218 72.8715C153.274 72.1359 155.184 73.1403 154.845 71.8035C154.562 70.693 153.387 71.8459 153.097 72.0157C151.669 72.8433 152.185 72.5603 152.185 73.7486C152.185 76.1111 148.811 72.2915 149.54 72.2349C147.983 72.3552 147.524 74.0599 147.241 75.3614C147.135 75.8706 147.757 76.6841 147.517 77.1297C146.717 78.6292 146.753 77.3348 145.6 77.4975C145.112 77.5682 143.69 77.0802 142.983 77.7663C143.067 77.6814 145.366 82.4559 142.268 81.4374C141.327 81.1261 142.148 80.3339 142.035 80.15C142.636 80.0439 142.848 79.7044 142.671 79.1456C142.346 79.0112 142.021 79.0041 141.695 79.1315C141.349 79.2729 141.002 79.2446 140.662 79.0536C140.443 78.4383 140.344 77.8017 140.365 77.1438C139.594 75.9131 140.387 76.6841 139.502 75.7221C139.234 75.425 135.548 73.3667 135.357 73.7486C133.985 76.486 139.835 76.4931 139.835 77.5895C139.651 77.929 139.375 78.0775 139.014 78.0492C140.295 79.7256 139.382 80.4188 138.01 79.6054C137.663 79.3932 137.982 77.9573 137.458 77.5965C136.85 77.1721 135.987 77.9926 135.258 77.4834C134.141 76.6982 134.876 74.8026 132.797 74.4913C132.79 74.4913 131.043 75.4816 130.972 75.4958C130.123 75.6797 129.571 74.9016 128.659 75.4533C128.15 75.7575 128.164 76.7548 127.803 77.1651C127.294 77.7451 126.523 77.9219 126.035 78.4524C125.61 78.9193 125.299 80.0864 124.896 80.4259C123.778 81.3808 124.564 80.7371 123.085 81.0554C121.451 81.4091 121.89 81.3666 120.362 80.8008C118.035 79.9307 118.643 80.051 118.855 78.0422C118.877 77.8441 119.244 74.8804 119.174 74.9511C119.86 74.265 120.341 75.1916 121.041 75.0572C123.531 74.5762 124.075 74.9511 123.276 72.4542C122.774 70.8769 121.473 71.5064 123.503 70.1766C124.592 69.4622 126.297 69.3844 127.499 68.6488C128.779 67.8636 129.869 66.7955 131.326 66.2721C133.094 65.6426 133.801 66.1094 135.527 66.0316C136.539 65.9892 139.538 65.7133 140.266 64.9989C140.825 64.4472 140.189 63.4216 140.846 62.983C141.37 62.6364 142.586 63.6196 143.039 63.1669C143.343 62.8628 142.127 61.7876 142.219 61.4339C142.275 61.2076 150.325 60.6983 145.557 59.9202C144.284 59.7151 141.179 61.2217 140.62 59.0785C140.457 58.449 142.367 56.2916 141.851 55.945C141.073 55.4287 138.59 58.3075 138.512 58.9441C138.392 59.991 139.51 60.6134 139.304 61.6603C139.22 62.0705 136.489 64.3411 136.249 64.3199C134.912 64.1996 135.287 62.4949 134.403 61.9715C133.327 61.342 132.097 62.4171 130.979 61.5118C130.137 60.8327 129.77 59.4039 130.427 58.5339C131.099 57.6497 132.698 58.0104 133.54 57.487C134.707 56.7585 134.912 55.464 135.867 54.5869C138.399 52.2669 141.964 52.4154 145.09 52.7479C146.293 52.8752 150.912 52.8115 151.619 53.9928C152.864 56.0723 148.012 54.4243 147.432 55.1033C146.01 56.7514 150.275 57.3102 150.41 57.6214C149.214 54.8062 152.376 57.6143 153.72 56.1431C154.335 55.464 152.97 54.2899 154.491 53.8372C154.151 53.9362 158.643 54.2899 158.148 54.1555C158.127 54.113 172.04 67.4958 176.475 89.8193Z" fill="white"/>
<path d="M166.459 125.002C165.455 125.158 164.408 126.403 164.082 127.053C163.757 127.704 162.137 127.485 161.6 128.454C161.062 129.423 161.925 130.717 161.6 131.906C161.274 133.094 159.654 133.738 159.874 134.714C160.093 135.683 161.819 136.114 162.463 136.546C163.113 136.977 163.432 136.327 163.863 134.601C164.295 132.875 163.644 131.828 164.945 130.788C166.24 129.741 167.322 128.447 167.534 127.584C167.753 126.728 167.379 124.854 166.459 125.002Z" fill="white"/>
</svg>
