<svg width="300" height="300" viewBox="0 0 300 300" fill="none" xmlns="http://www.w3.org/2000/svg">
<circle cx="150.341" cy="150.341" r="149.5" fill="#043480"/>
<path d="M172.915 121.841C173.112 121.996 173.427 122.151 173.506 122.19C174.922 122.964 175.316 124.242 175.395 125.752C175.473 127.378 175.906 128.927 176.969 130.243C177.441 130.862 177.992 131.404 178.818 131.598C179.251 131.714 179.448 132.024 179.605 132.411C180.156 133.766 180.51 135.16 180.51 136.593C180.51 137.444 180.786 138.064 181.415 138.606C182.793 139.845 184.327 140.851 185.862 141.858C188.184 143.329 190.584 144.723 192.827 146.31C193.181 146.543 193.457 146.853 193.693 147.201C195.031 149.33 197.195 150.337 199.399 151.305C199.91 151.537 200.422 151.266 200.894 151.073C201.524 150.763 201.839 150.879 202.153 151.537C202.744 152.815 203.924 153.512 205.144 154.093C206.6 154.751 208.135 155.332 209.512 156.106C210.732 156.803 211.834 157.655 212.818 158.623C213.408 159.203 214.037 159.745 214.746 160.171C215.572 160.636 216.438 160.713 217.186 160.094C218.169 159.281 219.271 159.474 220.373 159.629C220.609 159.668 220.806 159.784 220.924 159.939C221.278 160.365 221.711 160.52 222.262 160.52C222.695 160.52 223.01 160.752 223.206 161.1C223.6 161.797 224.229 162.068 225.016 162.03C225.803 161.991 226.512 162.107 227.22 162.417C227.85 162.688 227.928 163.036 227.771 163.578C227.653 163.927 227.456 164.198 227.181 164.43C226.236 165.321 225.803 168.147 226.591 169.115C227.259 169.967 227.063 170.702 226.709 171.515C226.551 171.864 226.276 172.135 225.882 172.173C224.977 172.251 224.072 172.367 223.167 171.98C221.947 171.477 220.845 170.818 219.586 170.392C219.035 170.199 218.524 170.044 217.933 170.083C217.225 170.121 217.028 170.276 217.028 170.973C217.028 171.399 217.068 171.786 217.028 172.212C216.989 173.258 216.32 173.916 215.257 173.916C213.447 173.954 211.676 174.071 209.984 174.651C209.315 174.884 208.764 175.232 208.292 175.697C207.859 176.084 207.663 176.548 207.781 177.129C208.017 178.368 207.781 179.53 206.954 180.498C206.285 181.311 206.089 182.201 206.246 183.285C206.443 184.447 206.364 185.608 206.049 186.731C205.852 187.505 205.538 188.086 204.554 188.125C203.531 188.164 203.255 188.512 203.058 189.48C202.98 189.867 202.783 190.022 202.35 189.945C202.232 189.906 202.153 189.867 202.035 189.867C201.13 189.596 200.737 189.828 200.501 190.719C200.383 191.106 200.619 191.648 200.304 191.88C199.95 192.151 199.596 191.609 199.202 191.532C198.691 191.455 198.297 191.609 198.061 192.074C197.864 192.461 197.589 192.577 197.156 192.577C196.251 192.539 195.346 192.5 194.873 193.507C194.873 193.545 194.795 193.584 194.755 193.584C193.535 193.545 192.591 194.784 191.292 194.281C191.174 194.242 190.978 194.281 190.86 194.32C190.269 194.436 190.151 194.707 190.505 195.171C190.702 195.404 190.938 195.597 191.174 195.791C191.607 196.139 191.647 196.526 191.174 196.72C189.876 197.223 189.797 198.23 189.915 199.314C189.955 199.895 189.797 200.166 189.168 200.205C188.38 200.243 187.712 200.669 187.318 201.289C186.177 202.992 184.603 203.263 182.753 202.799C182.045 202.605 181.297 202.489 180.589 202.334C179.605 202.14 178.818 201.715 178.267 200.824C177.874 200.166 177.283 200.088 176.418 200.437C175.473 200.824 174.529 200.863 173.545 200.824C172.955 200.785 172.483 200.592 172.128 200.127C171.892 199.817 171.656 199.585 171.42 199.275C170.79 198.54 170.043 198.114 169.059 198.075C168.626 198.075 168.508 197.882 168.547 197.456C168.666 196.526 168.862 195.597 168.587 194.629C168.469 194.165 168.193 193.855 167.682 193.7C166.973 193.507 166.855 193.119 167.406 192.616C167.879 192.151 168.154 191.609 168.193 190.99C168.233 190.448 168.154 189.945 167.721 189.557C167.21 189.093 167.17 188.512 167.288 187.893C167.485 186.886 167.328 185.841 167.485 184.795C167.564 184.292 167.21 184.253 166.816 184.253C164.179 184.253 161.582 184.253 158.946 184.253C158.356 184.253 158.041 184.098 157.844 183.518C157.096 181.504 155.719 179.917 153.988 178.562C153.2 177.942 152.295 177.594 151.312 177.362C149.934 177.052 148.99 176.161 147.967 175.348C147.691 175.116 147.613 174.806 147.573 174.458C147.534 174.187 147.534 173.954 147.534 173.683C147.455 172.561 147.455 172.522 146.314 172.367C145.566 172.251 144.976 171.864 144.465 171.36C143.756 170.625 142.969 170.238 141.907 170.509C140.962 170.741 139.978 170.663 139.152 170.083C138.798 169.85 138.444 169.889 138.208 170.199C137.854 170.663 137.381 170.702 136.87 170.663C136.279 170.625 135.729 170.431 135.138 170.276C134.784 170.199 134.666 169.889 134.627 169.618C134.469 168.844 133.997 168.418 133.249 168.147C131.361 167.411 129.354 167.024 127.347 166.714C126.678 166.598 126.088 166.405 125.576 165.979C125.261 165.708 125.104 165.437 125.34 165.05C125.655 164.546 125.576 164.082 125.104 163.733C124.789 163.501 124.671 163.152 124.592 162.804C124.395 162.03 124.081 161.875 123.412 162.339C122.625 162.881 121.838 162.843 120.972 162.572C119.555 162.107 118.06 161.759 116.565 161.797C116.132 161.797 115.738 161.875 115.384 162.068C114.951 162.301 114.754 162.572 114.794 163.114C114.912 163.965 114.558 164.353 113.692 164.275C112.197 164.12 110.701 163.965 109.206 164.043C109.127 164.043 109.048 164.043 108.93 164.004C105.467 162.92 102.752 164.236 100.312 166.521C99.9583 166.869 99.6041 167.256 99.1319 167.411C97.7153 167.876 97.2824 168.921 97.2431 170.238C97.2037 171.283 96.8496 171.786 95.7871 171.902C94.5278 172.057 93.308 172.29 92.2061 172.987C91.852 173.18 91.301 173.103 90.8682 173.103C89.8057 173.18 88.7826 173.219 87.7201 173.025C87.1692 172.909 86.815 172.638 86.815 172.019C86.7757 170.276 86.697 168.534 86.6182 166.792C86.5789 166.172 86.5395 165.553 86.5395 164.933C86.5002 163.849 86.5002 162.804 86.9724 161.72C87.5627 160.442 87.6414 159.01 87.3266 157.616C87.1692 156.88 87.2479 156.183 87.5233 155.486C87.9562 154.48 88.4678 153.551 88.94 152.583C89.5696 151.228 89.3728 150.492 87.9562 150.066C86.697 149.679 86.1067 148.943 85.7525 147.782C85.5951 147.201 85.241 146.698 84.9655 146.156C84.2572 144.917 82.9979 144.762 81.7387 144.684C81.3845 144.646 80.991 144.646 80.7943 144.258C80.5188 143.794 80.3221 143.291 80.6762 142.826C81.0697 142.284 81.5419 141.819 82.329 141.858C83.2734 141.897 84.1785 142.09 85.0442 142.439C85.3984 142.594 85.7919 142.71 86.1854 142.594C86.6576 142.478 86.7363 142.168 86.5002 141.819C86.2641 141.432 85.8706 141.161 85.4377 141.006C84.3359 140.58 83.903 139.69 84.2965 138.606C84.4146 138.296 84.572 137.986 84.69 137.677C84.9655 136.98 84.572 136.515 83.8637 136.67C83.234 136.786 82.6438 136.747 82.0929 136.438C81.8174 136.283 81.5419 136.167 81.2271 136.205C80.5582 136.244 80.0072 136.128 79.417 135.818C78.9054 135.547 78.7087 135.702 78.7874 136.283C78.8267 136.593 78.8267 136.864 78.5119 137.018C78.1184 137.173 78.079 136.786 77.9216 136.593C77.0559 135.547 76.9378 134.347 77.2527 133.069C77.4101 132.489 77.3314 131.83 77.3314 131.211C77.292 129.701 77.6855 128.346 78.748 127.223C78.9841 126.952 79.1022 126.681 79.0628 126.294C78.9841 125.365 79.1022 124.513 79.5744 123.7C79.7711 123.351 80.0466 123.08 80.5188 123.119C80.9517 123.158 81.1878 123.467 81.3452 123.855C81.5026 124.281 81.5813 124.745 81.5813 125.171C81.5813 125.481 81.6993 125.674 82.0142 125.674C82.447 125.674 82.8405 125.79 83.234 125.868C83.5489 125.945 83.8637 125.945 84.0604 125.674C84.3752 125.287 84.6507 125.403 84.9261 125.713C85.0442 125.868 85.1229 126.062 85.3197 126.139C85.9886 126.41 86.1854 126.294 86.3034 125.597C86.3821 125.21 86.3821 124.823 86.6182 124.474C86.7757 124.203 86.9724 124.126 87.2479 124.358C87.5233 124.59 87.7594 124.861 87.7988 125.21C87.8381 125.481 87.8775 125.752 87.8775 126.023C87.9168 127.881 87.9955 127.959 89.845 127.842C90.6714 127.804 91.4978 127.61 92.2061 127.146C92.6783 126.836 93.1899 126.642 93.6228 127.223C93.7408 127.378 93.9769 127.494 94.213 127.378C94.4491 127.262 94.2917 127.029 94.2524 126.836C94.095 126.062 93.8982 125.326 94.213 124.552C94.4491 123.971 94.7246 123.932 95.1575 124.397C95.4329 124.668 95.669 124.977 95.9051 125.287C96.3773 125.829 96.9283 125.79 97.5579 125.597C98.6204 125.248 98.8958 124.435 99.1319 123.506C99.1713 123.351 99.1713 123.196 99.0926 123.08C98.463 121.841 97.7546 120.719 96.5348 119.944C96.0625 119.634 95.5903 119.325 95.1181 119.015C93.7408 118.202 92.9144 116.886 92.0487 115.647C91.7733 115.259 91.6552 114.795 91.8126 114.369C92.1274 113.362 91.852 112.433 91.301 111.62C90.8682 110.923 90.7108 110.226 90.8682 109.413C90.9862 108.6 90.7501 108.29 90.0024 107.981C88.389 107.284 86.815 107.477 85.241 108.097C84.7294 108.29 84.2965 108.368 83.8637 107.981C83.5095 107.671 83.0766 107.71 82.7225 108.019C81.8961 108.871 80.9123 109.646 80.4795 110.807C80.322 111.233 80.1253 111.581 79.7711 111.852C79.535 112.046 79.3776 112.317 79.4957 112.588C79.6137 112.898 79.8892 112.588 80.0466 112.588C80.4401 112.588 80.8336 112.704 80.7156 113.169C80.4795 114.369 80.3221 115.647 79.417 116.615C78.9448 117.118 78.748 117.118 78.2758 116.615C77.8429 116.15 77.5281 115.492 76.7804 115.298C76.5837 115.259 76.5837 115.066 76.6624 114.911C76.7411 114.679 76.8198 114.408 76.8985 114.175C77.1346 113.285 77.0559 113.091 76.3082 112.549C75.6786 112.123 75.6786 111.349 76.3476 110.962C77.3707 110.381 78.2758 109.646 79.1022 108.794C80.3221 107.555 81.9355 106.974 83.5095 106.316C84.0211 106.122 84.572 105.89 85.0442 105.619C85.7132 105.232 86.4608 105.348 87.1298 105.232C88.5465 105.038 89.9237 104.845 91.3404 104.612C93.0325 104.303 94.5278 104.574 95.9051 105.696C97.8333 107.245 99.8796 108.678 101.572 110.536C101.926 110.923 102.162 111.349 102.083 111.852C102.005 112.317 102.201 112.665 102.555 113.014C103.461 113.943 104.169 114.95 104.484 116.227C104.641 116.963 105.074 117.544 105.822 117.892C106.294 118.125 106.451 118.589 106.687 119.015C106.923 119.48 107.238 119.712 107.789 119.751C108.97 119.828 110.111 119.906 111.252 119.363C111.921 119.015 112.747 119.325 113.495 119.402C115.305 119.634 117.115 119.906 118.926 120.138C119.791 120.254 120.618 120.215 121.483 120.254C121.798 120.254 122.152 120.293 122.467 120.331C122.782 120.37 123.176 120.68 123.451 120.331C123.726 119.944 124.041 119.325 123.726 118.938C122.979 117.931 123.057 116.731 122.743 115.647C122.428 114.64 122.31 113.517 122.349 112.394C122.349 112.007 122.546 111.736 122.939 111.698C122.979 111.698 123.018 111.698 123.057 111.659C124.513 111.388 124.592 111.426 124.868 112.859C125.025 113.672 125.222 114.485 125.851 115.143C126.166 115.453 126.009 115.918 126.127 116.305C126.324 117.079 126.717 117.234 127.229 116.692C128.212 115.647 129.393 114.988 130.888 114.911C131.361 114.872 131.754 113.866 131.479 113.285C131.321 112.859 131.006 112.549 130.574 112.433C129.983 112.278 129.826 111.891 129.905 111.349C129.905 111.233 129.905 111.078 129.944 110.962C129.983 110.459 129.826 110.188 129.275 110.188C129 110.188 128.685 110.188 128.527 109.917C128.37 109.607 128.685 109.413 128.803 109.181C129.157 108.523 129.668 108.252 130.455 108.29C131.597 108.329 132.659 107.168 132.699 105.967C132.699 105.735 132.659 105.542 132.659 105.309C132.659 104.612 132.935 104.032 133.564 103.683C134.076 103.412 134.627 103.644 135.099 103.915C135.571 104.225 136.004 104.38 136.555 104.341C136.712 104.341 136.909 104.341 136.988 104.109C137.027 103.915 136.948 103.761 136.791 103.683C136.516 103.49 136.24 103.335 135.965 103.18C135.532 102.947 135.217 102.599 135.02 102.134C134.902 101.747 135.02 101.554 135.414 101.515C135.807 101.476 136.201 101.399 136.555 101.244C136.712 101.166 136.909 101.166 137.067 101.283C137.381 101.515 137.775 101.515 138.129 101.592C139.231 101.747 139.27 101.709 139.624 100.702C139.782 100.237 139.939 100.237 140.215 100.586C140.844 101.321 141.474 102.018 142.182 102.638C143.048 103.451 144.032 103.993 145.291 103.722C145.645 103.644 145.921 103.761 146.117 104.07C146.393 104.496 146.708 104.883 146.826 105.387C147.062 106.316 147.77 106.626 148.636 106.703C149.226 106.78 149.816 106.664 150.367 106.471C151.508 106.122 152.571 106.277 153.515 107.013C153.791 107.245 154.145 107.4 154.499 107.555C155.089 107.826 155.286 108.213 154.893 108.794C154.46 109.374 154.46 109.955 154.617 110.613C154.814 111.388 155.011 111.543 155.562 112.085C156.034 112.549 156.585 112.936 157.057 113.401C157.175 113.556 157.332 113.711 157.214 113.904C157.096 114.098 156.9 113.982 156.742 113.943C156.427 113.904 156.152 113.827 155.837 113.827C155.404 113.866 155.207 114.137 155.483 114.563C155.68 114.872 155.876 115.143 156.073 115.414C156.427 115.956 156.506 116.498 155.955 116.963C155.522 117.35 155.404 117.854 155.444 118.434C155.483 118.938 155.64 119.325 156.152 119.596C156.703 119.906 157.214 120.177 157.805 120.37C158.119 120.486 158.395 120.602 158.592 120.796C159.339 121.57 160.284 121.57 161.189 121.338C162.527 121.028 163.825 120.835 165.203 120.912C165.872 120.951 166.462 121.106 166.895 121.686C167.446 122.422 168.115 122.306 168.351 121.415C168.587 120.486 169.177 120.177 170.043 120.138C170.24 120.486 171.302 120.835 172.915 121.841Z" fill="white"/>
<path d="M100.038 269.165C97.9671 268.244 96.5468 267.019 95.7773 265.492C95.0078 263.964 94.9899 262.324 95.7236 260.572C96.4574 258.819 97.6274 257.707 99.2336 257.236C100.84 256.765 102.678 256.99 104.75 257.911L108.701 259.668L110.748 254.779L113.033 255.795L106.274 271.938L100.038 269.165ZM103.978 259.948C102.531 259.304 101.299 259.121 100.28 259.397C99.2544 259.689 98.4971 260.419 98.008 261.587C97.5188 262.756 97.5262 263.817 98.0302 264.77C98.5278 265.739 99.4999 266.545 100.947 267.189L104.83 268.916L107.862 261.675L103.978 259.948Z" fill="white"/>
<path d="M87.1542 254.747C86.4053 255.175 85.5841 255.338 84.6904 255.236C83.7966 255.134 82.8601 254.766 81.8808 254.131L83.091 252.146C83.1943 252.233 83.3438 252.34 83.5397 252.466C84.6309 253.173 85.6952 253.396 86.7325 253.135C87.7471 252.878 88.6274 252.139 89.3735 250.915L92.8089 245.279L94.8235 246.584L87.9266 257.897L85.996 256.647L87.1542 254.747Z" fill="white"/>
<path d="M79.4472 234.847C80.4389 235.713 81.1448 236.717 81.5652 237.858C81.9855 238.999 82.0987 240.16 81.9049 241.34C81.6879 242.522 81.1665 243.615 80.3409 244.619C79.5152 245.623 78.5598 246.326 77.4747 246.727C76.3665 247.131 75.237 247.206 74.0863 246.953C72.9249 246.713 71.8485 246.16 70.8568 245.294C69.8651 244.427 69.1654 243.429 68.7577 242.299C68.3268 241.17 68.2198 240.015 68.4368 238.833C68.6306 237.653 69.1404 236.561 69.9661 235.557C70.7918 234.553 71.7587 233.849 72.8669 233.446C73.952 233.044 75.0752 232.964 76.2365 233.204C77.3853 233.433 78.4555 233.981 79.4472 234.847ZM78.1134 236.469C77.4732 235.91 76.7803 235.559 76.0347 235.417C75.266 235.276 74.515 235.35 73.7817 235.638C73.0378 235.94 72.3747 236.445 71.7925 237.153C71.2103 237.861 70.8412 238.611 70.6853 239.404C70.5188 240.21 70.5712 240.985 70.8424 241.731C71.101 242.465 71.5504 243.112 72.1906 243.672C72.8308 244.231 73.53 244.587 74.2881 244.74C75.0337 244.883 75.7847 244.809 76.5411 244.519C77.2745 244.23 77.9322 243.732 78.5144 243.024C79.0967 242.316 79.471 241.559 79.6375 240.753C79.7808 239.949 79.7285 239.174 79.4804 238.426C79.2092 237.681 78.7536 237.028 78.1134 236.469Z" fill="white"/>
<path d="M48.5562 228.683L62.5792 216.539L64.0325 218.322L62.445 219.697C63.3364 219.63 64.185 219.788 64.9908 220.17C65.7966 220.552 66.5102 221.124 67.1316 221.886C67.9425 222.881 68.455 223.958 68.669 225.117C68.883 226.275 68.7901 227.414 68.3901 228.531C67.967 229.647 67.2515 230.641 66.2435 231.514C65.2356 232.387 64.1683 232.936 63.0417 233.163C61.9045 233.376 60.8006 233.274 59.7298 232.857C58.659 232.44 57.7181 231.734 56.9072 230.74C56.3069 230.004 55.8926 229.205 55.6643 228.345C55.4234 227.496 55.399 226.636 55.5912 225.764L50.0727 230.543L48.5562 228.683ZM65.4177 223.106C64.8911 222.46 64.267 221.998 63.5455 221.719C62.8113 221.451 62.0585 221.398 61.2871 221.559C60.5031 221.731 59.7647 222.117 59.0717 222.717C58.3787 223.317 57.8888 223.995 57.6018 224.75C57.3023 225.516 57.2235 226.29 57.3655 227.07C57.5075 227.851 57.8418 228.564 58.3684 229.21C58.9054 229.869 59.5348 230.338 60.2564 230.616C60.9674 230.882 61.7202 230.935 62.5147 230.776C63.2861 230.615 64.0183 230.235 64.7112 229.635C65.4042 229.034 65.9005 228.351 66.2 227.585C66.4764 226.817 66.5552 226.043 66.4363 225.265C66.2943 224.484 65.9548 223.765 65.4177 223.106Z" fill="white"/>
<path d="M41.0964 206.252L52.4667 199.45L53.5832 201.432L51.8669 202.459C52.6906 202.529 53.4631 202.814 54.1847 203.314C54.8838 203.809 55.4624 204.462 55.9204 205.275C56.7875 206.815 57.0557 208.275 56.7252 209.658C56.3803 211.048 55.3926 212.231 53.7622 213.207L47.2189 217.122L46.041 215.031L52.3483 211.257C53.4496 210.598 54.1349 209.829 54.4044 208.949C54.6595 208.078 54.5049 207.142 53.9405 206.14C53.3188 205.036 52.4991 204.362 51.4813 204.116C50.4635 203.871 49.3539 204.108 48.1525 204.826L42.2743 208.343L41.0964 206.252Z" fill="white"/>
<path d="M47.9562 187.617C48.4251 188.883 48.5734 190.123 48.4011 191.337C48.223 192.535 47.7651 193.602 47.0275 194.536C46.2743 195.477 45.2928 196.186 44.0831 196.662C42.8734 197.138 41.6913 197.281 40.5368 197.09C39.3668 196.906 38.3358 196.425 37.4437 195.648C36.5304 194.861 35.8392 193.835 35.3703 192.569C34.9535 191.444 34.8078 190.355 34.9334 189.303C35.0532 188.235 35.4499 187.291 36.1234 186.471L37.8507 187.752C37.4061 188.375 37.1436 189.033 37.0631 189.727C36.9826 190.422 37.0726 191.12 37.3332 191.824C37.6342 192.636 38.0847 193.301 38.6845 193.817C39.2786 194.317 39.9786 194.624 40.7844 194.737C41.569 194.84 42.3877 194.724 43.2408 194.388C44.1093 194.046 44.8104 193.564 45.3442 192.943C45.8566 192.311 46.1725 191.605 46.2919 190.824C46.4054 190.027 46.3117 189.222 46.0107 188.41C45.7501 187.706 45.3654 187.123 44.8566 186.661C44.3477 186.199 43.7262 185.888 42.9921 185.729L43.4283 183.597C44.4608 183.746 45.3747 184.174 46.17 184.882C46.9439 185.58 47.5393 186.492 47.9562 187.617Z" fill="white"/>
<path d="M42.0498 169.29C42.4181 169.562 42.7396 169.931 43.0145 170.397C43.2732 170.866 43.4625 171.369 43.5825 171.906C43.8734 173.207 43.7501 174.298 43.2129 175.18C42.6756 176.061 41.7583 176.656 40.461 176.964L33.3828 178.644L33.8737 180.84L31.9521 181.296L31.4612 179.101L28.6397 179.77L28.1161 177.428L30.9376 176.758L30.1086 173.05L32.0302 172.594L32.8592 176.302L39.8401 174.644C40.5374 174.479 41.0344 174.181 41.331 173.751C41.6239 173.305 41.6977 172.756 41.5523 172.105C41.3923 171.39 41.0532 170.828 40.5351 170.42L42.0498 169.29Z" fill="white"/>
<path d="M41.6761 158.853C41.7768 159.931 41.7326 160.982 41.5435 162.006C41.3379 163.031 41.0375 163.848 40.6423 164.457L38.6587 163.648C39.0191 163.027 39.285 162.288 39.4564 161.434C39.6277 160.58 39.6739 159.729 39.595 158.883C39.3999 156.792 38.7052 155.806 37.5111 155.924C37.113 155.964 36.8111 156.136 36.6052 156.441C36.3993 156.746 36.2668 157.119 36.2075 157.561C36.1301 157.987 36.0615 158.597 36.0016 159.39C35.9348 160.468 35.8254 161.358 35.6733 162.06C35.5196 162.745 35.2081 163.354 34.7389 163.886C34.2696 164.418 33.5706 164.731 32.6418 164.823C31.4477 164.941 30.4476 164.538 29.6415 163.613C28.8188 162.689 28.3293 161.39 28.1729 159.714C28.0909 158.834 28.1166 157.944 28.2501 157.043C28.3837 156.142 28.6066 155.391 28.9188 154.791L30.9048 155.624C30.3088 156.772 30.079 158.076 30.2153 159.536C30.3097 160.548 30.5476 161.304 30.9288 161.802C31.3101 162.3 31.7744 162.522 32.3217 162.468C32.7529 162.425 33.079 162.242 33.2999 161.919C33.5208 161.595 33.6692 161.212 33.745 160.769C33.8193 160.31 33.8939 159.674 33.9689 158.863C34.0522 157.783 34.1715 156.908 34.3267 156.24C34.4638 155.556 34.7594 154.957 35.2136 154.443C35.6678 153.93 36.3428 153.628 37.2384 153.539C38.4325 153.421 39.4342 153.841 40.2434 154.799C41.0344 155.742 41.512 157.094 41.6761 158.853Z" fill="white"/>
<path d="M34.2598 106.787C34.8321 105.045 35.6941 103.863 36.8456 103.242C38.0023 102.604 39.4225 102.579 41.1062 103.167L48.6593 105.803L47.9491 107.965L46.2968 107.388C46.7542 107.971 47.0231 108.674 47.1037 109.496C47.1737 110.297 47.05 111.181 46.7326 112.147C46.2696 113.556 45.5592 114.57 44.6016 115.189C43.6492 115.792 42.6222 115.901 41.5207 115.516C40.4193 115.132 39.6707 114.421 39.2752 113.382C38.864 112.339 38.9471 110.938 39.5247 109.181L40.711 105.57L40.2625 105.414C39.2869 105.073 38.4458 105.098 37.7392 105.486C37.0326 105.875 36.4972 106.624 36.133 107.732C35.8885 108.476 35.775 109.248 35.7926 110.049C35.7945 110.844 35.9194 111.558 36.1672 112.192L34.1555 112.548C33.8496 111.718 33.7112 110.805 33.7402 109.809C33.7536 108.808 33.9268 107.8 34.2598 106.787ZM45.1109 111.157C45.3971 110.286 45.4554 109.468 45.2859 108.703C45.1006 107.932 44.7007 107.281 44.0863 106.749L42.3396 106.139L41.1845 109.654C40.5497 111.586 40.8775 112.777 42.1678 113.227C42.7972 113.447 43.3736 113.374 43.8968 113.01C44.42 112.645 44.8247 112.028 45.1109 111.157Z" fill="white"/>
<path d="M42.6607 92.1656C42.1619 91.439 41.9134 90.6166 41.9154 89.6986C41.9173 88.7806 42.1735 87.7971 42.684 86.748L44.7494 87.8154C44.6763 87.9277 44.5887 88.0887 44.4866 88.2985C43.9178 89.4675 43.8173 90.569 44.1851 91.6031C44.5453 92.6145 45.3621 93.4492 46.6355 94.1073L52.4988 97.1374L51.4487 99.2955L39.6777 93.2123L40.684 91.1441L42.6607 92.1656Z" fill="white"/>
<path d="M59.1824 73.2285C59.3315 73.3352 59.5187 73.4896 59.7441 73.6919L53.7378 82.6074C54.7704 83.1619 55.8202 83.2883 56.8873 82.9866C57.9501 82.6614 58.8447 81.9596 59.571 80.8815C60.4556 79.5683 60.7343 78.2006 60.4069 76.7781L62.4077 76.5812C62.6418 77.4862 62.6565 78.4185 62.4518 79.3783C62.2565 80.3243 61.8515 81.2534 61.2369 82.1657C60.4547 83.3268 59.5305 84.1917 58.4644 84.7604C57.3847 85.3195 56.2571 85.5471 55.0815 85.4434C53.9152 85.3259 52.8035 84.8888 51.7463 84.1323C50.7026 83.3855 49.9189 82.4765 49.3952 81.4052C48.8808 80.3201 48.6725 79.198 48.7704 78.0389C48.864 76.8562 49.2647 75.7396 49.9724 74.6891C50.6801 73.6386 51.5459 72.8753 52.5697 72.3992C53.5892 71.8996 54.6728 71.7224 55.8205 71.8676C56.9774 71.999 58.0981 72.4526 59.1824 73.2285ZM51.6192 75.8675C50.9767 76.8213 50.7212 77.8267 50.8528 78.8837C50.9937 79.9269 51.4878 80.8335 52.335 81.6036L57.0841 74.5541C56.1015 74.0149 55.1067 73.8664 54.0998 74.1087C53.0886 74.3275 52.2617 74.9138 51.6192 75.8675Z" fill="white"/>
<path d="M99.8413 31.3898C101.307 30.596 102.684 30.3995 103.973 30.8003C105.277 31.1932 106.36 32.2359 107.224 33.9285L110.687 40.7213L108.577 41.8644L105.238 35.3165C104.655 34.1733 103.952 33.455 103.129 33.1617C102.321 32.8604 101.434 32.9718 100.466 33.4956C99.3964 34.0751 98.7206 34.877 98.4387 35.9013C98.1492 36.9107 98.3263 38.0465 98.9698 39.3086L102.07 45.3887L99.9599 46.5317L96.621 39.9839C96.038 38.8406 95.3351 38.1223 94.5122 37.829C93.704 37.5278 92.8163 37.6391 91.8491 38.163C90.7793 38.7424 90.1034 39.5443 89.8215 40.5686C89.532 41.5781 89.7091 42.7138 90.3527 43.9759L93.4531 50.056L91.3428 51.199L85.3236 39.3951L87.346 38.2997L88.2432 40.0592C88.3578 39.2202 88.6799 38.4583 89.2097 37.7735C89.732 37.0737 90.4327 36.4857 91.312 36.0095C92.2206 35.5174 93.1213 35.2664 94.014 35.2566C94.9068 35.2468 95.7254 35.495 96.4698 36.0013C96.5612 35.0802 96.8968 34.2163 97.4767 33.4095C98.0712 32.5949 98.8594 31.9216 99.8413 31.3898Z" fill="white"/>
<path d="M117.273 24.8698C119.028 24.3413 120.491 24.3707 121.662 24.958C122.849 25.5405 123.686 26.6896 124.172 28.4053L126.354 36.1022L124.175 36.758L123.698 35.0743C123.483 35.7829 123.062 36.4056 122.435 36.9425C121.819 37.4585 121.024 37.8631 120.051 38.1562C118.63 38.5837 117.392 38.5825 116.334 38.1524C115.293 37.7175 114.613 36.9388 114.295 35.8163C113.977 34.6939 114.13 33.6734 114.753 32.7549C115.371 31.8204 116.566 31.0865 118.338 30.5533L121.976 29.4579L121.847 29.0009C121.565 28.0067 121.062 27.3315 120.338 26.9753C119.613 26.6191 118.692 26.6092 117.575 26.9454C116.825 27.1712 116.127 27.5205 115.482 27.9933C114.832 28.45 114.319 28.9613 113.942 29.5271L112.494 28.0835C112.998 27.3574 113.666 26.7211 114.499 26.1747C115.327 25.6122 116.251 25.1773 117.273 24.8698ZM119.929 36.261C120.807 35.9967 121.511 35.5761 122.04 34.9991C122.565 34.4061 122.869 33.7055 122.951 32.8974L122.447 31.1175L118.904 32.1841C116.957 32.7702 116.17 33.7207 116.542 35.0355C116.724 35.677 117.115 36.1076 117.714 36.3275C118.313 36.5474 119.052 36.5252 119.929 36.261Z" fill="white"/>
<path d="M143.094 14.764L145.233 33.1904L142.95 33.4718L142.708 31.3858C142.263 32.1795 141.657 32.8166 140.891 33.2973C140.125 33.778 139.254 34.0785 138.278 34.1989C137.004 34.3559 135.83 34.2151 134.756 33.7766C133.681 33.3381 132.796 32.6496 132.1 31.7111C131.418 30.754 131.001 29.6132 130.847 28.2888C130.693 26.9643 130.839 25.7625 131.284 24.6833C131.746 23.602 132.449 22.7177 133.392 22.0305C134.336 21.3432 135.445 20.921 136.718 20.764C137.661 20.6478 138.551 20.7229 139.387 20.9892C140.221 21.239 140.944 21.6789 141.554 22.309L140.712 15.0577L143.094 14.764ZM138.234 32.0884C139.061 31.9864 139.792 31.7033 140.426 31.2389C141.058 30.7579 141.524 30.1464 141.823 29.4041C142.121 28.6453 142.217 27.8107 142.112 26.9001C142.006 25.9895 141.723 25.2101 141.261 24.5616C140.798 23.8966 140.206 23.4156 139.483 23.1184C138.761 22.8212 137.986 22.7236 137.159 22.8256C136.315 22.9296 135.577 23.2137 134.943 23.6781C134.325 24.1405 133.859 24.7521 133.545 25.5129C133.245 26.2551 133.148 27.0815 133.254 27.9921C133.359 28.9026 133.644 29.6904 134.107 30.3554C134.585 31.0018 135.177 31.4829 135.885 31.7986C136.607 32.0958 137.39 32.1924 138.234 32.0884Z" fill="white"/>
<path d="M164.756 27.1624C164.747 27.3455 164.719 27.586 164.671 27.8839L153.935 27.3311C154.029 28.5041 154.491 29.4708 155.321 30.2312C156.17 30.9758 157.243 31.3815 158.541 31.4484C160.122 31.5298 161.422 31.0627 162.439 30.047L163.687 31.6633C163.054 32.3316 162.279 32.8258 161.362 33.1457C160.462 33.4665 159.463 33.5986 158.365 33.5421C156.966 33.4701 155.74 33.1232 154.686 32.5015C153.632 31.8632 152.831 31.0125 152.281 29.9495C151.749 28.8874 151.514 27.7071 151.577 26.4086C151.639 25.1268 151.978 23.9844 152.594 22.9814C153.227 21.9793 154.056 21.2209 155.082 20.7064C156.126 20.176 157.28 19.9434 158.545 20.0085C159.81 20.0737 160.92 20.4228 161.873 21.0561C162.845 21.6735 163.58 22.5124 164.079 23.5728C164.595 24.6341 164.821 25.8306 164.756 27.1624ZM158.447 22.0311C157.299 21.972 156.316 22.2719 155.5 22.9308C154.701 23.5905 154.207 24.483 154.019 25.6081L162.507 26.0452C162.428 24.923 162.015 23.9922 161.266 23.2527C160.535 22.4975 159.596 22.0903 158.447 22.0311Z" fill="white"/>
<path d="M205.388 32.5409L207.533 33.6174L201.873 45.5975L199.728 44.521L205.388 32.5409ZM207.55 30.7735C207.133 30.5642 206.847 30.2529 206.692 29.8396C206.552 29.4338 206.575 29.035 206.76 28.6432C206.945 28.2514 207.236 27.9872 207.632 27.8505C208.05 27.7062 208.468 27.7387 208.885 27.9481C209.302 28.1574 209.581 28.4649 209.721 28.8707C209.883 29.269 209.871 29.664 209.686 30.0558C209.494 30.4626 209.188 30.7382 208.77 30.8825C208.374 31.0192 207.967 30.9829 207.55 30.7735Z" fill="white"/>
<path d="M221.719 42.1137C223.107 43.0663 223.939 44.2338 224.216 45.6162C224.516 46.994 224.154 48.4738 223.132 50.0556L218.994 56.4597L217.015 55.1015L221.004 48.9283C221.701 47.8505 221.971 46.8641 221.816 45.9692C221.66 45.0743 221.108 44.3014 220.16 43.6506C219.088 42.9149 218.035 42.6568 217.001 42.8763C215.975 43.0818 215.078 43.7794 214.309 44.9692L210.605 50.7014L208.626 49.3432L215.818 38.2148L217.714 39.5164L216.628 41.1962C217.398 40.8958 218.219 40.8227 219.091 40.9769C219.977 41.1405 220.853 41.5195 221.719 42.1137Z" fill="white"/>
<path d="M259.472 80.4046L256.447 75.2228L258.295 74.0767L265.593 86.5776L263.744 87.7238L260.72 82.542L247.695 90.6178L246.447 88.4803L259.472 80.4046Z" fill="white"/>
<path d="M269.408 106.986L257.158 112.033L256.335 109.912L258.184 109.15C257.377 108.96 256.652 108.565 256.008 107.965C255.386 107.375 254.906 106.644 254.569 105.774C253.93 104.127 253.873 102.645 254.399 101.329C254.941 100.007 256.09 98.9837 257.847 98.2599L264.897 95.3551L265.765 97.5927L258.969 100.393C257.782 100.882 256.992 101.54 256.599 102.369C256.221 103.192 256.24 104.139 256.656 105.211C257.114 106.392 257.83 107.179 258.804 107.57C259.778 107.962 260.913 107.891 262.207 107.358L268.54 104.748L269.408 106.986Z" fill="white"/>
<path d="M270.109 118.445C270.947 118.667 271.653 119.129 272.225 119.829C272.798 120.529 273.216 121.447 273.48 122.584L271.222 123.139C271.208 123.005 271.175 122.825 271.122 122.597C270.829 121.331 270.217 120.426 269.287 119.883C268.377 119.351 267.226 119.257 265.834 119.599L259.426 121.177L258.884 118.839L271.75 115.672L272.269 117.913L270.109 118.445Z" fill="white"/>
<path d="M268.187 137.023L265.402 134.527L261.794 134.871L261.579 132.481L280.045 130.719L280.26 133.109L268.413 134.239L275.63 140.809L275.889 143.697L269.94 138.664L262.748 145.503L262.485 142.565L268.187 137.023Z" fill="white"/>
<path d="M274.414 168.667C274.234 170.324 273.612 171.577 272.548 172.428C271.481 173.295 270.004 173.62 268.117 173.402L260.542 172.53L260.801 170.144L268.102 170.985C269.377 171.132 270.37 170.944 271.08 170.422C271.789 169.916 272.202 169.117 272.321 168.023C272.452 166.813 272.175 165.809 271.491 165.008C270.823 164.21 269.785 163.73 268.378 163.568L261.598 162.788L261.856 160.402L269.158 161.242C270.433 161.389 271.426 161.201 272.136 160.679C272.845 160.173 273.258 159.374 273.377 158.28C273.508 157.071 273.231 156.066 272.547 155.265C271.879 154.467 270.841 153.987 269.434 153.825L262.654 153.045L262.912 150.659L276.075 152.174L275.828 154.46L273.866 154.235C274.492 154.793 274.937 155.482 275.201 156.301C275.481 157.121 275.567 158.029 275.459 159.023C275.348 160.05 275.042 160.938 274.542 161.686C274.042 162.433 273.371 162.977 272.529 163.316C273.237 163.901 273.759 164.657 274.094 165.585C274.427 166.529 274.534 167.556 274.414 168.667Z" fill="white"/>
<path d="M261.249 192.089C261.075 192.031 260.851 191.938 260.577 191.811L263.815 181.56C262.664 181.332 261.618 181.517 260.677 182.115C259.748 182.735 259.087 183.665 258.695 184.904C258.218 186.414 258.34 187.799 259.06 189.061L257.191 189.831C256.708 189.036 256.429 188.151 256.352 187.176C256.271 186.218 256.396 185.214 256.727 184.165C257.149 182.83 257.791 181.736 258.655 180.883C259.534 180.036 260.554 179.49 261.715 179.247C262.87 179.019 264.064 179.112 265.296 179.526C266.513 179.934 267.526 180.573 268.335 181.442C269.139 182.327 269.659 183.336 269.895 184.47C270.141 185.625 270.074 186.807 269.692 188.014C269.311 189.222 268.695 190.202 267.846 190.954C267.008 191.728 266.016 192.212 264.87 192.408C263.72 192.619 262.513 192.513 261.249 192.089ZM267.773 187.37C268.119 186.274 268.078 185.24 267.651 184.271C267.218 183.317 266.485 182.596 265.45 182.109L262.89 190.214C263.989 190.442 264.988 190.294 265.887 189.77C266.798 189.267 267.426 188.467 267.773 187.37Z" fill="white"/>
<path d="M261.179 208.584C260.414 210.084 259.376 211.037 258.065 211.445C256.761 211.876 255.281 211.643 253.625 210.746L246.919 207.116L248.009 204.977L254.473 208.477C255.601 209.088 256.591 209.274 257.443 209.034C258.295 208.794 258.982 208.162 259.504 207.137C260.094 205.979 260.223 204.883 259.889 203.85C259.57 202.825 258.788 201.975 257.542 201.3L251.54 198.051L252.63 195.912L264.282 202.221L263.238 204.27L261.479 203.318C261.86 204.074 262.027 204.903 261.978 205.805C261.922 206.722 261.656 207.648 261.179 208.584Z" fill="white"/>
<path d="M253.411 221.418L252.048 223.393L241.36 215.561L242.723 213.586L253.411 221.418ZM254.786 223.913C255.051 223.529 255.394 223.295 255.816 223.212C256.228 223.142 256.609 223.236 256.959 223.492C257.308 223.748 257.519 224.088 257.591 224.512C257.666 224.96 257.571 225.376 257.306 225.76C257.041 226.144 256.703 226.371 256.29 226.441C255.882 226.534 255.503 226.452 255.153 226.196C254.791 225.93 254.571 225.573 254.496 225.126C254.424 224.701 254.521 224.297 254.786 223.913Z" fill="white"/>
<path d="M234.044 224.7C234.757 223.885 235.546 223.197 236.412 222.637C237.29 222.088 238.081 221.754 238.783 221.633L239.517 223.679C238.828 223.835 238.118 224.141 237.386 224.598C236.654 225.056 236.009 225.604 235.449 226.244C234.067 227.825 233.816 229.024 234.695 229.84C234.988 230.113 235.314 230.221 235.671 230.167C236.029 230.112 236.387 229.956 236.745 229.698C237.105 229.463 237.591 229.097 238.205 228.598C239.029 227.908 239.745 227.38 240.354 227.013C240.951 226.658 241.598 226.475 242.295 226.463C242.992 226.45 243.682 226.762 244.366 227.397C245.245 228.213 245.619 229.242 245.486 230.482C245.365 231.734 244.75 232.994 243.643 234.261C243.061 234.926 242.4 235.517 241.66 236.035C240.92 236.553 240.229 236.9 239.587 237.077L238.87 235.013C240.096 234.673 241.191 233.952 242.157 232.847C242.826 232.082 243.214 231.385 243.321 230.757C243.427 230.128 243.279 229.627 242.876 229.253C242.559 228.958 242.209 228.838 241.829 228.894C241.448 228.95 241.073 229.101 240.702 229.348C240.32 229.607 239.811 229.987 239.175 230.487C238.338 231.166 237.627 231.676 237.04 232.018C236.455 232.384 235.825 232.572 235.152 232.583C234.478 232.594 233.812 232.294 233.152 231.681C232.273 230.865 231.911 229.824 232.066 228.558C232.222 227.316 232.881 226.031 234.044 224.7Z" fill="white"/>
<path d="M220.876 238.897C220.947 238.435 221.124 237.969 221.405 237.499C221.697 237.043 222.05 236.632 222.463 236.269C223.463 235.388 224.468 234.981 225.476 235.048C226.483 235.116 227.413 235.663 228.263 236.689L232.905 242.291L234.594 240.804L235.855 242.325L234.166 243.811L236.016 246.044L234.215 247.63L232.364 245.397L229.512 247.908L228.252 246.387L231.104 243.877L226.526 238.352C226.068 237.8 225.586 237.492 225.079 237.429C224.559 237.376 224.049 237.569 223.548 238.01C222.998 238.494 222.662 239.068 222.54 239.73L220.876 238.897Z" fill="white"/>
<path d="M218.419 256.221C216.888 257.23 215.481 257.617 214.2 257.384C212.904 257.16 211.786 256.29 210.847 254.774L206.631 247.975L208.531 246.724L209.453 248.211C209.462 247.467 209.692 246.747 210.143 246.051C210.588 245.379 211.236 244.763 212.085 244.204C213.324 243.388 214.508 243.037 215.637 243.151C216.752 243.274 217.617 243.832 218.232 244.823C218.847 245.815 218.984 246.842 218.643 247.904C218.311 248.981 217.372 250.028 215.827 251.046L212.653 253.136L212.904 253.539C213.448 254.418 214.116 254.925 214.907 255.063C215.698 255.2 216.581 254.948 217.555 254.306C218.209 253.876 218.779 253.341 219.265 252.701C219.76 252.076 220.108 251.438 220.312 250.785L222.095 251.765C221.814 252.608 221.352 253.412 220.708 254.175C220.073 254.952 219.309 255.634 218.419 256.221ZM212.726 245.996C211.96 246.5 211.404 247.106 211.058 247.812C210.721 248.533 210.625 249.295 210.77 250.097L211.744 251.67L214.834 249.634C216.533 248.516 217.022 247.376 216.301 246.215C215.95 245.648 215.458 245.344 214.824 245.302C214.191 245.261 213.491 245.492 212.726 245.996Z" fill="white"/>
<path d="M199.418 266.458C197.877 267.136 196.469 267.219 195.192 266.706C193.907 266.216 192.904 265.101 192.183 263.361L189.265 256.316L191.462 255.35L194.275 262.14C194.766 263.326 195.418 264.095 196.231 264.447C197.044 264.799 197.977 264.744 199.03 264.281C200.22 263.757 201.011 262.99 201.404 261.98C201.804 260.985 201.733 259.833 201.19 258.524L198.578 252.219L200.775 251.252L205.846 263.493L203.741 264.42L202.975 262.572C202.795 263.398 202.4 264.145 201.793 264.812C201.171 265.487 200.379 266.035 199.418 266.458Z" fill="white"/>
</svg>
